<?xml version="1.0" standalone="no"?><!DOCTYPE svg PUBLIC "-//W3C//DTD SVG 1.1//EN" "http://www.w3.org/Graphics/SVG/1.1/DTD/svg11.dtd"><svg t="1545419968043" class="icon" style="" viewBox="0 0 1024 1024" version="1.1" xmlns="http://www.w3.org/2000/svg" p-id="3715" xmlns:xlink="http://www.w3.org/1999/xlink" width="200" height="200"><defs><style type="text/css"></style></defs><path d="M499.230118 915.425882L111.465412 549.707294a282.563765 282.563765 0 0 1-64.632471-179.983059c0-153.148235 123.361882-277.744941 275.004235-277.744941 70.686118 0 137.667765 26.834824 188.175059 74.571294a273.167059 273.167059 0 0 1 188.175059-74.571294c151.642353 0 275.004235 124.596706 275.004235 277.744941a282.563765 282.563765 0 0 1-64.63247 179.983059l-2.740706 2.921412-318.433882 291.900235-38.912-43.279059 316.867764-290.544941a226.725647 226.725647 0 0 0 49.935059-140.980706c0-120.922353-97.400471-219.256471-217.118118-219.25647-64.512 0-124.988235 28.16-166.038588 77.312l-22.13647 26.503529-22.136471-26.503529a215.491765 215.491765 0 0 0-166.038588-77.312c-119.717647 0-217.118118 98.334118-217.118118 219.25647 0 50.718118 18.191059 102.038588 50.025412 141.131294l389.872941 363.851295-45.357176 40.719058z" fill="#333333" p-id="3716"></path><path d="M487.092706 742.369882l-291.538824-273.679058A166.249412 166.249412 0 0 1 162.635294 369.724235c0-88.666353 71.439059-160.798118 159.232-160.798117v58.458353c-55.868235 0-101.315765 45.899294-101.315765 102.309647 0 21.714824 7.198118 44.062118 19.787295 61.801411l286.177882 268.016942-39.424 42.857411z m122.548706-416.286117l-50.748236-28.220236a158.418824 158.418824 0 0 1 95.232-76.8 156.912941 156.912941 0 0 1 121.072942 13.583059l-27.919059 51.230118a99.870118 99.870118 0 0 0-77.071059-8.643765 101.014588 101.014588 0 0 0-60.566588 48.850824zM580.246588 772.156235l-119.265882 107.158589 43.489882 41.170823 124.747294-114.266353z" fill="#333333" p-id="3717"></path></svg>