<?xml version="1.0" standalone="no"?><!DOCTYPE svg PUBLIC "-//W3C//DTD SVG 1.1//EN" "http://www.w3.org/Graphics/SVG/1.1/DTD/svg11.dtd"><svg t="1545558522840" class="icon" style="" viewBox="0 0 1024 1024" version="1.1" xmlns="http://www.w3.org/2000/svg" p-id="20289" xmlns:xlink="http://www.w3.org/1999/xlink" width="200" height="200"><defs><style type="text/css"></style></defs><path d="M611.4 439.31l30 31 44 8 49-45 53 122-97-2-12-18-15 15-93 5 41-116zM677.14 257.92l81-215.99 32.99 12 28.5 45v33l-86.99 242.98-42-23.99-42-4.5-28.5 29.99-89.99-254.98 13.5-52.5 40.49-28.5 93 217.49z" fill="#C3CBD8" p-id="20290"></path><path d="M690.4 553.31s147.24-5.9 228.23 118.59 67.5 250.49-34.5 309l-39-9-166.49-420H663.4L516.65 964.38l-33 22.5s-125.24-51.8-109.49-183c27-225 268.49-256.49 268.49-256.49l40.5-9z" fill="#8AABFF" p-id="20291"></path><path d="M561.4 60.31l181 489 41 3-71.35-188.06-49.65-21.44 14.18-72.07L588.4 38.31l-27 22z" fill="#A0A8B5" p-id="20292"></path><path d="M41.4 50.31l21-24h322l19 31-21 37h-234v94h217l36 34-29 36h-220v98h216l32 31-29 32h-222v93h213l38 32-26 36h-224v37l75 252s18 85-46 115-137-1-139-90 1-844 1-844z" fill="#FFC2D1" p-id="20293"></path><path d="M791.13 62.93l0.61 17.69a131.27 131.27 0 0 1-8.06 50L629.14 548.9l34.5 9 156-426z" fill="#A0A8B5" p-id="20294"></path><path d="M670.9 412.81m-58.5 0a58.5 58.5 0 1 0 117 0 58.5 58.5 0 1 0-117 0Z" fill="#5983E2" p-id="20295"></path><path d="M657.4 381.31m-58.5 0a58.5 58.5 0 1 0 117 0 58.5 58.5 0 1 0-117 0Z" fill="#8AABFF" p-id="20296"></path><path d="M214.66 856.4a89 89 0 0 1-165.19 42.48c0 1.14-0.07 2.28-0.07 3.43a89 89 0 1 0 165.26-45.9z" fill="#FF99B6" p-id="20297"></path><path d="M366.64 272.51a48.05 48.05 0 1 0 0-96.1H162.56v-66.79h204.08a48.05 48.05 0 1 0 0-96.1H72.87A44.23 44.23 0 0 0 28.69 57.7v845a107.89 107.89 0 0 0 107.77 107.77 107.77 107.77 0 0 0 103-139.43L164.74 628a49.37 49.37 0 0 1-2.18-14.52v-15.19h204.08a48.05 48.05 0 1 0 0-96.1H162.56V435.4h204.08a48.05 48.05 0 1 0 0-96.1H162.56v-66.79zM157.29 369.3h209.35a18.05 18.05 0 1 1 0 36.1H157.29a24.76 24.76 0 0 0-24.73 24.73v77.34a24.76 24.76 0 0 0 24.73 24.73h209.35a18.05 18.05 0 1 1 0 36.1H157.29a24.76 24.76 0 0 0-24.73 24.7v20.42a79.35 79.35 0 0 0 3.5 23.33l74.72 243.1a77.77 77.77 0 0 1-74.33 100.62 77.85 77.85 0 0 1-77.77-77.77v-845a14.2 14.2 0 0 1 14.19-14.19h293.77a18.05 18.05 0 1 1 0 36.1H157.29a24.76 24.76 0 0 0-24.73 24.73v77.34a24.76 24.76 0 0 0 24.73 24.73h209.35a18.05 18.05 0 1 1 0 36.1H157.29a24.76 24.76 0 0 0-24.73 24.73v77.34a24.76 24.76 0 0 0 24.73 24.72z" fill="#192B3A" p-id="20298"></path><path d="M978.89 738.16c-30.34-81-104.43-154.77-183-186l-50.55-135a75.62 75.62 0 0 0-4.09-28l87.78-239A98.74 98.74 0 0 0 770.42 23.5a18.61 18.61 0 0 0-23.91 11.07L675 229.26l-72.27-193a18.61 18.61 0 0 0-24-10.91 98.74 98.74 0 0 0-57.84 127.1l83.52 223a75.8 75.8 0 0 0-6.33 63.17L557 550.64c-78.66 31.53-152.22 106.66-182.16 188.2-41.89 114 3.11 211.2 87.81 257.23a45.69 45.69 0 0 0 64.76-24.41L676.08 566.8l1.68 4.48 150 400.67a45.69 45.69 0 0 0 64.92 24c84.44-46.57 128.82-144.01 86.21-257.79zM770.43 56.46a68.85 68.85 0 0 1 30.48 83.42L720.8 358a75.93 75.93 0 0 0-51.09-19.85c-0.92 0-1.84 0-2.76 0.05zM549 141.92a68.78 68.78 0 0 1 30-83.62l80.19 214.15-28 76.32c-1.28 0.76-2.53 1.56-3.76 2.39z m-49.77 819.4a15.67 15.67 0 0 1-14.82 10.32 15.48 15.48 0 0 1-7.46-1.93 174.75 174.75 0 0 1-47.27-37.17 158.85 158.85 0 0 1-30.34-50.1c-15-39.94-13.71-86 3.63-133.25C420.26 702.11 455.13 655 498.65 620c21.61-17.4 44.19-31 67.12-40.53 23.17-9.59 45.58-14.46 66.6-14.46q6.2 0 12.21 0.58z m156-424.68a155.55 155.55 0 0 0-22.86-1.64 183.5 183.5 0 0 0-39.31 4.43l25.54-69.54a75.93 75.93 0 0 0 51.09 19.85c0.92 0 1.84 0 2.76-0.05z m14.49-76.93a45.77 45.77 0 0 1 0-91.53 45.77 45.77 0 0 1 0 91.53z m22.25 63.91l16.34-44.5a75.63 75.63 0 0 0 21.25-18.71L759.7 541a186.56 186.56 0 0 0-40-4.53 156.37 156.37 0 0 0-22.37 1.53z m263.3 358.29a158.84 158.84 0 0 1-30 50.29 174.74 174.74 0 0 1-47 37.47 15.47 15.47 0 0 1-7.55 2 15.69 15.69 0 0 1-14.78-10.22L708.16 566.93q5.67-0.51 11.53-0.51c21 0 43.44 4.79 66.72 14.24 23.08 9.37 45.83 22.82 67.61 40 44 34.69 79.29 81.35 96.77 128 17.65 47.14 19.21 93.21 4.48 133.25z" fill="#192B3A" p-id="20299"></path></svg>