<?xml version="1.0" standalone="no"?><!DOCTYPE svg PUBLIC "-//W3C//DTD SVG 1.1//EN" "http://www.w3.org/Graphics/SVG/1.1/DTD/svg11.dtd"><svg t="1545559319786" class="icon" style="" viewBox="0 0 1024 1024" version="1.1" xmlns="http://www.w3.org/2000/svg" p-id="22228" xmlns:xlink="http://www.w3.org/1999/xlink" width="200" height="200"><defs><style type="text/css"></style></defs><path d="M513.783992 995.46945l-109.003502-79.151638-109.007502 79.151638V428.91604h218.011004z" fill="#BBDCE3" p-id="22229"></path><path d="M731.574996 915.495816l-109.005501-79.149638-109.005502 79.149638V348.944405h218.011003z" fill="#BBDCE3" p-id="22230"></path><path d="M404.77449 703.298786c-1.853992 0-3.735983-0.195999-5.561975-0.539998a31.133858 31.133858 0 0 1-5.333975-1.625992 28.251871 28.251871 0 0 1-4.933978-2.623988c-1.567993-1.055995-3.023986-2.25399-4.33598-3.565984s-2.509989-2.765987-3.537984-4.33798a28.737869 28.737869 0 0 1-2.623988-4.905978 29.239866 29.239866 0 0 1-1.625992-5.333975 28.647869 28.647869 0 0 1-0.569998-5.591975c0-1.851992 0.199999-3.735983 0.569998-5.561975 0.369998-1.825992 0.911996-3.621983 1.625992-5.331975 0.713997-1.739992 1.597993-3.393984 2.623988-4.933978 1.025995-1.567993 2.22599-3.023986 3.537984-4.33598s2.765987-2.513989 4.33598-3.537984c1.539993-1.025995 3.193985-1.911991 4.933978-2.623988a26.713878 26.713878 0 0 1 5.333975-1.625992 28.223871 28.223871 0 0 1 11.153949 0c1.797992 0.341998 3.593984 0.911996 5.333976 1.625992 1.711992 0.713997 3.365985 1.597993 4.905978 2.623988 1.567993 1.023995 3.023986 2.22599 4.33598 3.537984s2.509989 2.765987 3.565984 4.33598c1.025995 1.539993 1.911991 3.193985 2.623988 4.933978a28.173871 28.173871 0 0 1 2.16799 10.89395c0 1.853992-0.171999 3.739983-0.541998 5.591975a29.923863 29.923863 0 0 1-1.625992 5.333975 28.879868 28.879868 0 0 1-2.623988 4.905978 29.035867 29.035867 0 0 1-7.901964 7.903964c-1.539993 1.025995-3.193985 1.911991-4.905978 2.623988-1.739992 0.683997-3.537984 1.255994-5.333976 1.625992-1.855992 0.339998-3.737983 0.539998-5.591974 0.539998zM622.565495 688.836852a28.279871 28.279871 0 0 1-5.561975-0.541998 28.677869 28.677869 0 0 1-5.333976-1.625992 28.303871 28.303871 0 0 1-4.931977-2.623988 29.239866 29.239866 0 0 1-4.33798-3.565984 29.119867 29.119867 0 0 1-3.565984-4.33598 30.859859 30.859859 0 0 1-2.591988-4.905978 26.753878 26.753878 0 0 1-1.625993-5.333975 28.47787 28.47787 0 0 1-0.569997-5.591975c0-1.853992 0.199999-3.711983 0.569997-5.561974 0.341998-1.827992 0.911996-3.625983 1.625993-5.333976s1.597993-3.365985 2.591988-4.933977a32.409852 32.409852 0 0 1 3.565984-4.335981 29.065867 29.065867 0 0 1 4.33798-3.537983 29.029867 29.029867 0 0 1 10.265953-4.249981 28.223871 28.223871 0 0 1 11.153949 0 30.359861 30.359861 0 0 1 5.333976 1.625992 28.941868 28.941868 0 0 1 9.243957 6.161972c1.311994 1.339994 2.509989 2.791987 3.533984 4.335981 1.055995 1.571993 1.913991 3.225985 2.627988 4.933977s1.279994 3.505984 1.623993 5.333976c0.369998 1.851992 0.569997 3.707983 0.569997 5.561974 0 1.879991-0.199999 3.735983-0.569997 5.591975a27.275875 27.275875 0 0 1-1.623993 5.333975 27.051876 27.051876 0 0 1-2.627988 4.905978 27.163876 27.163876 0 0 1-3.533984 4.33598 29.239866 29.239866 0 0 1-4.33798 3.565984c-1.539993 1.025995-3.193985 1.911991-4.905977 2.623988-1.739992 0.713997-3.537984 1.255994-5.333976 1.625992-1.853992 0.369998-3.737983 0.541998-5.591974 0.541998z" fill="" p-id="22231"></path><path d="M894.386252 94.527568c-16.279926-47.499783-32.007854-66.001698-32.007853-66.001698-108.989502 0-283.408705 236.706918-283.408705 236.706918 0.046 0.02-133.987388 0.02-133.987388 0.02 0.046-0.02-174.373203-236.726918-283.362705-236.726918 0 0-15.725928 18.501915-32.005853 66.001698-34.769841 175.377198-34.769841 356.73637 0 532.111568 16.279926 47.529783 32.005854 66.001698 32.005853 66.001698 108.989502 0 283.408705-236.676918 283.408705-236.676918-0.006-0.012 133.951388-0.012 133.951388-0.012-0.008 0.012 174.409203 236.688918 283.398705 236.688918 0 0 15.729928-18.473916 32.007853-66.001698 34.769841-175.377198 34.769841-356.73237 0-532.111568z" fill="#BBDCE3" p-id="22232"></path><path d="M929.686091 599.62326s55.835745-95.733562 55.835745-239.042908c0-143.303345-55.835745-239.030908-55.835745-239.030908-127.681416-28.51387-351.918392 152.457303-351.918392 152.457304v173.163208c0.002-0.004 224.238975 180.955173 351.918392 152.453304zM94.307909 121.549444s-55.827745 95.725563-55.827745 239.030908c0 143.315345 55.827745 239.042907 55.827745 239.042908 127.679416 28.50187 351.926392-152.457303 351.926392-152.457304v-173.163208c-0.002 0-224.246975-180.959173-351.926392-152.453304z" fill="#FF5E8A" p-id="22233"></path><path d="M510.438007 360.588352m-148.73132 0a148.73132 148.73132 0 1 0 297.46264 0 148.73132 148.73132 0 1 0-297.46264 0Z" fill="#FECC85" p-id="22234"></path><path d="M954.327978 107.17551a28.51987 28.51987 0 0 0-18.421915-13.469938 147.473326 147.473326 0 0 0-13.063941-2.27599c-0.159999-0.815996-0.307999-1.633993-0.469998-2.449989a28.715869 28.715869 0 0 0-0.997995-3.701983c-17.52592-51.137766-35.291839-72.915667-37.25983-75.229656A28.53387 28.53387 0 0 0 862.378399 0c-53.975753 0-120.40545 41.55581-203.077072 127.045419-26.431879 27.333875-49.819772 54.405751-67.659691 76.045653a176.115195 176.115195 0 0 0-81.203629-19.77391 176.119195 176.119195 0 0 0-79.035639 18.661915c-16.729924-20.249907-40.245816-47.571783-66.741695-74.965657C282.013051 41.54781 215.597355 0 161.621601 0a28.52187 28.52187 0 0 0-21.7339 10.049954c-1.967991 2.315989-19.73191 24.09189-37.25783 75.229656a28.157871 28.157871 0 0 0-0.995995 3.701983c-0.161999 0.815996-0.309999 1.631993-0.469998 2.447989a148.961319 148.961319 0 0 0-13.075941 2.27599 28.51587 28.51587 0 0 0-18.427915 13.469938c-2.435989 4.181981-59.709727 104.105524-59.709727 253.404842 0 149.305318 57.269738 249.228861 59.709727 253.410842 3.999982 6.857969 10.677951 11.737946 18.427915 13.469938 4.235981 0.947996 8.613961 1.651992 13.067941 2.23599 0.161999 0.829996 0.313999 1.659992 0.479997 2.489989 0.247999 1.251994 0.581997 2.487989 0.995996 3.695983 17.52792 51.173766 35.299839 72.935667 37.26783 75.249656a28.53387 28.53387 0 0 0 21.7219 10.037954c30.889859 0 65.867699-13.635938 105.627518-41.301811v315.598557a28.52187 28.52187 0 0 0 45.283793 23.083895l92.245578-66.977694 92.245578 66.977694a28.53987 28.53987 0 0 0 29.713865 2.329989 28.52187 28.52187 0 0 0 15.571928-25.413884V929.87575l80.259634-58.277733 92.245578 66.977693a28.51787 28.51787 0 0 0 29.713864 2.32999 28.52187 28.52187 0 0 0 15.571929-25.413884V682.178882c38.377825 26.115881 72.25767 38.991822 102.277533 38.991822a28.51987 28.51987 0 0 0 21.7199-10.035954c1.967991-2.313989 19.74591-24.07589 37.27383-75.253656 0.413998-1.209994 0.743997-2.441989 0.995995-3.695983 0.165999-0.829996 0.315999-1.659992 0.479998-2.489989 4.44998-0.583997 8.82596-1.289994 13.053941-2.23399a28.49987 28.49987 0 0 0 18.423915-13.469938c2.437989-4.181981 59.723727-104.111524 59.723727-253.412842-0.002-149.297318-57.283738-249.220861-59.721727-253.402842z m-90.737585-13.965936c-41.375811 6.811969-89.115593 24.505888-142.863347 53.007758 45.183793-43.6918 91.759581-79.275638 127.291418-87.415601 4.173981 7.521966 9.695956 18.821914 15.571929 34.407843zM630.655458 360.584352c0 66.287697-53.927754 120.217451-120.217451 120.217451-66.287697 0-120.215451-53.927754-120.21545-120.217451 0-66.283697 53.927754-120.215451 120.21545-120.215451 66.289697 0.004 120.217451 53.929754 120.217451 120.215451zM175.943536 58.879731c23.409893 5.495975 63.765709 25.529883 127.305418 87.329601-53.739754-28.49387-101.469536-46.181789-142.841347-52.991758 5.859973-15.539929 11.363948-26.815877 15.535929-34.337843zM67.006034 360.580352c0-105.661517 32.427852-184.619156 46.057789-213.131026 72.30367-6.56997 182.343167 55.201748 256.530828 105.667517-22.823896 29.837864-36.421834 67.085693-36.421834 107.465509s13.599938 77.631645 36.423834 107.471509c-74.217661 50.491769-184.311158 112.303487-256.588827 105.655517-13.637938-28.329871-46.00179-106.779512-46.00179-213.129026z m93.389573 267.340778c41.401811-6.809969 89.165592-24.491888 142.951347-53.023757-45.207793 43.7218-91.81558 79.331637-127.365418 87.4696-4.179981-7.523966-9.701956-18.827914-15.585929-34.445843z m272.910753 273.860749V759.896527c0-15.751928-12.769942-28.52587-28.52587-28.52587-15.753928 0-28.52587 12.773942-28.52587 28.52587v141.885352l-51.955762 37.723827V633.575104c13.02194-11.917946 26.477879-25.035886 40.403815-39.435819 25.981881-26.861877 49.023776-53.475756 66.743695-74.929658a175.885196 175.885196 0 0 0 53.593755 16.795923V915.495816c0 1.063995 0.102 2.10999 0.219999 3.151985v20.853905l-51.953762-37.719827z m269.742767-42.249807l-51.955763-37.727828V745.436593c0-15.751928-12.773942-28.52587-28.525869-28.52587s-28.52587 12.773942-28.52587 28.52587v76.367651l-51.733764 37.567828V534.925555a175.803197 175.803197 0 0 0 49.339775-16.851923c18.489915 22.415898 42.163807 49.713773 67.673691 76.085653 15.111931 15.625929 29.677864 29.765864 43.7258 42.471805v222.900982h0.002z m145.013337-197.239099c-23.425893-5.493975-63.791708-25.533883-127.369418-87.369601 53.779754 28.51987 101.525536 46.193789 142.917347 52.999758-5.867973 15.559929-11.375948 26.845877-15.547929 34.369843z m62.869713-88.573595c-72.939667 6.61197-184.353157-56.345742-258.556819-107.053511 22.177899-29.599865 35.331839-66.333697 35.331839-106.079515 0-39.757818-13.16194-76.49965-35.351838-106.103515 74.179661-50.731768 185.575152-113.70748 258.630818-107.027511 13.635938 28.325871 46.01179 106.779512 46.011789 213.127026 0 105.659517-32.437852 184.623156-46.065789 213.137026z" fill="" p-id="22235"></path></svg>