<?xml version="1.0" standalone="no"?><!DOCTYPE svg PUBLIC "-//W3C//DTD SVG 1.1//EN" "http://www.w3.org/Graphics/SVG/1.1/DTD/svg11.dtd"><svg t="1545559326406" class="icon" style="" viewBox="0 0 1024 1024" version="1.1" xmlns="http://www.w3.org/2000/svg" p-id="22373" xmlns:xlink="http://www.w3.org/1999/xlink" width="200" height="200"><defs><style type="text/css"></style></defs><path d="M881.5 273.3c-12.9-18.1-32.1-30.1-54-33.7-22-3.6-44 1.7-62 14.8L719.3 288c-9.6 7-11.7 20.3-4.7 29.9 7 9.6 20.3 11.7 29.9 4.7l46.1-33.6c8.7-6.3 19.3-8.9 30-7.1 10.6 1.7 19.9 7.5 26.1 16.3 32.2 45.2 70.5 118.8 70.5 213.3s-38.3 168.1-70.5 213.3c-6.2 8.7-15.5 14.5-26.1 16.2-10.6 1.7-21.3-0.8-30-7.1L611.1 603.2c13.4-19.6 29.4-51.4 29.4-91.8s-16-72.2-29.4-91.8l70.6-51.4c9.6-7 11.7-20.3 4.7-29.9-7-9.6-20.3-11.7-29.9-4.7l-78.9 57.5H443.7L255.8 254.4c-18-13.1-40-18.3-62-14.8-22 3.6-41.1 15.5-54 33.7-35.8 50.2-78.5 132.3-78.5 238.1s42.7 187.8 78.4 238.1c12.9 18.1 32.1 30.1 54 33.7 4.5 0.7 9 1.1 13.5 1.1 17.3 0 34.2-5.4 48.5-15.9l187.8-136.7h133.9l187.8 136.7c14.3 10.4 31.2 15.9 48.5 15.9 4.5 0 9-0.4 13.5-1.1 22-3.6 41.1-15.5 54-33.7 35.8-50.3 78.4-132.4 78.4-238.1s-42.3-187.9-78.1-238.1z" fill="#2E0C08" p-id="22374"></path><path d="M681.7 368.2l-70.6 51.4c13.4 19.6 29.4 51.4 29.4 91.8s-16 72.2-29.4 91.8l179.5 130.6c8.7 6.3 19.3 8.9 30 7.1 10.6-1.7 19.9-7.5 26.1-16.2 32.2-45.2 70.5-118.8 70.5-213.3s-38.3-168.1-70.5-213.3c-6.2-8.8-15.5-14.5-26.1-16.3-10.6-1.7-21.3 0.8-30 7.1l-46.1 33.6c-9.6 7-22.9 4.8-29.9-4.7l-28.1 20.5c6.9 9.6 4.8 23-4.8 29.9z" fill="#F6442C" p-id="22375"></path><path d="M805.9 393.7c11.8 0 21.4-9.6 21.4-21.4 0-11.8-9.6-21.4-21.4-21.4-11.8 0-21.4 9.6-21.4 21.4 0 11.9 9.6 21.4 21.4 21.4zM805.9 523.2c11.8 0 21.4-9.6 21.4-21.4 0-11.8-9.6-21.4-21.4-21.4-11.8 0-21.4 9.6-21.4 21.4 0 11.8 9.6 21.4 21.4 21.4zM318.1 468.1c-11.8 0-21.4-9.6-21.4-21.4 0-11.8 9.6-21.4 21.4-21.4 11.8 0 21.4 9.6 21.4 21.4 0 11.8-9.6 21.4-21.4 21.4zM318.1 597.5c-11.8 0-21.4-9.6-21.4-21.4 0-11.8 9.6-21.4 21.4-21.4 11.8 0 21.4 9.6 21.4 21.4 0 11.8-9.6 21.4-21.4 21.4zM215.4 393.7c-11.8 0-21.4-9.6-21.4-21.4 0-11.8 9.6-21.4 21.4-21.4s21.4 9.6 21.4 21.4c0 11.9-9.6 21.4-21.4 21.4zM215.4 523.2c-11.8 0-21.4-9.6-21.4-21.4 0-11.8 9.6-21.4 21.4-21.4s21.4 9.6 21.4 21.4c0 11.8-9.6 21.4-21.4 21.4zM215.4 652.6c-11.8 0-21.4-9.6-21.4-21.4 0-11.8 9.6-21.4 21.4-21.4s21.4 9.6 21.4 21.4c0 11.8-9.6 21.4-21.4 21.4zM805.9 652.6c11.8 0 21.4-9.6 21.4-21.4 0-11.8-9.6-21.4-21.4-21.4-11.8 0-21.4 9.6-21.4 21.4 0 11.8 9.6 21.4 21.4 21.4zM681.8 446.7c0 11.8 9.6 21.4 21.4 21.4 11.8 0 21.4-9.6 21.4-21.4 0-11.8-9.6-21.4-21.4-21.4-11.8 0-21.4 9.6-21.4 21.4zM703.2 554.7c-11.8 0-21.4 9.6-21.4 21.4 0 11.8 9.6 21.4 21.4 21.4 11.8 0 21.4-9.6 21.4-21.4 0-11.8-9.6-21.4-21.4-21.4z" fill="#2E0C08" p-id="22376"></path><path d="M568.3 588.9H453c-9.9-11.6-29.4-39.4-29.4-77.5s19.5-65.9 29.4-77.5h115.3c9.9 11.6 29.4 39.4 29.4 77.5s-19.6 65.9-29.4 77.5z" fill="#FFB2A8" p-id="22377"></path><path d="M200.7 740.9c-10.6-1.7-19.9-7.5-26.1-16.3-32.2-45.2-70.5-118.8-70.5-213.3s38.3-168.1 70.5-213.3c6.2-8.7 15.5-14.5 26.1-16.2 10.6-1.7 21.3 0.8 30 7.1l179.5 130.6c-13.4 19.6-29.4 51.4-29.4 91.8s16 72.2 29.4 91.8L230.7 733.8c-8.7 6.3-19.4 8.9-30 7.1z" fill="#F6442C" p-id="22378"></path><path d="M318.1 425.3c-11.8 0-21.4 9.6-21.4 21.4 0 11.8 9.6 21.4 21.4 21.4 11.8 0 21.4-9.6 21.4-21.4 0-11.8-9.6-21.4-21.4-21.4zM318.1 554.7c-11.8 0-21.4 9.6-21.4 21.4 0 11.8 9.6 21.4 21.4 21.4 11.8 0 21.4-9.6 21.4-21.4 0-11.8-9.6-21.4-21.4-21.4zM215.4 350.9c-11.8 0-21.4 9.6-21.4 21.4 0 11.8 9.6 21.4 21.4 21.4s21.4-9.6 21.4-21.4c0-11.8-9.6-21.4-21.4-21.4zM215.4 480.4c-11.8 0-21.4 9.6-21.4 21.4 0 11.8 9.6 21.4 21.4 21.4s21.4-9.6 21.4-21.4c0-11.8-9.6-21.4-21.4-21.4zM215.4 609.8c-11.8 0-21.4 9.6-21.4 21.4 0 11.8 9.6 21.4 21.4 21.4s21.4-9.6 21.4-21.4c0-11.8-9.6-21.4-21.4-21.4z" fill="#2E0C08" p-id="22379"></path></svg>