<?xml version="1.0" standalone="no"?><!DOCTYPE svg PUBLIC "-//W3C//DTD SVG 1.1//EN" "http://www.w3.org/Graphics/SVG/1.1/DTD/svg11.dtd"><svg t="1545559503113" class="icon" style="" viewBox="0 0 1024 1024" version="1.1" xmlns="http://www.w3.org/2000/svg" p-id="27358" xmlns:xlink="http://www.w3.org/1999/xlink" width="200" height="200"><defs><style type="text/css"></style></defs><path d="M936.3 871.7h-790c-10.8 0-19.5-8.4-19.5-18.8v-545c0-10.4 8.7-18.8 19.5-18.8h790c10.8 0 19.5 8.4 19.5 18.8v544.9c0 10.4-8.7 18.9-19.5 18.9z" fill="#83B6B2" p-id="27359"></path><path d="M507.8 352.4h71.3v223.1c0 27.7-22.5 50.2-50.2 50.2h-21.1M955.8 504.3c-84.2 0-152.4-68.2-152.4-152.4H938l17.8 152.4z" fill="#4E9691" p-id="27360"></path><path d="M934.8 240.4l0.7 0.7-0.7 610.2-854.6-0.7 0.7-610.2h853.9m0-20.4H80.9c-11.6 0-21.1 9.4-21.1 21.1v609.5c0 11.6 9.4 21.1 21.1 21.1h853.9c11.6 0 21.1-9.4 21.1-21.1V241.1c-0.1-11.6-9.5-21.1-21.1-21.1z" fill="" p-id="27361"></path><path d="M497.7 220h20.4v651.6h-20.4z" fill="" p-id="27362"></path><path d="M64.8 341.7h890.5v20.4H64.8z" fill="" p-id="27363"></path><path d="M316.5 370.7h-44.4c-0.4 0-0.7-0.4-0.7-0.7V247.6c0-0.4 0.4-0.7 0.7-0.7h44.4c0.4 0 0.7 0.4 0.7 0.7v122.2c0.1 0.5-0.3 0.9-0.7 0.9zM748.5 381.1h-52.3c-0.5 0-0.9-0.4-0.9-0.9V237.3c0-0.5 0.4-0.9 0.9-0.9h52.3c0.5 0 0.9 0.4 0.9 0.9v142.8c-0.1 0.6-0.5 1-0.9 1z" fill="#4E9691" p-id="27364"></path><path d="M304 246.2l0.7 0.7-0.7 124.4-20.1-0.7 0.7-124.4H304m0-20.3h-19.4c-11.6 0-21.1 9.4-21.1 21.1v123.7c0 11.6 9.4 21.1 21.1 21.1H304c11.6 0 21.1-9.4 21.1-21.1V246.9c0-11.6-9.5-21-21.1-21zM732.2 246.2l0.7 0.7-0.7 124.4-20.7-0.7 0.7-124.4h20m0-20.3h-20c-11.6 0-21.1 9.4-21.1 21.1v123.7c0 11.6 9.4 21.1 21.1 21.1h20c11.6 0 21.1-9.4 21.1-21.1V246.9c0-11.6-9.4-21-21.1-21z" fill="" p-id="27365"></path><path d="M598.5 289.1m-35.7 0a35.7 35.7 0 1 0 71.4 0 35.7 35.7 0 1 0-71.4 0Z" fill="#4E9691" p-id="27366"></path><path d="M598.5 335c-25.3 0-45.9-20.6-45.9-45.9s20.6-45.9 45.9-45.9 45.9 20.6 45.9 45.9c-0.1 25.3-20.6 45.9-45.9 45.9z m0-71.4c-14.1 0-25.5 11.4-25.5 25.5s11.4 25.5 25.5 25.5 25.5-11.4 25.5-25.5c0-14-11.5-25.5-25.5-25.5z" fill="" p-id="27367"></path><path d="M171.8 464.4v-50.2c0-11.6-9.4-21.1-21.1-21.1h-19c-11.6 0-21.1 9.4-21.1 21.1v90.9" fill="#4E9691" p-id="27368"></path><path d="M64.8 514.5v-20.4c78.4 0 142.2-63.8 142.2-142.2h20.4c0 89.6-73 162.6-162.6 162.6zM955.8 514.5c-89.7 0-162.6-72.9-162.6-162.6h20.4c0 78.4 63.8 142.2 142.2 142.2v20.4zM528.9 635.9h-21.1v-20.4h21.1c22.1 0 40-18 40-40V362.6h-61.1v-20.4h81.5v233.3c0 33.3-27.1 60.4-60.4 60.4zM670.8 299.2h-36.6c-5.6 0-10.2-4.6-10.2-10.2s4.6-10.2 10.2-10.2h36.6c5.6 0 10.2 4.6 10.2 10.2s-4.6 10.2-10.2 10.2zM562.8 299.2h-34.6c-5.6 0-10.2-4.6-10.2-10.2s4.6-10.2 10.2-10.2h34.6c5.6 0 10.2 4.6 10.2 10.2s-4.6 10.2-10.2 10.2z" fill="" p-id="27369"></path><path d="M120.9 505.1h-20.4v-90.9c0-17.2 14-31.3 31.2-31.3h19c17.2 0 31.3 14 31.3 31.3v50.2h-20.4v-50.2c0-6-4.9-10.9-10.9-10.9h-19c-6 0-10.9 4.9-10.9 10.9l0.1 90.9z" fill="" p-id="27370"></path><path d="M100.6 484.8H121v20.4h-20.4zM120.9 794.7h-20.4v-36.2h20.4v36.2z m0-72.4h-20.4v-36.2h20.4v36.2z m0-72.4h-20.4v-36.2h20.4v36.2z m0-72.4h-20.4v-36.2h20.4v36.2zM100.6 830.9H121v20.4h-20.4zM894.7 484.8h20.4v20.4h-20.4zM915.1 794.7h-20.4v-36.2h20.4v36.2z m0-72.4h-20.4v-36.2h20.4v36.2z m0-72.4h-20.4v-36.2h20.4v36.2z m0-72.4h-20.4v-36.2h20.4v36.2zM894.7 830.9h20.4v20.4h-20.4zM571.605 276.666l14.425-14.425 39.385 39.385-14.424 14.425z" fill="" p-id="27371"></path><path d="M571.514 301.576l39.385-39.385 14.425 14.425L585.938 316z" fill="" p-id="27372"></path></svg>