<?xml version="1.0" standalone="no"?><!DOCTYPE svg PUBLIC "-//W3C//DTD SVG 1.1//EN" "http://www.w3.org/Graphics/SVG/1.1/DTD/svg11.dtd"><svg t="1545559550941" class="icon" style="" viewBox="0 0 1024 1024" version="1.1" xmlns="http://www.w3.org/2000/svg" p-id="29174" xmlns:xlink="http://www.w3.org/1999/xlink" width="200" height="200"><defs><style type="text/css"></style></defs><path d="M948 584.5c0 107.4-194.6 194.4-434.7 194.4s-434.7-87-434.7-194.4" fill="#54B0E6" p-id="29175"></path><path d="M80.3 593.2c0-107.4 194.6-194.4 434.7-194.4s434.7 87 434.7 194.4" fill="#54B0E6" p-id="29176"></path><path d="M795.6 424.5c10.3 3.8 20.2 7.9 29.8 12.2 86.4 38.6 134 91.1 134 147.8 0 56.7-47.6 109.1-134 147.8-83.5 37.4-194.3 57.9-312 57.9s-228.5-20.6-312-57.9c-86.4-38.6-134-91.1-134-147.8 0-56.6 47.6-109.1 134-147.8 6.7-3 13.6-5.9 20.6-8.7m-11.5 29.3c-77.8 34.8-120.6 79.9-120.6 127.1s42.8 92.4 120.6 127.1c80.7 36.1 188.2 56 302.8 56s222.1-19.9 302.8-56c77.8-34.8 120.6-79.9 120.6-127.1S893.9 492 816.1 457.3c-15.7-7-0.6-14-18.1-19.8" fill="#2D415C" p-id="29177"></path><path d="M810.2 536.3c0.2-0.7 0.3-1.5 0.2-2.3l-26.5-281.9c-4.2-44.2-48.5-78.3-101.9-78.3H357.7c-60.8 0-111.3 38.8-116 89.2l-25.6 271c-0.1 0.8 0 1.6 0.2 2.3-0.1 1-0.3 2.1-0.3 3.1 0 50 133.1 90.6 297.2 90.6s297.2-40.6 297.2-90.6c0.1-1-0.1-2-0.2-3.1z" fill="#43D8D6" p-id="29178"></path><path d="M804.7 527.7c0 50.3-130.4 91.1-291.4 91.1S221.9 578 221.9 527.7" fill="#43D8D6" p-id="29179"></path><path d="M513.3 630.2c-146.7 0-302.7-35.9-302.7-102.4h22.6c0 37.8 115 79.8 280.1 79.8 165 0 280.1-42.1 280.1-79.8H816c0 66.5-156 102.4-302.7 102.4z" fill="#2D415C" p-id="29180"></path><path d="M793.8 417.4c-28.1 45.5-137.3 79.7-280.5 79.7-141.1 0-249.1-33.2-279.3-77.8-0.8-1.2-2.1-1.9-3.5-1.9-2.3 0-4.2 1.9-4.2 4.2l-10.2 115.3c0 55.3 133.1 100.1 297.2 100.1s297.2-44.8 297.2-100.1l-10.7-114.2c-0.3-2.7-1.6-5.3-4.3-5.3h-1.7z" fill="#FDD65D" p-id="29181"></path><path d="M821.8 536.9l-0.1-1c0.1-1 0.1-2 0-3L795.2 251c-4.7-50.5-53.4-88.5-113.1-88.5H357.7c-66.1 0-122.1 43.7-127.3 99.4l-14.6 154.7c-0.5 1.4-0.8 2.9-0.8 4.4l-6.4 72.5-3.7 39.5c-0.1 0.9-0.1 1.8 0 2.7V539.5c0 9.7 3.4 18.8 9.8 27.2 36.8 53.3 171.2 81.7 298.7 81.7s261.9-28.4 298.7-81.7c6.3-8.4 9.8-17.5 9.8-27.2v-0.9c-0.1-0.6-0.1-1.2-0.1-1.7zM252.9 264c4.2-44.3 50.2-78.9 104.8-78.9h324.4c47.2 0 87 29.9 90.6 68l14.4 153.5-3 4.8c-22.1 35.8-116.3 74.3-270.9 74.3-151.5 0-246.1-37.7-269.9-72.8-1.1-1.7-2.5-3-4.1-4.1L252.9 264z m534.3 296.7c-33.9 30.5-137.1 58-273.9 58-136.9 0-240-27.6-273.9-58-7.3-7.3-11.4-14.8-11.9-22.2v-0.4l0.1-0.6c0.1-0.8 0.1-1.6 0-2.4l3.5-39.6 5.3-56.2c44 42.4 149 69 276.9 69 126.5 0 232.7-27.1 276.7-68.9l9 95.8c-0.1 0.8-0.1 1.5 0 2.3l0.1 0.5c0 0.1 0 0.3 0.1 0.4-0.6 7.5-4.7 15-12 22.3z" fill="#2D415C" p-id="29182"></path><path d="M473.6 304.1c-24.7 0-43.7-7.2-56.6-21.4-22.3-24.7-16.5-60.7-16.2-62.3 1-6.2 6.9-10.3 13-9.3s10.3 6.9 9.3 13c-0.1 0.6-4.1 27.1 10.8 43.4 9.6 10.5 25.6 15.1 47.6 13.6 79.3-5.4 160.6-54.7 161.4-55.2 5.3-3.3 12.3-1.6 15.5 3.7 3.3 5.3 1.6 12.3-3.7 15.5-3.5 2.2-86.7 52.7-171.7 58.5-3.2 0.4-6.4 0.5-9.4 0.5z" fill="#2D415C" p-id="29183"></path></svg>