<?xml version="1.0" standalone="no"?><!DOCTYPE svg PUBLIC "-//W3C//DTD SVG 1.1//EN" "http://www.w3.org/Graphics/SVG/1.1/DTD/svg11.dtd"><svg t="1545559573237" class="icon" style="" viewBox="0 0 1024 1024" version="1.1" xmlns="http://www.w3.org/2000/svg" p-id="29582" xmlns:xlink="http://www.w3.org/1999/xlink" width="200" height="200"><defs><style type="text/css"></style></defs><path d="M580.37333333 189.11999999m-43.62666666 0a43.62666667 43.62666667 0 1 0 87.25333333 0 43.62666667 43.62666667 0 1 0-87.25333333 0Z" fill="#B7B7B7" p-id="29583"></path><path d="M990.18666667 665.70666665c-0.10666667 14.18666667-0.10666667 26.88-0.10666667 39.25333334 0 36.58666667-29.65333333 66.24-66.24 66.24H170.66666667v-105.6c0-22.18666667-1.49333333-45.54666667-1.49333334-68.48 0-225.6 183.04-408.53333333 409.17333334-409.38666667h1.49333333c226.77333333 0 410.66666667 183.25333333 410.66666667 409.38666667 0 22.93333333 1.28 46.4-0.32 68.58666666z" fill="#EA2D2D" p-id="29584"></path><path d="M783.25333333 599.14666665c0 60.26666667 2.02666667 117.33333333 2.98666667 172.05333334H170.66666667v-105.6c0-22.18666667-1.49333333-45.54666667-1.49333334-68.48 0-225.6 183.04-408.53333333 409.17333334-409.38666667 124.37333333 94.08 204.90666667 243.30666667 204.90666666 411.41333333z" fill="#FF3F36" p-id="29585"></path><path d="M784 675.94666665l2.24 95.25333334H86.93333333c-29.54666667 0-53.54666667-21.33333333-53.54666666-47.57333334s24-47.57333333 53.54666666-47.57333333H784z" fill="#C0392B" p-id="29586"></path><path d="M392.53333333 608.63999999l-38.18666666 0.53333333-0.53333334-192.74666667 42.66666667-0.10666666 0.32 116.37333333 88.85333333-116.48h48l-0.64 180.8-42.66666666-0.10666667 0.42666666-117.12z" fill="#FFFFFF" p-id="29587"></path></svg>