<?xml version="1.0" standalone="no"?><!DOCTYPE svg PUBLIC "-//W3C//DTD SVG 1.1//EN" "http://www.w3.org/Graphics/SVG/1.1/DTD/svg11.dtd"><svg t="1545419955275" class="icon" style="" viewBox="0 0 1024 1024" version="1.1" xmlns="http://www.w3.org/2000/svg" p-id="3475" xmlns:xlink="http://www.w3.org/1999/xlink" width="200" height="200"><defs><style type="text/css"></style></defs><path d="M584.04905489 881.15466019h-176.32820302c-69.70011955 0-135.33477546-27.39671004-184.93343381-76.99536842-49.59865839-49.59865839-76.99536843-115.23331429-76.99537023-184.93343385v-176.32820301c0-69.70011955 27.39671004-135.33477546 76.99537023-184.93343383 49.59865839-49.59865839 115.23331429-76.99536843 184.93343381-76.99537023h176.32820302c69.67753386 0 135.33477546 27.39671004 184.93343385 76.99537023 49.59865839 49.59865839 76.99536843 115.23331429 76.99536844 184.93343383v176.32820301c0 69.70011955-27.39671004 135.33477546-76.99536844 184.93343385a259.73797047 259.73797047 0 0 1-184.93343385 76.99536842z m-176.35078871-648.30597273a207.94847669 207.94847669 0 0 0-148.29908773 61.74987971c-39.70603133 39.86413132-61.7498797 92.53447494-61.74987973 148.29908774v176.32820301c0 55.92271455 21.88574661 108.59305639 61.74987973 148.29908772a208.4001945 208.4001945 0 0 0 148.29908773 61.74987793h176.328203a207.85813387 207.85813387 0 0 0 148.29908774-61.74987793 208.49053911 208.49053911 0 0 0 61.74987794-148.29908772v-176.32820301a207.94847669 207.94847669 0 0 0-61.74987794-148.29908774 208.49053911 208.49053911 0 0 0-148.29908774-61.74987971h-176.328203z" p-id="3476"></path><path d="M168.37795861 534.84489602h29.54237041v52.69292933h-29.54237041zM813.22828726 99.52405812a63.98588471 63.98588471 0 0 0-66.10895942 0.65499275l-218.76712861 132.75998123h56.03564313c13.12241404 0 26.06414062 1.30998194 38.75742257 3.7040887l150.26406242-91.1793198a13.23534436 13.23534436 0 0 1 14.18395139-0.15810177 12.64811054 12.64811054 0 0 1 6.77577391 11.36071252l-3.9751208 245.17005844c2.66513708 13.41603006 4.04287795 27.19343684 4.04287793 41.17411327v144.54982758h44.60717346l6.93387394-430.23900831v-0.49688919a65.58948448 65.58948448 0 0 0-32.74956992-57.30045542z" p-id="3477"></path><path d="M198.91410924 442.98799773a210.04896741 210.04896741 0 0 1 2.59737995-31.41700047l-4.13322075-254.79165515c0-6.59508647 4.17839401-9.87004313 6.61767216-11.36071431a13.55154613 13.55154613 0 0 1 14.2065371 0l152.11610677 91.1793216a210.99757444 210.99757444 0 0 1 38.6444922-3.6589173h56.91649476l-221.56778173-132.94066869a63.80519724 63.80519724 0 0 0-65.95085764-0.33878924 65.49913986 65.49913986 0 0 0-32.56888423 57.09718222l6.93387571 430.75848324h46.1881857v-144.5272419zM795.40800429 535.04816921h27.96135638v52.48965614H795.40800429z" p-id="3478"></path><path d="M507.16661503 632.70964513c-12.42224988 0-22.58591076-12.06087668-22.58591077-26.78688871v-81.91909802c0-14.74859951 10.16365915-26.8094762 22.58591077-26.8094744s22.58591076 12.06087668 22.58591079 26.8094744v81.91909802c0 14.88411555-10.16365915 26.78689047-22.58591079 26.78688871z" p-id="3479"></path><path d="M504.88543861 655.29555591a160.78909648 160.78909648 0 0 1-59.06215692-11.42846966 28.30014561 28.30014561 0 0 1-15.81013684-36.40848899 27.71291177 27.71291177 0 0 1 35.95676941-15.99082432 104.4372499 104.4372499 0 0 0 81.30927849-1.58101404 27.84842782 27.84842782 0 0 1 36.65693183 14.61308524 28.45824738 28.45824738 0 0 1-14.40981028 37.1086496 160.69875189 160.69875189 0 0 1-64.64087569 13.68706217zM326.47933234 452.02236242c0 24.95743186 15.17773157 45.17182159 33.87886439 45.17182158s33.8788662-20.21438973 33.87886616-45.17182158c0-24.93484437-15.17773157-45.17182159-33.87886616-45.17182157s-33.8788662 20.23697543-33.87886439 45.17182157zM394.23706289 418.14349626a11.2929554 11.2929554 0 1 0 22.58591078 0 11.2929554 11.2929554 0 0 0-22.58591078 0zM597.51025637 452.02236242c0 16.14892607 6.45957045 31.05562731 16.9394331 39.11879751a26.74171728 26.74171728 0 0 0 33.87886619 0c10.47986266-8.06317019 16.93943308-22.96987143 16.93943309-39.11879751 0-16.12634037-6.45957045-31.05562731-16.93943309-39.1187975a26.74171728 26.74171728 0 0 0-33.87886619 0c-10.47986266 8.06317019-16.93943308 22.96987143-16.9394331 39.1187975zM665.26798875 418.14349626a11.27036969 11.27036969 0 0 0 16.93943129 9.77970026 11.2929554 11.2929554 0 1 0-16.93943129-9.77970026zM536.75415867 543.85667498l12.53518021-26.94499227c8.71816116-18.88182029-2.2134193-42.3034095-19.67232911-42.3034095h-44.87820374c-17.4363223 0-28.39049025 23.42158923-19.67232733 42.3034095l12.5351802 26.94499227c13.14499974 28.11945814 45.98491429 28.11945814 59.15249977 0z" p-id="3480"></path><path d="M695.46535013 482.10679525a26.22224236 26.22224236 0 0 0-24.86708721 27.19343688 26.24482806 26.24482806 0 0 0 27.46446716 24.5960551 341.90551129 341.90551129 0 0 1 218.94781607 66.3574058c4.74304034 3.56857445 10.29917519 5.19475989 15.6972065 5.1947581 8.01799875 0 15.85530827-3.72667443 21.09524137-10.52503407a25.86086742 25.86086742 0 0 0-5.39803308-36.25038543 395.09533163 395.09533163 0 0 0-252.93961081-76.56623638zM131.15637868 638.28836569a25.70276567 25.70276567 0 0 0-5.39803309 36.25038545c5.05924386 6.79835966 12.91914085 10.36693232 20.93713957 10.3669341 5.55613487 0 10.95416615-1.78428721 15.69720831-5.01407242a205.14782356 205.14782356 0 0 1 131.47258321-39.81895991c14.38722457 0.63240527 26.8094762-10.36693232 27.46446717-24.5960569a26.01896916 26.01896916 0 0 0-24.84450152-27.19343686 257.77299577 257.77299577 0 0 0-165.32886365 50.00520654zM296.46265663 482.26489701a394.59844064 394.59844064 0 0 0-252.96219653 76.56623636 25.70276567 25.70276567 0 0 0-5.39803307 36.25038542c5.05924386 6.79835966 12.91914085 10.36693232 20.9371396 10.36693234 5.55613487 0 10.95416615-1.78428721 15.85531004-5.01407065a340.70845791 340.70845791 0 0 1 218.94781427-66.35740578 26.06414062 26.06414062 0 0 0 27.46446718-24.5960569 25.97379776 25.97379776 0 0 0-24.84450149-27.21602079zM829.37721329 679.73351107a26.13189774 26.13189774 0 0 0 36.63434613-5.33027418 25.86086742 25.86086742 0 0 0-5.39803308-36.25038725 257.93109754 257.93109754 0 0 0-165.30627797-50.02779045c-14.38722457 0.81309274-25.68017996 12.96431226-24.8445015 27.19343506a26.15448345 26.15448345 0 0 0 27.46446717 24.59605693 204.80903612 204.80903612 0 0 1 131.44999925 39.81895989z" p-id="3481"></path></svg>