<?xml version="1.0" standalone="no"?><!DOCTYPE svg PUBLIC "-//W3C//DTD SVG 1.1//EN" "http://www.w3.org/Graphics/SVG/1.1/DTD/svg11.dtd"><svg t="1545419919702" class="icon" style="" viewBox="0 0 1032 1024" version="1.1" xmlns="http://www.w3.org/2000/svg" p-id="2886" xmlns:xlink="http://www.w3.org/1999/xlink" width="201.5625" height="200"><defs><style type="text/css"></style></defs><path d="M34.7 381.28a35.6 35.6 0 0 0 10.967 1.786c15.624 0 28.168-10.568 34.422-28.966l0.228-0.647a386.925 386.925 0 0 1 15.205-40.066c43.716-92.83 118.357-161.56 221.926-204.477a505.585 505.585 0 0 1 194.175-38.85 567.814 567.814 0 0 1 139.872 18.17c88.363 22.524 161.92 64.833 218.58 125.77 40.865 43.924 68.425 94.027 81.901 148.919 1.216 4.942 4.904 19.995 20.66 26.97a36.113 36.113 0 0 0 14.712 3.27 33.737 33.737 0 0 0 21.345-7.793c11.765-9.37 15.567-22.808 11.252-39.743-21.193-83.783-66.524-155.858-134.95-214.304a513.834 513.834 0 0 0-169.447-96.954C656.076 13.875 590.938 2.623 516.394 0h-0.95c-4.296 0.266-9.39 0.532-15.035 0.817-14.807 0.742-33.205 1.673-51.718 3.593-99.502 10.415-189.405 44.248-267.238 100.565C98.62 164.847 42.056 241.54 13.279 332.774c-7.203 22.941 1.198 41.948 21.421 48.506z m601.97 123.735c-16.156 0-29.461 11.252-33.909 28.662-10.454 40.2-42.138 66.373-80.703 66.677h-0.685c-38.223 0-70.021-25.336-80.855-64.529-5.056-18.19-18.228-29.48-34.384-29.48a35.771 35.771 0 0 0-8.23 0.989 33.357 33.357 0 0 0-21.25 15.091c-5.265 8.553-6.671 19.425-3.972 30.83a153.196 153.196 0 0 0 53.96 84.124 153.69 153.69 0 0 0 94.56 33.035h0.266a152.911 152.911 0 0 0 95.491-33.68 154.888 154.888 0 0 0 53.733-86.292c4.79-21.193-5.702-39.44-25.526-44.363a35.258 35.258 0 0 0-8.496-1.064z" fill="#919191" p-id="2887"></path><path d="M720.32 345.413c-24.5 0.19-44.686 19.407-44.686 42.861a42.081 42.081 0 0 0 12.354 30.031 46.225 46.225 0 0 0 32.654 13.438h0.323c24.538-0.171 44.705-19.368 44.952-42.804a41.815 41.815 0 0 0-12.355-29.821 46.472 46.472 0 0 0-32.844-13.685z m-413.706 0c-24.71 0-44.895 19.16-45.18 42.728s19.501 43.05 44.096 43.716h1.14c24.71 0 44.914-19.178 45.2-42.727s-19.502-43.051-44.097-43.717z" fill="#919191" p-id="2888"></path><path d="M1022.264 420.985a33.471 33.471 0 0 0-24.158-10.036h-0.78c-20.907 0-34.63 15.206-34.934 38.832-0.78 59.967-16.422 115.733-46.548 165.74-59.967 99.616-153.158 164.335-276.989 192.427a202.424 202.424 0 0 0-32.882 10.245 149.832 149.832 0 0 0-32.14 17.961c-17.79 13.191-28.51 32.312-38.737 50.654-3.801 6.861-7.45 13.305-11.404 19.463l-1.558 2.414c-6.045 9.37-11.747 18.227-18.437 26.99l-1.996 2.68c-3.972 5.34-11.404 15.3-16.745 15.3h-0.228c-5.702-0.323-6.52-9.256-6.614-11.043-0.21-3.592-0.229-7.45 0-12.126 0.114-3.669 0.323-7.489 0.532-11.252a234.907 234.907 0 0 0 0.475-25.242c-1.768-34.117-17.62-59.13-47.1-74.374a153.956 153.956 0 0 0-30.715-11.157c-61.316-16.384-113.186-39.325-158.575-70.155-113.775-77.282-170.34-173.058-172.963-292.802-0.437-19.995-15.206-34.516-35.087-34.516h-0.741a34.365 34.365 0 0 0-24.71 10.72A35.182 35.182 0 0 0 0.07 447.67c0.893 19.653 1.9 39.915 5.131 59.929 14.693 88.914 58.409 167.926 129.875 234.793 67.95 63.654 149.167 107.218 248.345 133.372 24.31 6.405 26.496 9.37 25.887 35.22-0.38 16.289-0.798 34.763 2.11 52.649 5.702 34.973 34.916 60.366 69.47 60.366a72.436 72.436 0 0 0 38.3-11.195c14.768-9.218 25.24-21.953 35.543-35.277 15.87-20.528 29.745-43.108 42.594-64.49 10.796-17.962 23.683-28.283 40.542-32.484 4.068-1.026 8.154-1.9 12.393-2.946l0.55-0.133 7.604-1.9c98.037-23.531 180.832-68.311 246.12-133.05 82.3-81.729 125.276-180.014 127.727-292.345 0.324-11.956-3.098-22.067-9.997-29.195z" fill="#919191" p-id="2889"></path></svg>