<?xml version="1.0" standalone="no"?><!DOCTYPE svg PUBLIC "-//W3C//DTD SVG 1.1//EN" "http://www.w3.org/Graphics/SVG/1.1/DTD/svg11.dtd"><svg t="1545421178439" class="icon" style="" viewBox="0 0 1024 1024" version="1.1" xmlns="http://www.w3.org/2000/svg" p-id="3178" xmlns:xlink="http://www.w3.org/1999/xlink" width="200" height="200"><defs><style type="text/css"></style></defs><path d="M936.754983 498.542953h-57.62145c22.217675-46.602928 33.236197-86.522491 33.236197-124.093844 0-79.839125-24.385253-141.795731-73.155759-190.566237-42.087141-48.770506-106.391956-77.490916-175.031928-77.490916-42.087141 0-113.075322 22.217675-164.013407 75.323338-57.62145-68.639972-137.460575-75.323337-164.013406-75.323338-68.639972 0-130.777209 26.552831-179.547715 73.15576-50.938084 50.938084-73.155759 110.907744-73.15576 192.914447 0 37.751984 11.018522 79.839125 31.068619 124.093843H87.967543c-17.701887 0-33.236197 15.534309-33.236197 33.236197 0 17.701887 15.534309 33.236197 33.236197 33.236197h64.304815c62.137238 99.708591 170.696772 214.951491 323.511025 350.244488 6.683366 4.515788 13.366731 8.850944 22.217675 8.850943s15.534309-2.167578 22.217675-8.850943c150.646675-135.292997 257.038631-250.535897 321.343447-350.244488h95.373435c17.701887 0 33.236197-15.534309 33.236197-33.236197-0.180632-17.882519-15.714941-31.24925-33.416829-31.24925zM152.272358 372.281531c0-64.304816 15.534309-108.559534 53.105663-146.311519 35.403775-35.403775 82.006703-53.105662 130.777209-53.105662 26.552831 0 95.373434 8.850944 132.944788 84.174281 6.683366 11.018522 17.701887 17.701887 28.90104 17.701888 13.366731 0 24.385253-6.683366 28.901041-17.701888 33.236197-68.639972 115.2429-84.174281 132.944788-84.174281 50.938084 0 95.373434 19.869466 124.093843 53.105662 0 0 0 2.167578 2.167578 2.167578 37.751984 37.751984 53.105662 82.006703 53.105663 146.311519 0 35.403775-13.366731 77.490916-39.919563 124.093844h-68.639972L637.629212 323.511025c-6.683366-11.018522-17.701887-17.701887-28.72041-17.701888s-24.385253 6.683366-28.90104 17.701888L442.547186 576.2145l-82.006703-161.845828c-4.515788-11.018522-15.534309-17.701887-26.552831-17.701888s-22.217675 4.515788-28.720409 13.366732l-64.304816 90.857646H189.843711c-24.385253-48.770506-37.571353-91.038278-37.571353-128.609631z m345.7287 471.990122C378.242371 737.879697 289.552302 644.854472 231.930852 565.015347h26.552831c11.018522 0 22.217675-4.515788 26.552831-13.366732l42.087141-59.789028 84.174281 168.529194c4.515788 11.018522 17.701887 17.701887 28.901041 17.701888 11.018522 0 24.385253-6.683366 28.720409-17.701888L608.728171 407.685306l73.155759 139.628153c6.683366 11.018522 17.701887 17.701887 28.720409 17.701888h50.938085c-57.440818 79.839125-146.130887 172.86435-263.541366 279.256306z m0 0" p-id="3179"></path></svg>