<?xml version="1.0" standalone="no"?><!DOCTYPE svg PUBLIC "-//W3C//DTD SVG 1.1//EN" "http://www.w3.org/Graphics/SVG/1.1/DTD/svg11.dtd"><svg t="1545420504130" class="icon" style="" viewBox="0 0 1024 1024" version="1.1" xmlns="http://www.w3.org/2000/svg" p-id="11460" xmlns:xlink="http://www.w3.org/1999/xlink" width="200" height="200"><defs><style type="text/css"></style></defs><path d="M822.12864 184.32l-25.47712 0C797.94176 193.9456 798.72 203.9808 798.72 214.56896L798.72 245.76l23.40864 0C900.87424 245.76 962.56 308.30592 962.56 388.13696l0 473.33376C929.23904 829.05088 882.03264 798.72 822.12864 798.72l-433.9712 0c-72.25344 0-143.27808-57.48736-159.41632-122.88l-14.15168 0c-16.2816 0-31.96928 2.51904-47.0016 6.4512C186.94144 777.66656 284.8768 860.16 388.13696 860.16l433.9712 0c88.02304 0 143.27808 105.12384 143.81056 106.1888C971.28448 976.75264 981.95456 983.04 993.28 983.04c2.37568 0 4.77184-0.28672 7.18848-0.83968C1014.25152 978.88256 1024 966.51264 1024 952.32L1024 388.13696C1024 273.83808 935.3216 184.32 822.12864 184.32z" p-id="11461"></path><path d="M30.72 809.41056c-2.99008 0-5.98016-0.43008-8.94976-1.3312C8.86784 804.1472 0 792.24832 0 778.71104L0 214.56896C0 107.54048 96.256 20.48 214.56896 20.48l433.9712 0C761.07776 20.48 839.68 100.27008 839.68 214.56896L839.68 474.9312C839.68 581.40672 766.60736 696.32 648.54016 696.32l-433.9712 0c-90.37824 0-157.63456 98.48832-158.28992 99.47136C50.44224 804.4544 40.7552 809.41056 30.72 809.41056zM214.56896 81.92C140.92288 81.92 61.44 132.64896 61.44 214.56896l0 484.70016C98.07872 667.21792 150.85568 634.88 214.56896 634.88l433.9712 0C728.65792 634.88 778.24 551.85408 778.24 474.9312L778.24 214.56896C778.24 135.22944 726.1184 81.92 648.54016 81.92L214.56896 81.92z" p-id="11462"></path><path d="M593.92 307.2 245.76 307.2c-16.95744 0-30.72-13.76256-30.72-30.72S228.80256 245.76 245.76 245.76l348.16 0c16.95744 0 30.72 13.76256 30.72 30.72S610.87744 307.2 593.92 307.2z" p-id="11463"></path><path d="M409.6 491.52l-163.84 0c-16.95744 0-30.72-13.76256-30.72-30.72S228.80256 430.08 245.76 430.08l163.84 0c16.95744 0 30.72 13.76256 30.72 30.72S426.55744 491.52 409.6 491.52z" p-id="11464"></path></svg>