<?xml version="1.0" standalone="no"?><!DOCTYPE svg PUBLIC "-//W3C//DTD SVG 1.1//EN" "http://www.w3.org/Graphics/SVG/1.1/DTD/svg11.dtd"><svg t="1545420521001" class="icon" style="" viewBox="0 0 1024 1024" version="1.1" xmlns="http://www.w3.org/2000/svg" p-id="11697" xmlns:xlink="http://www.w3.org/1999/xlink" width="200" height="200"><defs><style type="text/css"></style></defs><path d="M774.969 960.425H249.087A153.563 153.563 0 0 1 95.694 807.088V215.394A153.563 153.563 0 0 1 249.088 62h525.88a153.563 153.563 0 0 1 153.45 153.394v591.693a153.675 153.675 0 0 1-153.45 153.338zM249.087 105.819a109.688 109.688 0 0 0-109.575 109.575v591.694A109.688 109.688 0 0 0 249.087 916.55H774.97a109.688 109.688 0 0 0 109.575-109.462V215.394a109.688 109.688 0 0 0-109.575-109.575H249.087z" p-id="11698"></path><path d="M709.212 500.244H577.7a87.75 87.75 0 0 1-87.581-87.694V281.094a87.75 87.75 0 0 1 87.581-87.638h131.512a87.75 87.75 0 0 1 87.694 87.638V412.55c-0.056 48.375-39.375 87.694-87.693 87.694zM577.7 237.275a43.875 43.875 0 0 0-43.763 43.819V412.55c0 24.188 19.688 43.875 43.763 43.875h131.512a43.875 43.875 0 0 0 43.876-43.875V281.094a43.875 43.875 0 0 0-43.875-43.819H577.7z m-197.156 0H249.088a21.938 21.938 0 1 1 0-43.819h131.456a21.881 21.881 0 0 1 0 43.819z m0 131.513H249.088a21.938 21.938 0 1 1 0-43.82h131.456a21.881 21.881 0 0 1 0 43.82z m0 131.456H249.088a21.938 21.938 0 1 1 0-43.819h131.456a21.881 21.881 0 0 1 0 43.819z m394.425 131.512H249.087a21.938 21.938 0 1 1 0-43.875H774.97a21.938 21.938 0 1 1 0 43.875zM577.7 763.156H249.087a21.938 21.938 0 1 1 0-43.818H577.7a21.938 21.938 0 1 1 0 43.818z" p-id="11699"></path></svg>