<?xml version="1.0" standalone="no"?><!DOCTYPE svg PUBLIC "-//W3C//DTD SVG 1.1//EN" "http://www.w3.org/Graphics/SVG/1.1/DTD/svg11.dtd"><svg t="1545421035578" class="icon" style="" viewBox="0 0 1025 1024" version="1.1" xmlns="http://www.w3.org/2000/svg" p-id="1224" xmlns:xlink="http://www.w3.org/1999/xlink" width="200.1953125" height="200"><defs><style type="text/css"></style></defs><path d="M768.220533 863.068171l-347.940797 0c-16.95495 0-30.700659-13.745708-30.700659-30.700659s13.745708-30.700659 30.700659-30.700659l341.009612 0c26.502855-13.462239 40.4123-32.77807 42.463104-58.887957 1.772451-22.560891-5.896573-42.261503-6.474769-43.707504-5.109613-11.587452-2.419212-24.767245 6.543334-33.728767 40.344759-40.344759 25.769109-73.683627 4.195757-109.993296-3.342278-5.624361-6.22814-10.482228-8.388443-15.236737-5.295864-11.649877-2.80911-25.363861 6.240421-34.412368 15.182499-15.182499 32.744299-37.827305 30.194098-59.486619-1.944375-16.508767-14.659564-29.170742-22.408411-35.466424l-176.421335 0c-16.95495 0-30.700659-13.745708-30.700659-30.700659l0-203.422564c-18.232098-15.416847-35.159418-22.411481-50.417645-20.807883-15.235714 1.599504-27.126079 11.569032-33.497489 18.234144l0 97.519619c0 112.585455-112.830037 179.321523-117.632643 182.107097-4.679804 2.713938-9.994088 4.143566-15.403544 4.143566l-49.121054 0 0 374.548035c0 16.95495-13.745708 30.700659-30.700659 30.700659l-149.409872 0c-16.95495 0-30.700659-13.745708-30.700659-30.700659l0-405.248693c0-16.95495 13.745708-30.700659 30.700659-30.700659l220.216847 0c20.094604-13.702727 80.649607-60.357495 80.649607-124.849345l0-108.47566c0-6.061333 1.793942-11.98656 5.155664-17.029655 3.124304-4.684921 31.99725-45.926139 83.333868-51.315127 36.844884-3.869306 73.51068 11.737885 108.979151 46.382555 5.91397 5.776841 9.249085 13.695564 9.249085 21.962228l0 186.250662 155.550003 0c5.498488 0 10.89464 1.476702 15.627659 4.275578 5.215019 3.084393 51.144227 31.660566 57.829807 84.583384 3.950151 31.275784-6.705024 62.584316-31.706617 93.317722 9.198941 15.945922 21.069862 39.086032 24.441818 66.411665 4.282742 34.704024-5.651991 67.11471-29.550407 96.574038 3.218452 12.635368 6.191299 30.311784 5.046165 50.095288-1.341619 23.14625-7.999568 44.217135-19.791691 62.62525-14.422146 22.51484-36.154119 40.398997-64.593162 53.154097C776.833091 862.152268 772.551373 863.068171 768.220533 863.068171zM191.048152 801.666854l88.008555 0 0-343.847376-88.008555 0L191.048152 801.666854z" p-id="1225"></path></svg>