<?xml version="1.0" standalone="no"?><!DOCTYPE svg PUBLIC "-//W3C//DTD SVG 1.1//EN" "http://www.w3.org/Graphics/SVG/1.1/DTD/svg11.dtd"><svg t="1545420316138" class="icon" style="" viewBox="0 0 1024 1024" version="1.1" xmlns="http://www.w3.org/2000/svg" p-id="8456" xmlns:xlink="http://www.w3.org/1999/xlink" width="200" height="200"><defs><style type="text/css"></style></defs><path d="M431.62288 737.197972c-3.858888-12.363585 1.821485-36.409235 2.339278-38.5899 0.51677-2.183735-28.065196-57.300031-28.065196-57.300031s36.230156-41.379433 40.929178-58.46967c4.697999-17.09126-6.723122-20.674878-17.541515-4.677533-10.81737 15.994276-26.560936 43.680848-36.250622 43.267433-9.689686-0.413416-154.3596-3.508917-154.3596-3.508917l-44.436048-56.130392-17.541515-29.234835c0 0 17.994839-18.863626 17.541515-31.574113-0.454348-12.710486-7.016811-19.87977-7.016811-19.87977s-36.767392 24.197098-40.928155 30.40345c-4.160763 6.206352-16.214287 0.508583-18.710131 0s-17.907858-2.863211-21.049409-1.169639c-3.140527 1.694595-15.201214 23.387663-15.201214 23.387663s-41.292452-3.098571-45.605687 0c-4.314259 3.099594 15.201214 45.605687 15.201214 45.605687s47.857984-4.177136 57.300031 25.726941c0 0 22.850427 47.399543 25.119097 51.680033-0.190335-0.528026-0.379647-0.995677-0.561795-1.39579 0.778736 1.703805 0.910743 2.052752 0.561795 1.39579 2.886747 8.006348 5.991458 29.865191-8.748245 41.871643l79.519078 171.899068 23.387663-10.523681-25.726941-102.906741c0 0 5.198395-5.847172 9.355065-5.847172s135.64947 1.169639 135.64947 1.169639 36.118616 67.483974 98.228185 53.791114c12.007475-2.331092 12.862959 24.557302 12.862959 24.557302l10.524704 39.759539 31.573089-2.338255L487.754295 773.448594C487.754295 773.448594 444.779527 774.869966 431.62288 737.197972zM106.532827 851.798033l21.049409 11.694343 30.40345-53.791114c-4.66116-5.700839-21.048385-43.267433-21.048385-43.267433L106.532827 851.798033zM334.564333 772.279978l-33.912367 78.348416 23.387663 15.202237 38.5899-61.977563C348.348268 798.357913 334.564333 772.279978 334.564333 772.279978zM249.199107 543.079856l14.032598 30.40345 281.82262-119.277594-14.032598-26.89658L249.199107 543.079856zM843.247798 545.418111c0-25.347295-2.338255-81.381495-2.338255-85.36625 0-3.984754 0.178055-9.410324 3.507894-12.862959 3.330862-3.452635 9.782807-12.70537 11.694343 1.169639 1.911536 6.534833 13.196557 16.742313 18.710131 24.557302 5.514597 7.814989 45.605687 58.470693 45.605687 58.470693l56.131415-31.574113c0 0-130.36921-180.911326-145.004535-199.965288-14.634302-19.054985-30.150694-13.514805-50.28322-2.339278-20.133549 11.175527-205.812459 106.414635-205.812459 106.414635l30.40345 53.792137 125.124765-57.300031c0 0 15.803941-8.191566 16.370853 11.694343 0.566912 19.885909 0 116.154463 0 125.124765 0 8.969279-2.248204 23.613814-9.355065 35.080983-7.106862 11.468193-139.157363 264.282129-139.157363 264.282129l46.77635 35.080983c0 0 177.381943-260.855076 184.763051-272.467555C837.765947 587.598792 843.247798 570.763358 843.247798 545.418111zM865.465822 624.936165l-54.960753 78.348416L926.27477 875.185696l52.622498-39.759539L865.465822 624.936165zM804.657898 254.240425c35.521005 0 64.316841-28.795836 64.316841-64.316841s-28.795836-64.316841-64.316841-64.316841-64.316841 28.795836-64.316841 64.316841S769.136893 254.240425 804.657898 254.240425z" p-id="8457"></path></svg>