<?xml version="1.0" standalone="no"?><!DOCTYPE svg PUBLIC "-//W3C//DTD SVG 1.1//EN" "http://www.w3.org/Graphics/SVG/1.1/DTD/svg11.dtd"><svg t="1545419948477" class="icon" style="" viewBox="0 0 1024 1024" version="1.1" xmlns="http://www.w3.org/2000/svg" p-id="3360" xmlns:xlink="http://www.w3.org/1999/xlink" width="200" height="200"><defs><style type="text/css"></style></defs><path d="M531.870739 104.973166c7.071818 11.738742 4.785978 25.334729-5.071708 30.335005-9.857686 5.000276-23.572728-0.452406-30.644545-12.191148-7.071818-11.738742-4.762167-25.334729 5.071708-30.335005 9.857686-5.000276 23.572728 0.476217 30.644545 12.191148" fill="#000000" p-id="3361"></path><path d="M416.126266 919.232322c-4.8336-18.50102-14.096015-37.454445-30.025464-64.003527-1.809624-3.000165-14.881772-24.382296-18.358155-30.287383-3.071598-5.214573-6.26225-10.238659-11.453012-18.143857l-2.500137-3.762112c-15.072259-22.882213-21.620239-34.239982-27.120543-49.407485-11.072039-30.525492-10.333903-60.812875 7.786144-81.433059 12.834041-14.619853 27.35865-24.001323 43.192856-28.406327 28.072976-7.833765 57.122195 0.142865 85.123739 17.739073 7.048007 4.405005 13.476933 9.11955 19.191533 13.857906 3.476382 2.881111 6.000331 5.166951 7.428981 6.571791a11.905418 11.905418 0 0 1-16.667585 17.000937 159.556412 159.556412 0 0 0-22.620294-17.262856c-22.858402-14.381745-45.716805-20.643995-66.07507-15.000827-11.262525 3.166841-21.834537 10.000551-31.668412 21.191644-11.191093 12.762608-11.738742 34.382847-3.309706 57.622223 4.666924 12.857851 10.572011 23.096511 24.620405 44.407209l2.500137 3.809734c5.40506 8.190928 8.810009 13.524555 12.095905 19.167723 3.333517 5.666979 16.358044 26.906245 18.2391 30.073085 17.024748 28.358706 27.096731 49.0027 32.644656 70.241966 2.381084 9.143361 3.738301 17.977181 3.952599 26.572893a11.905418 11.905418 0 0 1-13.619798 12.095905c-10.524389-1.523893-40.597475-1.381028-60.574767 1.452461-12.143526 1.738191-20.953536 4.381194-24.763269 7.190872-1.000055 0.761947-0.928623-0.57146 1.71438 2.571571 9.11955 10.905363 50.288485 16.715207 81.790222 13.97696 29.525437-2.595381 54.002976-9.000496 104.315272-25.406162l8.619522-2.809678 23.715593-7.619468 4.809789-1.547704c63.693986-20.358265 94.695694-31.596979 129.173785-48.455051 54.598247-26.691947 97.243454-60.908118 124.292563-102.791379 36.692498-56.812655 47.645483-131.697734 37.502067-218.678717-8.905253-76.408972-31.835088-134.864575-73.599294-172.152344-11.524445-10.310092-26.644325-12.619743-29.120652-7.262305-1.857245 4.047842 1.404839 10.881552 11.143471 22.286943 67.765639 79.051975 93.624207 190.605742 64.717852 287.277735-29.954032 100.124565-119.435153 178.89081-220.440719 191.677229a11.905418 11.905418 0 0 1-12.381635-16.619963c19.191534-43.383343 25.429973-89.338256 16.405666-130.578624-9.786254-44.669128-30.954087-77.551893-83.647466-140.4125l-5.238384-6.26225c-44.335777-52.860056-63.455878-79.290084-79.361516-115.482554-12.191148-27.739624-16.905694-56.026897-12.429257-82.695033 7.881387-46.835914 30.19214-64.622609 85.195171-85.242793 10.595822-3.952599 14.857962-5.619357 19.834427-7.714711 44.692939-18.881993 79.099597-47.050212 132.364436-103.720001l-65.646474 2.381084a11.905418 11.905418 0 0 1-12.310202-12.453067c1.904867-40.335556-1.833434-62.170093-16.905694-76.623271-7.000386-6.667034-15.167502-10.81012-33.097062-17.691451-29.168274-11.191093-40.835584-17.810505-50.859945-32.811332-3.381139-5.047897-5.643168-9.833875-9.286226-18.691506-6.667034-16.119936-9.833875-20.78686-15.119881-22.477429-3.190652-1.000055-7.548035-0.642893-14.334123 1.214353-49.526539 13.500744-89.647797 57.479358-98.576861 108.029762-2.333462 13.167392-2.952544 26.430028-2.785868 48.050267l0.071432 7.524224c0.57146 50.478972-2.047732 72.456374-16.667585 97.838725-11.310147 19.572507-24.167998 31.192195-55.360193 54.169652-11.214904 8.26236-16.096125 11.95304-21.810726 16.667585a216.678607 216.678607 0 0 0-72.146833 115.434933c-14.453177 60.622388-4.26214 122.48294 27.953922 216.869093l7.97663 23.120322C258.093748 810.416802 269.451517 857.324148 266.832325 916.065481a11.905418 11.905418 0 0 1-12.167337 11.381579 501.813367 501.813367 0 0 0-88.766797 5.857466c-6.476547 1.023866-9.381469 2.047732-10.524389 3.404949-1.381028 1.595326-0.166676 6.857521 3.571625 9.738632 4.452626 3.476382 10.405335 5.000276 22.858403 6.309872 16.834261 1.762002 34.335225 2.8573 56.384059 3.690679 7.738522 0.309541 13.929339 0.500028 27.9063 0.928623 24.739459 0.714325 40.097448 1.285785 53.812489 2.119164 0.071433-6.83371 3.452571-13.167392 10.024362-18.072424 7.857576-5.833655 19.834426-9.40528 35.621011-11.66731a340.875927 340.875927 0 0 1 52.336217-2.523948 108.958385 108.958385 0 0 0-1.762002-8.024252zM265.403675 981.140495c-14.048393-0.404784-20.286832-0.619082-28.096787-0.904811a856.23766 856.23766 0 0 1-57.979385-3.809734c-16.715207-1.785813-25.882379-4.119275-35.001929-11.191093-13.524555-10.500579-18.2391-30.906465-7.071818-44.002425 6.024141-7.071818 13.072149-9.595767 24.953756-11.476823a525.386095 525.386095 0 0 1 81.147329-6.28606c0.476217-49.83608-11.048228-94.814749-41.264179-182.29576l-7.97663-23.215565c-33.573279-98.338752-44.383398-163.866173-28.596814-230.084108a240.489443 240.489443 0 0 1 80.123463-128.221351c6.190817-5.11933 11.310147-9.000496 22.810781-17.477154 28.620625-21.07259 39.835529-31.216006 48.907457-46.954968 11.762553-20.358265 14.048393-39.454555 13.524554-85.647577l-0.095243-7.619468c-0.190487-22.953646 0.476217-37.430634 3.14303-52.383839C344.45565 69.971237 391.291564 18.658885 449.675734 2.753247c10.857741-2.976354 19.215345-3.69068 27.858678-0.952433 14.52461 4.643113 20.572562 13.500744 29.192085 34.430468 3.762112 9.11955 5.547925 12.857851 7.786143 16.21518 6.309872 9.429091 15.000827 14.357934 37.621121 23.025078 22.78697 8.762388 32.954197 13.905528 42.978559 23.501295 19.739183 18.881993 25.429973 42.859505 24.668026 82.02833l73.646915-2.714436c13.429311-0.428595 20.882103 15.548476 11.714932 25.477595-63.741608 69.408587-102.077054 102.52946-154.746623 124.76878-5.357438 2.262029-9.833875 3.97641-19.334399 7.548035-49.193187 18.429587-65.384555 31.358871-71.432508 67.384666-3.666869 21.715482 0.28573 45.431075 10.714876 69.170478 14.715097 33.430414 32.930386 58.646089 75.813702 109.767954l5.238384 6.26225c55.098274 65.741718 77.790001 100.981755 88.671553 150.627348 8.738577 39.978394 4.857411 83.337926-9.857686 125.05451 83.052196-18.881993 154.937109-86.838119 180.200406-171.247532 26.549082-88.742986 2.619192-191.939148-60.003306-265.014604-15.691341-18.334344-22.048834-31.716033-14.667475-47.716915 11.548255-24.906134 45.00248-19.810615 66.598908-0.523838 46.907347 41.907071 71.861103 105.529625 81.409248 187.15317 10.714876 91.981259-1.023866 172.199965-41.168935 234.346247-29.668302 45.954913-75.623215 82.814087-133.816898 111.268037-35.859119 17.524775-67.622774 29.04922-132.388248 49.764647l-4.809789 1.523893-23.620349 7.619468-8.595712 2.785867c-52.002866 16.953315-77.742379 23.691782-109.625089 26.47765-34.787631 3.023976-75.647026-1.833434-95.624317-16.429477-18.50102-1.500083-34.525712-2.142975-68.694261-3.190652z" fill="#000000" p-id="3362"></path><path d="M318.478028 299.055289a11.905418 11.905418 0 1 1 18.596263-14.857961c1.547704 1.904867 4.714546 5.524114 9.381469 10.238659 7.857576 7.952819 16.929504 15.905638 27.072921 23.334619 27.382461 20.048724 57.122195 32.382737 88.195336 33.382792a11.905418 11.905418 0 1 1-0.785758 23.810836c-36.430579-1.190542-70.551507-15.334178-101.481782-37.978283a249.608993 249.608993 0 0 1-29.930221-25.810946 167.437798 167.437798 0 0 1-11.048228-12.119716z" fill="#000000" p-id="3363"></path></svg>