<?xml version="1.0" standalone="no"?><!DOCTYPE svg PUBLIC "-//W3C//DTD SVG 1.1//EN" "http://www.w3.org/Graphics/SVG/1.1/DTD/svg11.dtd"><svg t="1545419973920" class="icon" style="" viewBox="0 0 1024 1024" version="1.1" xmlns="http://www.w3.org/2000/svg" p-id="3835" xmlns:xlink="http://www.w3.org/1999/xlink" width="200" height="200"><defs><style type="text/css"></style></defs><path d="M941.078756 758.135467c0 36.352-188.029156 65.797689-419.976534 65.797689-75.434667 0-146.2272-3.094756-207.405511-8.578845-126.941867-11.309511-212.571022-32.688356-212.571022-57.218844L147.262578 229.455644h747.679289l46.136889 528.679823z" fill="#47A7DD" p-id="3836"></path><path d="M324.664889 243.063467l-10.979556 572.290844c-126.930489-11.309511-212.559644-32.688356-212.559644-57.218844L147.262578 229.455644l177.402311 13.607823z" fill="#3D98C1" p-id="3837"></path><path d="M147.262578 229.455644a373.839644 65.797689 0 1 0 747.679289 0 373.839644 65.797689 0 1 0-747.679289 0Z" fill="#3D98C1" p-id="3838"></path><path d="M250.595556 383.271822c-9.352533 0-16.930133 7.623111-16.930134 17.021156v137.500444c0 9.398044 7.5776 17.009778 16.930134 17.009778h57.014044c9.352533 0 16.930133-7.611733 16.930133-17.009778 0-9.386667-7.588978-17.009778-16.930133-17.009778h-40.072533v-120.490666c0-9.398044-7.5776-17.021156-16.941511-17.021156zM375.307378 554.814578c30.947556 0 56.126578-25.304178 56.126578-56.411022v-58.720712c0-31.106844-25.179022-56.411022-56.126578-56.411022s-56.126578 25.304178-56.126578 56.411022v58.720712c0 31.106844 25.179022 56.411022 56.126578 56.411022zM353.052444 439.682844c0-12.333511 9.989689-22.368711 22.266312-22.368711s22.254933 10.0352 22.254933 22.368711v58.720712a22.345956 22.345956 0 0 1-22.254933 22.380088 22.357333 22.357333 0 0 1-22.266312-22.380088v-58.720712zM520.021333 752.469333c30.947556 0 56.137956-25.315556 56.137956-56.399644v-58.732089c0-31.095467-25.1904-56.399644-56.137956-56.399644s-56.126578 25.315556-56.126577 56.399644v58.732089c0 31.084089 25.179022 56.399644 56.126577 56.399644z m-22.254933-115.131733c0-12.333511 9.989689-22.368711 22.266311-22.368711 12.265244 0 22.254933 10.0352 22.254933 22.368711v58.732089a22.334578 22.334578 0 0 1-22.254933 22.357333 22.334578 22.334578 0 0 1-22.266311-22.357333v-58.732089zM503.466667 383.271822h-32.062578c-9.352533 0-16.930133 7.623111-16.930133 17.021156v137.500444c0 9.398044 7.5776 17.009778 16.930133 17.009778h39.196444c30.958933 0 56.137956-25.2928 56.137956-56.399644 0-18.773333-9.204622-35.4304-23.278933-45.681778a46.193778 46.193778 0 0 0 6.166755-23.062756c0-25.577244-20.707556-46.3872-46.159644-46.3872z m-15.132445 34.042311h15.132445c6.769778 0 12.288 5.5296 12.288 12.333511 0 6.815289-5.506844 12.344889-12.288 12.344889h-15.132445v-24.6784z m22.266311 103.458134H488.334222v-44.7488H510.600533c12.276622 0 22.266311 10.0352 22.266311 22.368711s-10.001067 22.380089-22.266311 22.380089zM345.372444 752.469333H384.568889c30.947556 0 56.126578-25.315556 56.126578-56.399644 0-18.773333-9.193244-35.4304-23.267556-45.693156a46.193778 46.193778 0 0 0 6.166756-23.062755c0-25.577244-20.707556-46.375822-46.148267-46.375822h-32.073956c-9.352533 0-16.930133 7.623111-16.930133 17.021155v137.489067c0 9.398044 7.588978 17.021156 16.930133 17.021155z m39.207823-34.030933h-22.266311v-44.7488H384.568889c12.276622 0 22.266311 10.046578 22.266311 22.380089s-9.989689 22.368711-22.254933 22.368711z m-22.266311-103.469511h15.143822c6.769778 0 12.288 5.5296 12.288 12.344889 0 6.803911-5.506844 12.333511-12.288 12.333511h-15.143822V614.968889zM635.915378 383.271822h-32.062578c-9.352533 0-16.930133 7.623111-16.930133 17.021156v137.500444c0 9.398044 7.5776 17.009778 16.930133 17.009778h39.196444c30.936178 0 56.126578-25.2928 56.126578-56.399644a56.433778 56.433778 0 0 0-23.278933-45.681778 46.091378 46.091378 0 0 0 6.178133-23.062756c-0.011378-25.577244-20.718933-46.3872-46.159644-46.3872z m-15.132445 34.042311h15.132445c6.781156 0 12.288 5.5296 12.288 12.333511 0 6.815289-5.506844 12.344889-12.288 12.344889h-15.132445v-24.6784z m22.266311 103.458134h-22.266311v-44.7488h22.266311c12.265244 0 22.243556 10.0352 22.243556 22.368711s-9.978311 22.380089-22.243556 22.380089zM759.694222 554.814578c9.352533 0 16.930133-7.623111 16.930134-17.009778v-64.227556l36.955022-64.8192a17.066667 17.066667 0 0 0-6.280534-23.222044 16.873244 16.873244 0 0 0-23.108266 6.303289l-24.496356 42.973867-24.496355-42.973867a16.896 16.896 0 0 0-23.119645-6.303289 17.078044 17.078044 0 0 0-6.269155 23.233422l36.955022 64.8192v64.227556a16.952889 16.952889 0 0 0 16.930133 16.9984zM650.6496 752.469333c9.352533 0 16.930133-7.623111 16.930133-17.021155v-64.216178l36.955023-64.8192a17.066667 17.066667 0 0 0-6.269156-23.233422 16.896 16.896 0 0 0-23.108267 6.314666l-24.507733 42.973867-24.484978-42.973867a16.896 16.896 0 0 0-23.108266-6.314666 17.066667 17.066667 0 0 0-6.291912 23.233422l36.955023 64.807822v64.227556a16.952889 16.952889 0 0 0 16.930133 17.021155z" fill="" p-id="3839"></path><path d="M957.940622 756.656356l-16.5888-190.134045a16.952889 16.952889 0 0 0-18.340978-15.4624 16.987022 16.987022 0 0 0-15.394133 18.432l16.315733 186.959645c-4.027733 3.845689-25.9072 19.729067-122.595555 33.518933-76.686222 10.934044-176.196267 16.952889-280.223289 16.952889-104.0384 0-203.559822-6.018844-280.223289-16.952889-96.699733-13.789867-118.590578-29.684622-122.595555-33.518933L160.995556 266.695111c14.518044 7.224889 34.395022 13.630578 60.120177 19.501511a17.021156 17.021156 0 0 0 7.497956-33.188978c-44.418844-10.1376-58.834489-19.683556-63.135289-23.552 5.472711-4.937956 27.363556-19.114667 106.2912-31.800888 68.152889-10.9568 156.694756-16.987022 249.332622-16.987023s181.191111 6.030222 249.321245 16.987023c78.939022 12.686222 100.818489 26.862933 106.2912 31.800888-5.461333 4.949333-27.352178 19.126044-106.2912 31.800889-68.130133 10.945422-156.683378 16.975644-249.321245 16.975645-82.591289 0-160.6656-4.664889-225.780622-13.505422a16.952889 16.952889 0 0 0-19.0464 14.586311 16.9984 16.9984 0 0 0 14.518044 19.137422c66.582756 9.033956 146.2272 13.801244 230.308978 13.801244 100.807111 0 195.731911-6.929067 267.275378-19.524266 42.052267-7.395556 72.612978-15.894756 92.819911-26.032356l20.627911 236.498489a16.964267 16.964267 0 0 0 18.340978 15.4624 16.9984 16.9984 0 0 0 15.405511-18.432L911.826489 227.999289c-1.262933-27.943822-39.480889-47.058489-123.448889-61.838222C716.834133 153.565867 621.909333 146.6368 521.102222 146.6368S325.370311 153.565867 253.826844 166.161067c-83.968 14.779733-122.174578 33.905778-123.448888 61.838222L84.263822 756.656356a16.088178 16.088178 0 0 0-0.068266 1.479111c0 19.478756 15.610311 44.282311 137.329777 63.351466 80.156444 12.561067 186.550044 19.467378 299.576889 19.467378 113.038222 0 219.409067-6.906311 299.576889-19.467378 121.719467-19.080533 137.329778-43.872711 137.329778-63.351466 0-0.489244-0.022756-0.989867-0.068267-1.479111z" fill="" p-id="3840"></path></svg>