<?xml version="1.0" standalone="no"?><!DOCTYPE svg PUBLIC "-//W3C//DTD SVG 1.1//EN" "http://www.w3.org/Graphics/SVG/1.1/DTD/svg11.dtd"><svg t="1545419979063" class="icon" style="" viewBox="0 0 1024 1024" version="1.1" xmlns="http://www.w3.org/2000/svg" p-id="3952" xmlns:xlink="http://www.w3.org/1999/xlink" width="200" height="200"><defs><style type="text/css"></style></defs><path d="M222.842 316.154a0.495 0.495 0 1 0 63.347 0 0.495 0.495 0 1 0-63.347 0z m322.446 166.651c-11.763 0-21.294-9.53-21.294-21.294V265.947c0-96.469-78.487-174.956-174.956-174.956s-174.956 78.487-174.956 174.956c0 11.763-9.531 21.294-21.294 21.294s-21.294-9.53-21.294-21.294c0-119.953 97.59-217.544 217.544-217.544s217.544 97.59 217.544 217.544V461.51c0 11.763-9.531 21.294-21.294 21.294z m-98.312 478.883c-47.35 0-85.87-38.526-85.87-85.87V648.417L279.513 535.18c-55.481 23.297-127.751 13.378-171.102-12.325-53.831-31.934-94.417-83.173-103.393-130.53-5.406-28.517 0.347-54.67 16.643-75.639 7.216-9.289 20.594-10.966 29.883-3.75 9.288 7.216 10.965 20.594 3.75 29.882-8.706 11.195-11.542 25.184-8.436 41.577 6.702 35.33 40.169 76.255 83.277 101.833 31.865 18.896 100.024 30.631 145.08 3.535 9.476-5.718 21.773-3.195 28.247 5.802l96.212 133.525a21.285 21.285 0 0 1 4.02 12.45v234.277c0 23.859 19.416 43.28 43.281 43.28 23.86 0 43.275-19.422 43.275-43.28v-137.83c0-11.763 9.531-21.294 21.294-21.294s21.294 9.53 21.294 21.294v137.83c0 47.344-38.519 85.87-85.862 85.87zM38.484 351.054c-8.477 0-16.49-5.095-19.804-13.461-4.332-10.931 1.02-23.304 11.957-27.637l114.31-45.278c10.925-4.339 23.298 1.012 27.637 11.958 4.332 10.93-1.019 23.304-11.957 27.636L46.317 349.55a21.237 21.237 0 0 1-7.833 1.504z m478.232 136.382c-82.176 0-149.032-82.148-149.032-183.115v-74.8c0-11.764 9.53-21.294 21.294-21.294 11.763 0 21.294 9.53 21.294 21.294v74.8c0 77.489 47.752 140.526 106.443 140.526a79.57 79.57 0 0 0 17.322-1.906c11.459-2.558 22.855 4.686 25.413 16.164 2.55 11.48-4.686 22.854-16.165 25.412a122.75 122.75 0 0 1-26.57 2.919z m-181.625 72.81c-8.886 0-17.184-5.608-20.178-14.494-3.729-11.063 2.135-23.041 13.122-26.895 10.28-4.388 60.701-41.605 101.695-73.712 9.26-7.244 22.646-5.629 29.896 3.639 7.25 9.26 5.622 22.64-3.639 29.897-35.143 27.526-96.704 74.578-114.089 80.442a21.264 21.264 0 0 1-6.807 1.123z m536.947 198.961H508.047c-10.404 0-18.845-9.498-18.845-21.22s8.44-21.22 18.845-21.22h363.99c10.405 0 18.846 9.497 18.846 21.22s-8.441 21.22-18.845 21.22z m60.729 216.39c-45.039 0-81.691-36.645-81.691-81.69V742.332c0-11.723 9.505-21.221 21.22-21.221s21.22 9.498 21.22 21.22v151.576c0 21.642 17.601 39.25 39.25 39.25 21.65 0 39.25-17.608 39.25-39.25V642.959c0-11.723 9.506-21.22 21.221-21.22s21.22 9.497 21.22 21.22v250.948c0 45.045-36.652 81.69-81.69 81.69z m39.431-587.667h42.586v310.419h-42.586v-310.42z m-426.917 26.473c-11.645 0-21.149-9.371-21.287-21.051-0.132-11.756 9.289-21.399 21.051-21.537l448.204-5.178c11.5 0.097 21.398 9.288 21.536 21.051 0.132 11.756-9.288 21.399-21.051 21.537l-448.203 5.178h-0.25z m448.19-17.059c-11.195 0-20.58-8.734-21.239-20.06-0.242-4.145 0.562-8.055 1.893-14.536 7.472-36.35 10.28-75.458-25.599-89.931-10.91-4.402-16.186-16.81-11.784-27.713 4.402-10.91 16.789-16.186 27.713-11.784 48.869 19.714 66.163 66.142 51.391 138.004-0.464 2.26-0.873 4.082-1.067 5.379-0.326 10.917-8.942 19.963-20.053 20.608-0.417 0.02-0.84 0.033-1.255 0.033z" p-id="3953"></path></svg>