<?xml version="1.0" standalone="no"?><!DOCTYPE svg PUBLIC "-//W3C//DTD SVG 1.1//EN" "http://www.w3.org/Graphics/SVG/1.1/DTD/svg11.dtd"><svg t="1545419998733" class="icon" style="" viewBox="0 0 1024 1024" version="1.1" xmlns="http://www.w3.org/2000/svg" p-id="4178" xmlns:xlink="http://www.w3.org/1999/xlink" width="200" height="200"><defs><style type="text/css"></style></defs><path d="M346.887498 959.583898c-36.675294 0.001023-73.348542-13.953803-101.269451-41.862433-26.570145-26.588565-41.247426-62.002123-41.817408-98.788957-36.809347-0.566912-72.222905-15.252379-98.791004-41.837874-55.831586-55.831586-55.831586-146.685827 0.00614-202.523553 42.979884-42.977837 108.631116-54.16155 163.361625-27.829836 12.069897 5.807263 17.147542 20.299325 11.340279 32.369222-5.807263 12.072967-20.300348 17.150612-32.369221 11.341303-36.190247-17.410532-79.605036-10.009981-108.034529 18.419511-36.923958 36.924981-36.923958 97.006358 0 133.931339 22.562878 22.577205 54.826699 32.149211 86.325088 25.619494a24.252357 24.252357 0 0 1 28.673039 28.676109c-6.532787 31.473829 3.039219 63.745836 25.606191 86.327135 36.922934 36.907585 97.016591 36.907585 133.947712-0.00921 17.888416-17.888416 27.741831-41.673122 27.741831-66.971298 0-25.297153-9.853415-49.082882-27.745924-66.97539-3.366677-3.366677-7.287987-6.359848-12.139482-9.8176a24.25338 24.25338 0 0 1-3.074012-36.898375l228.4132-228.432643c9.471722-9.471722 24.827455-9.472745 34.299177-0.001023s9.472745 24.827455 0.002047 34.298154l-209.921034 209.93843c24.974811 26.632567 38.673811 61.20906 38.673812 97.887424 0 38.254256-14.899338 74.220399-41.952485 101.274568-27.922956 27.910677-64.600297 41.865503-101.275591 41.865503z" p-id="4179"></path><path d="M365.779777 568.236815a24.177656 24.177656 0 0 1-17.149588-7.103791c-9.471722-9.471722-9.471722-24.828478 0-34.299177l222.150566-222.150566c-24.972764-26.626427-38.667671-61.201897-38.667672-97.887425 0-38.257326 14.894222-74.220399 41.938158-101.264334 55.842843-55.842843 146.706293-55.842843 202.549136 0 26.579355 26.579355 41.259706 61.987796 41.822524 98.775654 36.787858 0.562818 72.195276 15.242146 98.775654 41.821501 55.841819 55.842843 55.841819 146.706293 0 202.549135-20.996197 20.995173-47.512107 34.766828-76.68452 39.825031-28.491914 4.938476-57.427944 1.269923-83.682911-10.612709-12.202926-5.522784-17.61724-19.893072-12.094455-32.095998 5.52176-12.202926 19.891026-17.618263 32.094975-12.094456 17.36346 7.858992 36.518728 10.284227 55.394635 7.01067 19.265786-3.340071 36.787858-12.44545 50.673099-26.330691 36.930097-36.930097 36.930097-97.019661 0-133.950782-22.577205-22.576181-54.845119-32.146141-86.311784-25.602098a24.252357 24.252357 0 0 1-28.683273-28.683272c6.545066-31.469736-3.024893-63.736627-25.602098-86.312808-36.929074-36.929074-97.019661-36.930097-133.950781 0-17.883299 17.883299-27.730575 41.664935-27.730575 66.965157 0 25.300222 9.848299 49.082882 27.730575 66.965158 3.337002 3.337002 7.28594 6.359848 12.1886 9.871835a24.25338 24.25338 0 0 1 3.02387 36.865629L382.929366 561.133024a24.177656 24.177656 0 0 1-17.149589 7.103791z" p-id="4180"></path></svg>