<?xml version="1.0" standalone="no"?><!DOCTYPE svg PUBLIC "-//W3C//DTD SVG 1.1//EN" "http://www.w3.org/Graphics/SVG/1.1/DTD/svg11.dtd"><svg t="1545420023658" class="icon" style="" viewBox="0 0 1024 1024" version="1.1" xmlns="http://www.w3.org/2000/svg" p-id="4521" xmlns:xlink="http://www.w3.org/1999/xlink" width="200" height="200"><defs><style type="text/css"></style></defs><path d="M149.952 114.688c-30.976 83.968-149.952 89.984-149.952 89.984l0 64c0 0 149.952 128 192 128s194.176-128 194.176-128l61.824 64c0 0-42.24 35.072-81.536 64s-110.464 64-110.464 64 43.52 142.72 15.936 230.72S192 908.672 192 908.672s-16.896 64 64 64c33.984 0 64-64 64-64s26.624-67.904 66.176-127.168 63.744-63.552 63.744-63.552l191.168 0c0 0 39.616 27.456 63.744 63.552 23.744 35.52 56.384 95.104 63.168 127.104 6.784 32 28.672 64.064 64 64.064s64-28.672 64-64c0-11.904-81.856-320.256-64-384 22.4-79.808 39.168-97.408 64-128s128-90.88 128-128-50.688-28.8-62.464-21.44-42.56 29.632-65.536 46.144-152.128 96.512-192 103.296-62.912 8.64-128 0-128-64-128-64l193.088-191.488-65.088-64-189.824 191.488-66.176-256c0 0-34.752 4.544-73.408 19.52C207.936 47.232 165.44 72.704 149.952 114.688z" p-id="4522"></path></svg>