<?xml version="1.0" standalone="no"?><!DOCTYPE svg PUBLIC "-//W3C//DTD SVG 1.1//EN" "http://www.w3.org/Graphics/SVG/1.1/DTD/svg11.dtd"><svg t="1545420029065" class="icon" style="" viewBox="0 0 1024 1024" version="1.1" xmlns="http://www.w3.org/2000/svg" p-id="4638" xmlns:xlink="http://www.w3.org/1999/xlink" width="200" height="200"><defs><style type="text/css"></style></defs><path d="M995.447467 459.714844c-6.549333-7.086933-18.326756-15.5392-37.262222-15.5392l-39.387022-5.688889c-38.978844-26.191644-114.335289-91.049244-127.7824-101.438578-11.259733-8.708267-18.023822-15.755378-20.114489-20.9536-1.654044-4.131556-1.618489-10.346667-1.400889-21.885156 0.065422-3.512889 0.1408-7.5008 0.1408-11.757511 0-63.580444-42.798933-105.041067-50.382222-111.889067-6.611911-6.409956-69.007644-66.784711-99.182933-92.741689-36.216889-31.143822-77.993244-39.900444-82.638222-40.795022-1.9584-0.376889-3.9424-0.567467-5.934933-0.567467L324.605156 36.458667c-47.569067 0-81.024 33.602844-89.564444 43.141689L10.811733 281.230222l-0.391111-0.054044c-0.2048 1.473422-5.084444 36.5824-2.609778 77.339022 3.679289 60.522667 21.376 102.8096 52.599467 125.696 38.711467 28.367644 63.533511 93.236622 69.818311 115.785956 3.919644 14.240711-4.7104 26.6752 9.427911 26.6752 1.4208 0 2.8544-0.100978 4.295111-0.295822 6.363022-0.876089 63.126756-9.5232 96.310044-43.411911 40.661333-41.5232 116.767289-181.028978 125.307733-196.798578l-43.168711-18.710756c-22.016 40.624356-85.505422 152.551822-114.5728 182.235022-8.2816 8.453689-22.112711 11.754667-34.688 15.870578-3.128889-8.032711-12.750222-31.620267-17.388089-41.358222-20.141511-42.339556-44.478578-74.156089-72.335644-94.572089-14.300444-10.481778-23.523556-37.348978-25.988267-75.6608-0.999822-15.588978-2.100622-47.473778-1.447822-59.017956L271.594667 103.0528c1.270044-1.136356 2.123378-1.984 3.185778-3.298133 5.467022-6.300444 23.451022-22.235022 42.645333-22.235022L532.238222 77.519644c7.630222 1.969778 31.317333 9.112178 50.958222 26.002489 29.758578 25.592889 84.643556 79.886222 85.309156 80.534756 0.503467 0.489244 12.534044 11.030756 13.070222 11.484444 0.278756 0.244622 45.492622 42.301156 45.492622 79.715556 0 3.633778-0.064 7.132444-0.128 10.510222-0.287289 15.271822-0.578844 31.0656 6.163911 47.8848 6.759822 16.856178 10.783289 21.7088 32.167822 38.240711 18.776178 14.512356 113.518933 93.462756 126.384356 102.089956 5.215289 3.498667 11.322311 5.3632 17.558756 5.3632l62.973156 7.196444 1.440711 62.392889-132.711822 127.621689c-0.723911 0.7168-10.901333 8.9472-11.342222 9.480533-2.8032 2.606933-12.573867 11.2896-56.638578 11.2896L445.946311 697.326933c-11.380622-0.496356-53.967644 1.258667-100.751644 49.035378-20.784356 21.2224-192.342756 211.744711-199.941689 219.902578L177.316978 991.288889c1.860267-1.992533 184.374044-200.944356 204.593778-221.589333 27.140267-27.716267 47.998578-29.829689 51.923911-29.974756 1.248711 0.214756 1.033956 0.072533 2.752 0.072533l322.084978-4.317867c71.005867 0 106.100622-12.589511 112.931556-19.704889l127.651556-126.823822c6.192356-6.148267 9.683911-14.589156 9.683911-23.414044l0-68.9792C1009.093689 490.038044 1008.096711 473.406578 995.447467 459.714844L995.447467 459.714844zM954.934044 472.091022c0.0128-0.356978 0.027022-0.676978 0.045511-0.951467C954.958222 471.453867 954.944 471.773867 954.934044 472.091022L954.934044 472.091022zM630.385778 396.420267l0-68.898133c0-16.910222-11.548444-30.621867-25.786311-30.621867-14.243556 0-25.790578 13.711644-25.790578 30.621867l0 68.898133c0 16.910222 11.547022 30.616178 25.790578 30.616178C618.837333 427.036444 630.385778 413.330489 630.385778 396.420267L630.385778 396.420267z" p-id="4639"></path></svg>