<?xml version="1.0" standalone="no"?><!DOCTYPE svg PUBLIC "-//W3C//DTD SVG 1.1//EN" "http://www.w3.org/Graphics/SVG/1.1/DTD/svg11.dtd"><svg t="1545419891004" class="icon" style="" viewBox="0 0 1024 1024" version="1.1" xmlns="http://www.w3.org/2000/svg" p-id="2395" xmlns:xlink="http://www.w3.org/1999/xlink" width="200" height="200"><defs><style type="text/css"></style></defs><path d="M253.13 529.83a57.37 57.37 0 0 1-14.59-1.91 56.64 56.64 0 0 1-13.83-103.8L453.52 292a105.07 105.07 0 0 1 103.67-0.56l235.7 132.71a56.67 56.67 0 0 1 21.27 77.69 16.17 16.17 0 0 1-28-16.17 24.32 24.32 0 0 0-9.16-33.36L541.33 319.6a72.61 72.61 0 0 0-71.64 0.39L240.88 452.12a24.3 24.3 0 1 0 24.43 42l17.53-10.26a16.17 16.17 0 1 1 16.33 27.91l-17.53 10.26a56.27 56.27 0 0 1-28.51 7.8z" fill="#191007" p-id="2396"></path><path d="M727 514.57a16.05 16.05 0 0 1-8-2.12L542 411.59a72.54 72.54 0 0 0-72.31 0.42l-115.1 67.34a16.16 16.16 0 0 1-16.33-27.9l115.08-67.34A104.94 104.94 0 0 1 558 383.5l177 100.85a16.17 16.17 0 0 1-8 30.22zM291.33 750.88a16.17 16.17 0 0 1-16.17-16.16V498.35a16.17 16.17 0 1 1 32.33 0v236.36a16.16 16.16 0 0 1-16.16 16.17z" fill="#191007" p-id="2397"></path><path d="M727.08 750.84a16.15 16.15 0 0 1-16.16-16.16V498.31a16.17 16.17 0 1 1 32.33 0v236.37a16.16 16.16 0 0 1-16.17 16.16z" fill="#191007" p-id="2398"></path><path d="M229.77 886.86a83 83 0 0 1 0-166h61.56a16.17 16.17 0 1 1 0 32.33h-61.57a50.65 50.65 0 1 0 0 101.3h551.26a50.66 50.66 0 1 0 0-101.31H372.28a16.17 16.17 0 1 1 0-32.33h408.75a83 83 0 0 1 0 166z" fill="#191007" p-id="2399"></path><path d="M372.22 750.57a16.16 16.16 0 0 1-16.17-16.16c0-50.66 15.58-92.47 45.05-120.93 27.18-26.24 64.56-40.11 108.09-40.11a153.2 153.2 0 0 1 146.07 107 16.17 16.17 0 1 1-30.83 9.74 121.84 121.84 0 0 0-43.17-60.55 119.74 119.74 0 0 0-72.06-23.86c-35 0-64.6 10.74-85.63 31-23 22.22-35.18 56-35.18 97.67a16.15 16.15 0 0 1-16.17 16.2zM672.14 291.47a23.85 23.85 0 0 1-17-7.06l-57.06-57.86a49.6 49.6 0 0 1 35.3-84.41h0.35a49.31 49.31 0 0 1 35 14.77l5.23 5.31 6.3-6a51 51 0 0 1 36.73-13.82 48.83 48.83 0 0 1 34.59 15.89 49.83 49.83 0 0 1-2.55 69.4L688.56 285a23.8 23.8 0 0 1-16.42 6.47zM633.36 163.7a28 28 0 0 0-20 47.72l57.06 57.85a2.36 2.36 0 0 0 3.27 0.06l60.42-57.25a28.17 28.17 0 0 0 1.44-39.23 27.4 27.4 0 0 0-19.4-8.85 29.28 29.28 0 0 0-21.15 7.9l-21.6 20.5-20.07-20.35a27.82 27.82 0 0 0-19.77-8.35zM819.58 333.7a17.49 17.49 0 0 1-12.47-5.18l-29.3-29.7a30.71 30.71 0 0 1 42.79-44 31.32 31.32 0 0 1 22.17-8.08 30.23 30.23 0 0 1 21.44 9.86 30.86 30.86 0 0 1-1.57 43l-31 29.39a17.47 17.47 0 0 1-12.06 4.71z m-19.91-65.59a9.15 9.15 0 0 0-6.51 15.57l26.51 26.88 28.14-26.66a9.21 9.21 0 0 0 0.48-12.81 8.9 8.9 0 0 0-6.3-2.84 9.76 9.76 0 0 0-7 2.63l-14.89 14.06-13.91-14.11a9.14 9.14 0 0 0-6.52-2.72z" fill="#191007" p-id="2400"></path></svg>