<?xml version="1.0" standalone="no"?><!DOCTYPE svg PUBLIC "-//W3C//DTD SVG 1.1//EN" "http://www.w3.org/Graphics/SVG/1.1/DTD/svg11.dtd"><svg t="1545419912047" class="icon" style="" viewBox="0 0 1024 1024" version="1.1" xmlns="http://www.w3.org/2000/svg" p-id="2767" xmlns:xlink="http://www.w3.org/1999/xlink" width="200" height="200"><defs><style type="text/css"></style></defs><path d="M135.44298 369.384408c0.999886-2.999658 372.95743-261.970099 372.957431-261.970098l366.958115 254.970897zM91.448002 1001.31228h287.967131l129.985164-299.965762 135.984478 304.965191h282.967702l7.999087-16.99806-67.992239-475.945675s-207.976261 34.996006-362.958572 34.996005c-131.045042 0-351.959827-37.995663-351.959827-37.995663z" fill="#8AABFF" p-id="2768"></path><path d="M510.400183 55.420244m-40.995321 0a40.995321 40.995321 0 1 0 81.990641 0 40.995321 40.995321 0 1 0-81.990641 0Z" fill="#FF5F5F" p-id="2769"></path><path d="M408.411824 936.319698h-314.96405l-6.999201 68.992125h290.966789l30.996462-68.992125zM608.388998 936.319698h314.96405l6.999201 68.992125h-290.966789l-30.996462-68.992125z" fill="#5983E2" p-id="2770"></path><path d="M780.159392 767.658949l27.056912 32.136332 41.825226-4.059537-22.207465 35.665929 16.788083 38.515604-40.785344-10.098847-31.446411 27.876818-2.999658-41.915216-36.225865-21.28757 38.935556-15.808196 9.058966-41.025317zM672.401692 605.407468l9.878872 40.845338 39.245521 15.018286-35.785916 22.017487-2.159753 41.96521-31.996348-27.236891-40.575369 10.918754 16.008173-38.855565-22.917384-35.215981 41.895218 3.229632 26.406986-32.68627zM340.519573 523.726791l34.106107 24.5372 39.555485-14.188381-12.798539 40.025432 25.707066 33.236206-42.015205 0.189978-23.667298 34.726037-13.168497-39.905445-40.335396-11.768657 33.876133-24.857163-1.259856-41.995207zM824.304353 473.122567l-3.539596 41.875221 32.476294 26.646958-40.905332 9.578907-15.318251 39.125534-21.747518-35.955896-41.945212-2.469718 27.476864-31.786372-10.618788-40.665358 38.735578 16.308138 35.385961-22.657414z" fill="#5983E2" p-id="2771"></path><path d="M109.445948 370.384294h807.907785l0.999886 122.985962s-168.980712 54.993723-393.955034 54.993723-416.952409-53.993837-416.952409-53.993837z" fill="#EA5050" p-id="2772"></path><path d="M109.445948 361.385321h807.907785l0.999886 78.990984s-168.980712 54.993723-393.955034 54.993723-416.952409-53.993837-416.952409-53.993837z" fill="#FF5F5F" p-id="2773"></path><path d="M298.104414 798.285453l22.307454 35.605936 41.985208 1.809794-26.976921 32.216322 11.258715 40.485379-38.975551-15.688209-35.026003 23.21735 2.879672-41.925215-32.906244-26.137016 40.755348-10.218834 14.698322-39.365507zM166.659417 648.712526l30.726493 28.666728 41.025318-9.058966-17.767972 38.075654 21.28757 36.235864-41.70524-5.139414-27.866819 31.446411-8.009086-41.255291-38.515604-16.788084 36.755805-20.357676 4.069535-41.825226z" fill="#5983E2" p-id="2774"></path><path d="M950.31997 979.004826l-66.772379-460.04749c13.648442-3.359617 24.567196-6.299281 32.426299-8.509029a19.997717 19.997717 0 0 0 14.568337-19.227805V373.31396a19.997717 19.997717 0 0 0-19.997717-19.997718H898.955833l0.209976-0.299965L539.546856 102.004927a54.993723 54.993723 0 1 0-57.413447-0.209976L122.824421 353.07627l0.199977 0.289967h-11.598676a19.997717 19.997717 0 0 0-19.997718 19.997717v118.01653a19.997717 19.997717 0 0 0 14.358361 19.167812c8.209063 2.399726 19.827737 5.629357 34.496063 9.318936L73.68003 979.004826a39.365507 39.365507 0 0 0 38.995549 44.994864h250.161447a47.514577 47.514577 0 0 0 44.424929-30.216551l103.548181-262.020093L616.688051 994.103102A47.564571 47.564571 0 0 0 660.982995 1023.99969h250.371422a39.365507 39.365507 0 0 0 38.995549-44.994864zM511.000114 30.113133a24.997147 24.997147 0 1 1-24.997147 24.997147 24.997147 24.997147 0 0 1 24.997147-24.997147z m-0.329962 88.319919l336.561584 234.97318h-672.523237z m-389.245571 264.869768h779.151067v100.30855c-51.994065 14.10839-203.976718 50.264263-393.575077 50.264263a1538.534391 1538.534391 0 0 1-253.971012-21.177583c-61.113025-10.258829-106.597833-21.797512-131.634975-28.836708z m797.039025 607.480661a9.28894 9.28894 0 0 1-7.109189 3.219633H660.982995a17.727977 17.727977 0 0 1-16.508116-11.138729L525.498459 688.038037a15.908184 15.908184 0 0 0-14.818308-9.998859h-0.059994a15.908184 15.908184 0 0 0-14.808309 10.108846L379.395136 982.774396A17.707979 17.707979 0 0 1 362.837026 994.003114H112.645583a9.398927 9.398927 0 0 1-9.298939-10.748773l66.23244-456.397907c73.24164 16.548111 192.977973 36.995777 337.421487 36.995778a1627.384249 1627.384249 0 0 0 347.260363-37.995664l66.392422 457.467785a9.28894 9.28894 0 0 1-2.18975 7.459148z" fill="#192B3A" p-id="2775"></path></svg>