<?xml version="1.0" standalone="no"?><!DOCTYPE svg PUBLIC "-//W3C//DTD SVG 1.1//EN" "http://www.w3.org/Graphics/SVG/1.1/DTD/svg11.dtd"><svg t="1545419844807" class="icon" style="" viewBox="0 0 1024 1024" version="1.1" xmlns="http://www.w3.org/2000/svg" p-id="1910" xmlns:xlink="http://www.w3.org/1999/xlink" width="200" height="200"><defs><style type="text/css"></style></defs><path d="M456.533333 492.088889l-56.888889-177.777778c-4.266667-12.8 4.266667-24.177778 17.066667-28.444444l5.688889-1.422223c12.8-2.844444 27.022222 2.844444 31.288889 15.644445l56.888889 177.777778c4.266667 12.8-4.266667 24.177778-17.066667 28.444444l-5.688889 1.422222c-14.222222 4.266667-28.444444-2.844444-31.288889-15.644444z" fill="#404042" p-id="1911"></path><path d="M567.466667 492.088889l56.888889-177.777778c4.266667-12.8-4.266667-24.177778-17.066667-28.444444l-5.688889-1.422223c-12.8-2.844444-27.022222 2.844444-31.288889 15.644445l-56.888889 177.777778c-4.266667 12.8 4.266667 24.177778 17.066667 28.444444l5.688889 1.422222c14.222222 4.266667 28.444444-2.844444 31.288889-15.644444z" fill="#404042" p-id="1912"></path><path d="M601.6 543.288889c-1.422222-41.244444-36.977778-73.955556-78.222222-73.955556h-22.755556c-42.666667 0-76.8 32.711111-78.222222 73.955556L412.444444 836.266667c-1.422222 39.822222 31.288889 73.955556 72.533334 73.955555h52.622222c41.244444 0 73.955556-32.711111 72.533333-73.955555l-8.533333-292.977778zM540.444444 853.333333h-56.888888c-8.533333 0-15.644444-7.111111-14.222223-14.222222l12.8-292.977778c0-11.377778 9.955556-18.488889 19.911111-18.488889h18.488889c11.377778 0 19.911111 8.533333 19.911111 18.488889L554.666667 839.111111c1.422222 7.111111-5.688889 14.222222-14.222223 14.222222z" fill="#404042" p-id="1913"></path><path d="M210.488889 227.555556l85.333333 241.777777c11.377778 34.133333 44.088889 56.888889 81.066667 56.888889h258.844444c35.555556 0 66.844444-21.333333 79.644445-54.044444l93.866666-241.777778c21.333333-55.466667-19.911111-116.622222-79.644444-116.622222H291.555556c-59.733333 0-100.977778 58.311111-81.066667 113.777778z m419.555555 241.777777H379.733333c-12.8 0-22.755556-7.111111-27.022222-19.911111l-82.488889-241.777778c-5.688889-18.488889 7.111111-36.977778 27.022222-36.977777H725.333333c19.911111 0 34.133333 19.911111 27.022223 38.4l-93.866667 241.777777c-5.688889 11.377778-17.066667 18.488889-28.444445 18.488889z" fill="#404042" p-id="1914"></path></svg>