<?xml version="1.0" standalone="no"?><!DOCTYPE svg PUBLIC "-//W3C//DTD SVG 1.1//EN" "http://www.w3.org/Graphics/SVG/1.1/DTD/svg11.dtd"><svg t="1545419831950" class="icon" style="" viewBox="0 0 1024 1024" version="1.1" xmlns="http://www.w3.org/2000/svg" p-id="1789" xmlns:xlink="http://www.w3.org/1999/xlink" width="200" height="200"><defs><style type="text/css"></style></defs><path d="M426.666667 668.444444h-85.333334c-15.644444 0-28.444444-12.8-28.444444-28.444444s12.8-28.444444 28.444444-28.444444h85.333334c15.644444 0 28.444444 12.8 28.444444 28.444444s-12.8 28.444444-28.444444 28.444444zM540.444444 768h-85.333333c-15.644444 0-28.444444-12.8-28.444444-28.444444s12.8-28.444444 28.444444-28.444445h85.333333c15.644444 0 28.444444 12.8 28.444445 28.444445s-12.8 28.444444-28.444445 28.444444zM981.333333 483.555556c0 15.644444-12.8 28.444444-28.444444 28.444444H71.111111c-15.644444 0-28.444444-12.8-28.444444-28.444444s12.8-28.444444 28.444444-28.444445h881.777778c15.644444 0 28.444444 12.8 28.444444 28.444445zM725.333333 853.333333c15.644444 0 28.444444 12.8 28.444445 28.444445v28.444444c0 15.644444-12.8 28.444444-28.444445 28.444445s-28.444444-12.8-28.444444-28.444445v-28.444444c0-15.644444 12.8-28.444444 28.444444-28.444445zM298.666667 853.333333c15.644444 0 28.444444 12.8 28.444444 28.444445v28.444444c0 15.644444-12.8 28.444444-28.444444 28.444445s-28.444444-12.8-28.444445-28.444445v-28.444444c0-15.644444 12.8-28.444444 28.444445-28.444445z" fill="#404042" p-id="1790"></path><path d="M298.666667 189.155556c0 4.266667 1.422222 7.111111 2.844444 9.955555h52.622222c1.422222-2.844444 1.422222-5.688889 1.422223-8.533333 0-68.266667-51.2-85.333333-119.466667-89.6C160.711111 95.288889 99.555556 153.6 99.555556 227.555556v355.555555h56.888888V227.555556c0-41.244444 35.555556-73.955556 78.222223-71.111112 36.977778 2.844444 64-5.688889 64 32.711112z" fill="#404042" p-id="1791"></path><path d="M99.555556 455.111111v256c0 93.866667 76.8 170.666667 170.666666 170.666667h483.555556c93.866667 0 170.666667-76.8 170.666666-170.666667V455.111111H99.555556z m654.222222 369.777778H270.222222c-62.577778 0-113.777778-51.2-113.777778-113.777778V512h711.111112v199.111111c0 62.577778-51.2 113.777778-113.777778 113.777778zM241.777778 241.777778v28.444444c0 46.933333 38.4 85.333333 85.333333 85.333334s85.333333-38.4 85.333333-85.333334v-28.444444c0-46.933333-38.4-85.333333-85.333333-85.333334s-85.333333 38.4-85.333333 85.333334z m85.333333 56.888889c-15.644444 0-28.444444-12.8-28.444444-28.444445v-28.444444c0-15.644444 12.8-28.444444 28.444444-28.444445s28.444444 12.8 28.444445 28.444445v28.444444c0 15.644444-12.8 28.444444-28.444445 28.444445z" fill="#404042" p-id="1792"></path></svg>