<?xml version="1.0" standalone="no"?><!DOCTYPE svg PUBLIC "-//W3C//DTD SVG 1.1//EN" "http://www.w3.org/Graphics/SVG/1.1/DTD/svg11.dtd"><svg t="1545419809642" class="icon" style="" viewBox="0 0 1024 1024" version="1.1" xmlns="http://www.w3.org/2000/svg" p-id="1667" xmlns:xlink="http://www.w3.org/1999/xlink" width="200" height="200"><defs><style type="text/css"></style></defs><path d="M642.844444 627.2L406.755556 391.111111c-11.377778-11.377778-11.377778-28.444444 0-39.822222 11.377778-11.377778 28.444444-11.377778 39.822222 0L682.666667 587.377778c11.377778 11.377778 11.377778 28.444444 0 39.822222-9.955556 11.377778-28.444444 11.377778-39.822223 0zM554.666667 672.711111L361.244444 479.288889c-11.377778-11.377778-11.377778-28.444444 0-39.822222 11.377778-11.377778 28.444444-11.377778 39.822223 0l193.422222 193.422222c11.377778 11.377778 11.377778 28.444444 0 39.822222-9.955556 11.377778-28.444444 11.377778-39.822222 0z" fill="#404042" p-id="1668"></path><path d="M411.022222 583.111111l189.155556-189.155555c11.377778-11.377778 28.444444-11.377778 39.822222 0 11.377778 11.377778 11.377778 28.444444 0 39.822222L450.844444 624.355556c-11.377778 11.377778-28.444444 11.377778-39.822222 0-11.377778-11.377778-11.377778-29.866667 0-41.244445z" fill="#404042" p-id="1669"></path><path d="M704.186858 330.226367a38.4 38.4 0 1 0 54.304853-54.306748 38.4 38.4 0 1 0-54.304853 54.306748Z" fill="#404042" p-id="1670"></path><path d="M861.866667 122.311111l-386.844445 69.688889c-34.133333 5.688889-46.933333 48.355556-22.755555 72.533333l317.155555 317.155556c24.177778 24.177778 65.422222 11.377778 72.533334-22.755556l69.688888-386.844444c5.688889-29.866667-19.911111-55.466667-49.777777-49.777778z m-9.955556 59.733333l-65.422222 337.066667-271.644445-271.644444 337.066667-65.422223zM416.711111 574.577778l-258.844444 9.955555c-38.4 0-62.577778 38.4-35.555556 65.422223l139.377778 102.4c8.533333 5.688889 15.644444 12.8 21.333333 21.333333l102.4 139.377778c27.022222 27.022222 65.422222 2.844444 65.422222-35.555556l8.533334-258.844444c-1.422222-24.177778-19.911111-44.088889-42.666667-44.088889z m-12.8 55.466666l-4.266667 216.177778-75.377777-109.511111c-7.111111-9.955556-15.644444-19.911111-27.022223-27.022222l-108.088888-72.533333 214.755555-7.111112z" fill="#404042" p-id="1671"></path></svg>