<?xml version="1.0" standalone="no"?><!DOCTYPE svg PUBLIC "-//W3C//DTD SVG 1.1//EN" "http://www.w3.org/Graphics/SVG/1.1/DTD/svg11.dtd"><svg t="1545420702197" class="icon" style="" viewBox="0 0 1430 1024" version="1.1" xmlns="http://www.w3.org/2000/svg" p-id="14916" xmlns:xlink="http://www.w3.org/1999/xlink" width="279.296875" height="200"><defs><style type="text/css"></style></defs><path d="M1161.06301038 233.80616357c-61.28854453 39.81277442-86.70547266 68.13247148-123.02548506 66.48048896-36.29641201-1.62838301-98.76494443-40.35556846-124.51226836-51.4474497-40.59156622-17.44021318-98.48174678-30.51447363-133.97576748-7.36312148-28.22529815 20.55538037-4.03555693 54.9402126 6.44273086 67.82567519s61.1941456 51.44744971 76.17998584 70.37444795c8.56670801 10.85588349 9.32190029 26.54971612-8.04751436 29.02768945-33.60604043 9.53429766-58.05537891 2.19477656-80.16834286-2.54877275-22.13656347-4.7199498-45.14631768-21.61736895-80.80553584-19.28099356-44.76872109 2.94996885-29.52328448 41.84235263-29.52328448 41.84235264s37.0516043 111.10761211 136.73693847 136.26494297c87.05946885 21.94776562 486.62679727-180.34927207 530.52232765-254.19288252C1373.31914133 239.47010263 1247.50888666 177.61516367 1161.06301038 233.80616357L1161.06301038 233.80616357zM1230.23387093 332.73630547c-45.99590801 33.81843867-166.99181484 97.7737544-303.89395078 154.20075117-45.50031387 18.73819951-85.26588838 31.29326543-112.83039404 23.57614776-30.46727461-8.51950898-62.56293135-27.87130195-73.20641749-52.65103711-4.62555088-10.78508496-2.69037158-16.99181807 12.08307041-10.78508497 18.57300117 7.78791709 34.50283154 9.77029541 55.86060235 12.4134671 24.87413408 3.06796729 48.52108125 0 48.52108125-1e-8 40.23757002-6.01793526 45.94870898-15.81183106 55.29420879-27.06891064 10.9030834-13.16865937 12.95626114-31.50566279 6.06513516-55.71900439-7.57551885-26.64411503-42.40874619-51.42385019-42.4087462-51.4238502s-54.30301963-32.37885352-32.87444853-44.4147249c18.19540547-10.21869052 58.8813706 14.60824365 84.62869541 30.3492753 16.75582119 10.21869052 67.61327695 32.7564501 92.93580615 36.22561259 46.58590195 6.37193145 87.50786484-14.91504083 143.46286611-59.16456738C1203.04696185 257.2879124 1326.00164749 262.36185752 1230.23387093 332.73630547L1230.23387093 332.73630547zM1117.28547845 538.52610518c-14.58464414 0-26.38451778 11.84707354-26.38451778 26.45531719-25.88892363 194.17872393-195.31151192 344.10792129-396.14536494 344.10792128-149.99999589 0-280.53020039-83.56670684-347.78948203-206.80458925 178.43769229-38.49118857 279.27941396-92.7470083 293.46286201-110.84801485 8.11831289-8.23631221 8.09471338-56.23819893-51.32945126-26.47891669-78.35116201 39.26998037-178.72088906 71.3420376-264.12837628 89.74984042-17.01541846-44.27312695-26.38451778-92.39301211-26.38451777-142.68407432 0-219.28885576 177.39930323-397.06575469 396.14536494-397.06575469 89.01824854 0 180.4672705 31.95405878 247.46695401 86.61107374 0 0 11.61107578 9.88829385 23.64694716 9.58149756 14.67904307-0.3775957 24.37853906-10.76148457 24.37853906-25.44052764 0-6.63152871-2.43077432-12.67306435-6.44273086-17.32221475 0.16519834-0.14159883-1.41598477-1.60478261-2.24197646-2.28917548-0.63719297-0.58999395-1.29798633-1.13278799-1.9823792-1.65198252-77.5487707-63.9081167-176.62051143-102.4465043-284.82535458-102.4465043-247.96254903 0-448.9851999 201.47104599-448.98519991 450.02358896 0 53.57142685 9.3691002 104.94807803 26.50251621 152.59596856-19.23379453 3.04436778-37.07520381 5.14474541-52.88703486 6.2303335-61.07614717 4.15355537-106.08086602-2.83196953-52.83983496-79.41315059 32.92164844-47.34109424 42.69194385-66.66928682 26.43171767-79.41315058-17.32221474-9.32190029-31.62366211 6.39553183-31.62366211 6.39553183s-62.16173526 74.0324083-74.03240829 125.928254c-5.19194443 25.3225292-23.69414708 87.57866338 105.6560704 79.41315059 34.66802901-2.17117705 67.99087266-6.11233506 99.75613359-11.25707959 73.56041367 147.89961914 225.94398398 249.49653222 402.02170138 249.49653223 224.41000078 0 413.82157588-163.59345088 447.12082002-379.20074591 1.84078037-11.63467529 1.84078037-11.63467529 1.84078037-17.86500878C1143.69359661 550.37317871 1131.89372298 538.52610518 1117.28547845 538.52610518L1117.28547845 538.52610518z" p-id="14917"></path></svg>