<?xml version="1.0" standalone="no"?><!DOCTYPE svg PUBLIC "-//W3C//DTD SVG 1.1//EN" "http://www.w3.org/Graphics/SVG/1.1/DTD/svg11.dtd"><svg t="1545420710143" class="icon" style="" viewBox="0 0 1024 1024" version="1.1" xmlns="http://www.w3.org/2000/svg" p-id="15033" xmlns:xlink="http://www.w3.org/1999/xlink" width="200" height="200"><defs><style type="text/css"></style></defs><path d="M723.738425 666.073074c-5.722328 0-10.819416-0.930185-15.618723-2.237971-35.268248 44.352137-83.747379 75.838246-139.733485 89.62832-20.361747 5.02034-41.197284 7.54893-61.96119 7.54893-33.393551 0-65.310472-6.776334-94.871741-18.520819-7.324826 6.16235-16.844643 10.17371-28.436656 11.253298-2.862187 1.932002-5.886057 3.677762-9.259898 5.046946 39.948851 20.751626 85.017302 32.609699 132.568295 32.609699 23.214724 0 46.50415-2.851954 69.243037-8.436136 71.266114-17.545608 131.571594-60.766992 171.553191-121.720226C740.517577 664.290475 732.700541 666.073074 723.738425 666.073074zM933.09971 421.904029c-14.419408-58.304917-92.328825-92.901877-202.596208-99.30982C677.18618 256.920464 596.028788 216.340233 506.842537 216.340233c-23.214724 0-46.51029 2.825348-69.249177 8.417717-74.726935 18.398022-137.801483 64.726164-177.601954 130.444934-17.433044 28.795836-29.485545 59.795874-35.978423 91.808986-94.77248 56.908104-147.552567 123.830283-133.11474 182.187389 24.299429 98.231255 228.29552 129.646755 464.423425 71.519894C791.463899 642.6015 957.398116 520.100492 933.09971 421.904029zM226.871077 572.721967c3.142573 12.710486 7.312546 24.911366 12.009522 36.778648 7.489578-4.213975 16.392342-6.933923 27.107381-6.933923 1.033539 0 1.902326 0.24457 2.90619 0.271176-4.999874-11.980869-9.274224-24.419156-12.476149-37.383422-16.489556-66.674539-5.966898-135.755894 29.626761-194.530508 35.601846-58.802244 92.0116-100.215446 158.846798-116.67328 20.352537-5.02034 41.197284-7.55814 61.951981-7.55814 118.718869 0 221.517139 80.421634 250.008031 195.576327 4.089132 16.536628 6.510274 33.206286 7.29822 49.847292 7.445576-6.670933 17.238616-11.129478 29.366841-12.298094-1.293459-14.97404-3.432169-29.966499-7.119141-44.845371-3.692089-14.921851-8.513908-29.314653-14.337543-43.113937 32.532951 8.882298 52.900837 22.689768 57.139372 39.824007 12.247952 49.513694-105.890702 137.142473-294.980291 183.662996-189.104939 46.557362-334.529029 23.848151-346.775958-25.665543-4.256954-17.188474 7.264451-38.974663 31.978319-62.044078C220.706681 542.698163 223.169779 557.7643 226.871077 572.721967zM548.039821 671.216211c-234.218416 57.668421-410.185126 21.066805-427.588495-49.250704-9.378601-37.919634 26.656103-88.494497 98.470709-136.131447-0.056282 0.911766-0.12689 1.822508-0.174985 2.735297-48.093345 38.308491-68.555375 77.261665-60.858066 108.360963 16.087397 65.043389 156.0061 103.954607 383.627261 47.917336 227.596602-56.036247 333.324598-155.382906 317.229015-220.432435-7.673773-31.05939-43.916209-55.921637-104.275925-67.433832-0.500397-0.843204-1.014096-1.677199-1.52268-2.515287 85.732593 8.79941 141.237745 36.805254 150.60816 74.68805C920.958182 499.515664 782.251074 613.565187 548.039821 671.216211zM133.775796 238.169401c33.565467 0 60.875462 27.229155 60.875462 60.7322 0 8.374738 6.814196 15.159258 15.219633 15.159258 8.402367 0 15.217586-6.78452 15.217586-15.159258 0-33.503045 27.307949-60.7322 60.875462-60.7322 8.404414 0 15.217586-6.80294 15.217586-15.19405 0-8.373715-6.813173-15.176654-15.217586-15.176654-33.567513 0-60.875462-27.237341-60.875462-60.7322 0-8.373715-6.815219-15.168468-15.217586-15.168468-8.404414 0-15.219633 6.794753-15.219633 15.168468 0 33.494858-27.308973 60.7322-60.875462 60.7322-8.404414 0-15.21861 6.80294-15.21861 15.176654C118.557186 231.366462 125.370359 238.169401 133.775796 238.169401zM209.868845 197.371206c6.759961 10.146081 15.501042 18.86772 25.669636 25.612331-10.168594 6.744611-18.909675 15.465227-25.669636 25.610284-6.759961-10.146081-15.501042-18.866696-25.669636-25.610284C194.367803 216.238926 203.108884 207.517287 209.868845 197.371206zM864.274182 761.951749c-29.367865 0-53.267181-23.839965-53.267181-53.139268 0-8.40953-6.80601-15.167444-15.217586-15.167444-8.411577 0-15.217586 6.758937-15.217586 15.167444 0 29.299303-23.898293 53.139268-53.265134 53.139268-8.413624 0-15.219633 6.794753-15.219633 15.167444 0 8.391111 6.807033 15.21247 15.219633 15.21247 29.366841 0 53.265134 23.804149 53.265134 53.121871 0 8.365528 6.80601 15.176654 15.217586 15.176654 8.411577 0 15.217586-6.811126 15.217586-15.176654 0-29.317723 23.899316-53.121871 53.267181-53.121871 8.410554 0 15.217586-6.820336 15.217586-15.21247C879.491769 768.745479 872.683712 761.951749 864.274182 761.951749zM795.789415 797.537222c-5.585205-7.92039-12.509918-14.82873-20.448728-20.400632 7.938809-5.575995 14.863523-12.487406 20.448728-20.409842 5.585205 7.922437 12.509918 14.833847 20.448728 20.409842C808.299333 782.708492 801.37462 789.616832 795.789415 797.537222z" p-id="15034"></path></svg>