<?xml version="1.0" standalone="no"?><!DOCTYPE svg PUBLIC "-//W3C//DTD SVG 1.1//EN" "http://www.w3.org/Graphics/SVG/1.1/DTD/svg11.dtd"><svg t="1545420746755" class="icon" style="" viewBox="0 0 1024 1024" version="1.1" xmlns="http://www.w3.org/2000/svg" p-id="15801" xmlns:xlink="http://www.w3.org/1999/xlink" width="200" height="200"><defs><style type="text/css"></style></defs><path d="M475.9 283.1c196.3 0 355.4 159.1 355.4 355.4 0 196.3-159.1 355.4-355.4 355.4S120.5 834.8 120.5 638.5c0-196.3 159.1-355.4 355.4-355.4z" fill="#FFFFFF" p-id="15802"></path><path d="M475.9 1023.5c-212.3 0-385-172.7-385-385s172.7-385 385-385 385 172.7 385 385-172.7 385-385 385z m0-710.9C296.2 312.6 150 458.8 150 638.5s146.2 325.9 325.9 325.9 325.9-146.2 325.9-325.9-146.2-325.9-325.9-325.9z" fill="#A8B2BD" p-id="15803"></path><path d="M595.7 877.3c-5.8 0-13.1-1.8-20.5-8.4-29.1-25.9-27.6-64.9-26.1-102.5 1.1-28.2 2.2-54.8-9-74.1-13.7-23.6-38.6-38.7-65-54.7-21.6-13.1-43.9-26.6-61.4-45.8-4.6-5-7.2-9.9-8.7-14.5-12.6 6.4-30 9.7-52.5 10.2-7.9-0.1-14.9-2.5-20.3-7.7-11.8-11.4-12.1-31.1-12.4-52-0.1-8.5-0.5-34.5-5.1-35.4-17.4-3.4-42.5 37.5-54.6 57.1-12.8 20.7-20.5 33.4-34.8 27.9-15.3-5.8-16.2-14.1 3.4-127l29.1 5c-2 11.7-6.2 35.7-9.5 57.7 18.4-27.4 42.6-55.6 72.2-49.7 28.2 5.5 28.6 37.9 29 64 0.2 10.3 0.4 27.5 3.4 31.2 34.8-1.4 43.5-9.9 45.6-13.4 5.9-10.1-6.9-33.5-15.3-49-10.9-20-20.3-37.2-8.6-50.3 11.9-13.4 34.2-10 95.3 14.7 13.4 5.4 31.4 14.6 33.2 31.9 2 19.7-17.7 32.9-38.6 47-11.5 7.7-30.7 20.5-31.5 27.7-0.2 1.4 1.8 3.8 2.6 4.7 14.6 16 34.2 27.9 54.9 40.5 28.4 17.2 57.7 35 75.2 65.1 15.6 26.8 14.3 59 13 90.2-1.3 32.2-2.5 62.6 16.2 79.3 7.2-0.6 21-24 28.4-36.6 8.6-14.6 17.5-29.7 27.2-39.5l21 20.8c-7.2 7.2-15.1 20.7-22.8 33.7-14.7 25-28.6 48.6-48.7 51.8-1.2 0-2.7 0.1-4.3 0.1zM402.1 468.8c2.1 4.3 4.9 9.4 7 13.3 7.7 14.2 16.6 30.5 19.5 46.5 6.1-4.7 12.8-9.2 19.4-13.7 8.1-5.4 21.1-14.2 24.9-19.2-1.7-1.5-5.6-4.2-14.1-7.6-31.2-12.6-47.9-17.5-56.7-19.3z" fill="#A8B2BD" p-id="15804"></path><path d="M673.7 686.6c6 9.1 15.7 9.1 21.6 0 0 0 213.3-318.4 213.3-442.2 0-123.7-100.3-224.1-224.1-224.1-123.7 0-224.1 100.3-224.1 224.1 0.1 123.8 213.3 442.2 213.3 442.2z" fill="#FFFFFF" p-id="15805"></path><path d="M684.6 713.1c-10.8 0-20.7-5.7-27.3-15.7-8.7-13-216.5-324.7-216.5-453C440.8 110 550.1 0.7 684.5 0.7S928.3 110 928.3 244.5c0 128.3-207.8 439.9-216.6 453.1-6.4 9.8-16.3 15.5-27.1 15.5z m-0.1-673c-112.7 0-204.4 91.7-204.4 204.4 0 93.7 142.5 329.2 204.4 422.8 62.1-94 204.4-329.3 204.4-422.8 0-112.7-91.7-204.4-204.4-204.4z" fill="#A8B2BD" p-id="15806"></path><path d="M692.3 159.5c42.7 0 77.3 34.6 77.3 77.3 0 42.7-34.6 77.3-77.3 77.3S615 279.4 615 236.7c0-42.6 34.6-77.2 77.3-77.2z" fill="#FFFFFF" p-id="15807"></path><path d="M692.3 333.7c-53.5 0-97-43.5-97-97s43.5-97 97-97 97 43.5 97 97-43.6 97-97 97z m0-154.5c-31.7 0-57.6 25.8-57.6 57.6s25.8 57.6 57.6 57.6 57.6-25.8 57.6-57.6-25.9-57.6-57.6-57.6z" fill="#A8B2BD" p-id="15808"></path></svg>