<?xml version="1.0" standalone="no"?><!DOCTYPE svg PUBLIC "-//W3C//DTD SVG 1.1//EN" "http://www.w3.org/Graphics/SVG/1.1/DTD/svg11.dtd"><svg t="1545420685519" class="icon" style="" viewBox="0 0 1024 1024" version="1.1" xmlns="http://www.w3.org/2000/svg" p-id="14799" xmlns:xlink="http://www.w3.org/1999/xlink" width="200" height="200"><defs><style type="text/css"></style></defs><path d="M984.840852 487.965193v-9.14495-11.48981-12.896726-6.096633a476.006412 476.006412 0 0 0-351.728876-398.62606l-5.627662-1.641401a477.647813 477.647813 0 0 0-112.084268-13.365697A471.082207 471.082207 0 0 0 331.328601 70.345775l-11.958782 5.862148A476.944355 476.944355 0 0 0 55.807648 371.425693l-1.641401 4.689718a474.130524 474.130524 0 0 0 131.312113 480.227158l3.282803 3.048317 2.813831 2.813831 7.972521 7.269064 28.138311 25.089993V891.046485A474.599496 474.599496 0 0 0 984.840852 510.00687v-22.041677zM653.043279 97.07717a440.130066 440.130066 0 0 1 290.05908 354.542706v5.627662l1.406915 11.958782v13.600183a57.44905 57.44905 0 0 1 0 6.33112v15.945042l-74.566522 26.965881a9.144951 9.144951 0 0 1-9.379436-2.110373l-68.000916-68.000916a46.897183 46.897183 0 0 0-43.848867-11.958782l-87.932219 21.80719a43.614381 43.614381 0 0 0-32.828028 42.207465v117.242959a5.862148 5.862148 0 0 1-3.282803 5.15869l-119.822303 46.897183a9.144951 9.144951 0 0 1-9.613923-1.875887l-123.808564-123.808564a9.613923 9.613923 0 0 1-1.406916-11.48981l107.39455-187.588734a18.055416 18.055416 0 0 1 3.986261-4.455232L633.111976 231.203114zM293.576368 130.843142v74.566521a3.282803 3.282803 0 0 1-2.110373 3.048317l-59.324937 19.696817a50.883444 50.883444 0 0 0-33.531486 36.110832l-20.869247 83.2425a6.096634 6.096634 0 0 1-6.33112 4.455233l-65.42157-7.738036a440.130066 440.130066 0 0 1 187.588733-213.382184zM99.422029 648.353561l56.042134-6.33112a7.269063 7.269063 0 0 1 6.096634 2.110373l41.972979 41.972979a11.48981 11.48981 0 0 1 3.282803 8.910465l-9.848409 119.118846a433.798947 433.798947 0 0 1-97.546141-165.781543z m410.584841 298.735058a434.971376 434.971376 0 0 1-278.100298-100.125486l12.427754-148.664072a49.007557 49.007557 0 0 0-14.069155-38.690176L187.588734 617.635906a45.255782 45.255782 0 0 0-37.048775-13.131212l-66.359515 7.50355a443.178383 443.178383 0 0 1-11.958782-102.001374 437.785207 437.785207 0 0 1 19.462332-129.436227l74.566521 8.910465h5.15869a43.848866 43.848866 0 0 0 42.207465-33.062514l20.869247-83.008015a14.069155 14.069155 0 0 1 8.910465-9.613922l59.090451-19.696817a40.80055 40.80055 0 0 0 28.13831-38.690177v-93.794366a438.019693 438.019693 0 0 1 286.072819-25.558965L598.877032 211.037325l-140.69155 112.787727a50.648958 50.648958 0 0 0-12.896725 15.241584l-107.629036 187.588734a46.897183 46.897183 0 0 0 7.738035 56.980078l123.574078 124.277536a46.897183 46.897183 0 0 0 33.062515 13.834669 44.78681 44.78681 0 0 0 17.117471-3.517289l119.822304-46.897183a43.145409 43.145409 0 0 0 27.200366-40.097092v-117.242959a5.862148 5.862148 0 0 1 4.220747-5.627662l87.932219-22.041676a8.675979 8.675979 0 0 1 8.207007 2.344859l67.76643 68.000916a46.897183 46.897183 0 0 0 48.538585 11.020838l63.311198-22.276162a437.785207 437.785207 0 0 1-436.143806 401.674376z" p-id="14800"></path></svg>