<?xml version="1.0" standalone="no"?><!DOCTYPE svg PUBLIC "-//W3C//DTD SVG 1.1//EN" "http://www.w3.org/Graphics/SVG/1.1/DTD/svg11.dtd"><svg t="1545420616252" class="icon" style="" viewBox="0 0 1970 1024" version="1.1" xmlns="http://www.w3.org/2000/svg" p-id="14079" xmlns:xlink="http://www.w3.org/1999/xlink" width="384.765625" height="200"><defs><style type="text/css"></style></defs><path d="M163.84 860.16h1310.72V163.84H163.84v696.32zM1875.968 339.968V172.032c-4.096-98.304-81.92-172.032-180.224-172.032h-1515.52C81.92 0 4.096 73.728 0 172.032v684.032C4.096 950.272 81.92 1024 180.224 1024h1519.616c98.304 0 176.128-73.728 180.224-172.032v-172.032c49.152 0 90.112-36.864 90.112-86.016v-172.032c-4.096-45.056-45.056-81.92-94.208-81.92z m-90.112 86.016v425.984c0 49.152-40.96 86.016-90.112 86.016h-1515.52c-49.152 0-90.112-36.864-90.112-86.016V172.032c0-49.152 40.96-86.016 90.112-86.016h1519.616c49.152 0 90.112 36.864 90.112 86.016v253.952z" p-id="14080"></path></svg>