<?xml version="1.0" standalone="no"?><!DOCTYPE svg PUBLIC "-//W3C//DTD SVG 1.1//EN" "http://www.w3.org/Graphics/SVG/1.1/DTD/svg11.dtd"><svg t="1545421257899" class="icon" style="" viewBox="0 0 1024 1024" version="1.1" xmlns="http://www.w3.org/2000/svg" p-id="5705" xmlns:xlink="http://www.w3.org/1999/xlink" width="200" height="200"><defs><style type="text/css"></style></defs><path d="M512 64C264.704 64 64 264.704 64 512s200.704 448 448 448 448-200.704 448-448-200.704-448-448-448z m0-64c282.688 0 512 229.312 512 512s-229.312 512-512 512-512-229.312-512-512 229.312-512 512-512zM342.4 583.872h113.024l-14.08 217.28c-3.712 57.728 67.52 89.152 99.584 36.48a734100.48 734100.48 0 0 0 149.824-246.848l36.352-59.776c22.656-37.44-0.192-90.88-45.44-90.88H568.64l14.016-217.344c3.712-57.792-67.584-89.024-99.584-36.352L296.96 492.992c-22.72 37.376 0.128 90.88 45.44 90.88z m147.136-64H355.52L516.48 254.72l-13.952 215.232a32 32 0 0 0 32 34.048l133.952 0.064-32.448 53.44a1776156.288 1776156.288 0 0 1-128.448 211.648l13.888-215.296a32 32 0 0 0-31.936-34.048z" p-id="5706"></path></svg>