<?xml version="1.0" standalone="no"?><!DOCTYPE svg PUBLIC "-//W3C//DTD SVG 1.1//EN" "http://www.w3.org/Graphics/SVG/1.1/DTD/svg11.dtd"><svg t="1545420840293" class="icon" style="" viewBox="0 0 1024 1024" version="1.1" xmlns="http://www.w3.org/2000/svg" p-id="17891" xmlns:xlink="http://www.w3.org/1999/xlink" width="200" height="200"><defs><style type="text/css"></style></defs><path d="M990.66311111 750.51614815l-0.11377778-0.11377778c-19.91111111-19.456-45.96622222-30.37866667-73.728-30.94755555v-0.56888889c-17.74933333 0.11377778-35.15733333 4.66488889-50.63111111 12.97066667-15.36-8.41955555-32.768-12.97066667-50.40355555-12.97066667h-0.11377778c-28.78577778 0-56.88888889 11.83288889-76.91377778 32.54044444-20.13866667 20.70755555-31.17511111 49.03822222-30.26488889 77.93777778l0.11377778 1.13777778c2.048 29.01333333 12.51555555 56.66133333 30.15111111 79.75822222 10.58133333 14.90488889 22.41422222 29.12711111 35.04355556 42.32533333 9.89866667 10.92266667 21.61777778 22.41422222 36.63644444 36.06755555 5.57511111 5.46133333 11.49155555 10.80888889 17.63555556 15.70133334 10.69511111 8.87466667 24.12088889 13.76711111 38.00177778 13.76711111h1.024c13.76711111 0 27.07911111-4.89244445 37.66044444-13.88088888 6.03022222-4.89244445 11.94666667-10.12622222 17.52177778-15.58755557 13.99466667-12.74311111 26.16888889-24.46222222 36.97777778-35.84l0.34133333-0.34133333c12.288-13.312 23.77955555-27.648 34.36088889-42.32533333 17.74933333-23.66577778 27.53422222-51.76888889 28.44444444-81.35111111 0.34133333-29.24088889-11.03644445-57.79911111-31.744-78.27911111z m-23.32444444 76.57244445c-0.56888889 18.31822222-6.71288889 35.84-17.74933334 50.51733333l-0.34133333 0.4551111c-9.216 12.97066667-19.456 25.48622222-30.15111111 37.20533334-10.01244445 10.46755555-21.16266667 21.27644445-34.36088889 33.22311111l-0.91022222 0.79644445c-4.43733333 4.43733333-9.216 8.64711111-14.10844445 12.62933333l-0.79644444 0.68266667c-0.68266667 0.56888889-1.47911111 0.91022222-2.27555556 0.79644444h-0.91022222c-1.13777778 0-2.16177778-0.34133333-2.95822222-1.13777777l-0.45511111-0.45511112c-4.89244445-3.98222222-9.67111111-8.192-14.22222223-12.62933333l-0.91022222-0.79644445c-13.99466667-12.62933333-24.576-23.09688889-33.45066666-32.88177777l-0.56888889-0.5688889c-11.03644445-11.49155555-21.27644445-23.89333333-30.49244445-36.97777777l-0.56888888-0.79644444c-11.15022222-14.56355555-17.86311111-31.85777778-19.34222223-50.176-0.22755555-13.99466667 5.12-27.648 14.90488889-37.66044445 9.89866667-10.12622222 23.66577778-15.92888889 37.77422222-15.92888889 12.06044445 0.11377778 23.66577778 4.32355555 32.88177778 12.17422222l17.408 14.67733333 17.52177778-14.44977777c8.64711111-7.168 19.34222222-11.37777778 30.37866666-12.17422223v0.45511112c14.44977778-0.11377778 28.10311111 5.23377778 38.4568889 15.36 10.12622222 9.89866667 15.70133333 23.552 15.24622222 37.66044445zM746.04088889 657.67348148c8.53333333-12.40177778 5.34755555-29.46844445-7.168-38.00177778-40.50488889-27.76177778-86.35733333-46.64888889-136.98844444-56.7751111 109.90933333-41.64266667 187.96088889-147.91111111 187.96088888-272.384 0-160.768-130.38933333-291.15733333-291.15733333-291.15733334s-291.15733333 130.50311111-291.15733333 291.27111111c0 126.976 81.23733333 234.95111111 194.56 274.77333333-51.65511111 10.69511111-99.328 29.24088889-142.67733334 55.52355556-58.02666667 35.27111111-107.97511111 84.30933333-148.36622222 145.74933334-68.15288889 103.65155555-85.44711111 206.16533333-86.12977778 210.48888888l-1.47911111 9.44355555c-2.27555555 14.90488889 7.96444445 28.89955555 22.86933333 31.17511112 1.36533333 0.22755555 2.84444445 0.34133333 4.20977778 0.34133333 13.19822222 0 24.91733333-9.67111111 26.96533334-23.21066666l1.36533333-9.10222222c0.56888889-3.29955555 16.83911111-96.36977778 77.824-189.21244445C238.47822222 672.23703703 358.17244445 609.09037037 512.34133333 609.09037037c75.88977778 0 141.76711111 18.77333333 195.81155556 55.63733333 12.40177778 8.64711111 29.35466667 5.46133333 37.888-7.05422222zM262.144 290.62637037c0-63.14666667 24.576-122.53866667 69.29066667-167.25333334s104.10666667-69.29066667 167.25333333-69.29066666 122.53866667 24.576 167.25333333 69.29066666 69.29066667 104.10666667 69.29066667 167.25333334-24.576 122.53866667-69.29066667 167.25333333-104.10666667 69.29066667-167.25333333 69.29066667-122.53866667-24.576-167.25333333-69.29066667-69.29066667-103.99288889-69.29066667-167.25333333z" p-id="17892"></path></svg>