<?xml version="1.0" standalone="no"?><!DOCTYPE svg PUBLIC "-//W3C//DTD SVG 1.1//EN" "http://www.w3.org/Graphics/SVG/1.1/DTD/svg11.dtd"><svg t="1545420823921" class="icon" style="" viewBox="0 0 1047 1024" version="1.1" xmlns="http://www.w3.org/2000/svg" p-id="17645" xmlns:xlink="http://www.w3.org/1999/xlink" width="204.4921875" height="200"><defs><style type="text/css"></style></defs><path d="M759.106331 292.305842a291.693637 291.693637 0 1 0-428.754502 256.901263A468.115571 468.115571 0 0 0 0 995.884951a27.763611 27.763611 0 1 0 55.527222 0 411.885472 411.885472 0 0 1 409.776844-411.534035 26.006421 26.006421 0 0 0 6.325886 0A291.693637 291.693637 0 0 0 759.106331 292.305842zM467.412695 527.76938A235.814976 235.814976 0 1 1 702.876233 292.305842a236.166414 236.166414 0 0 1-235.463538 235.463538zM1000.192879 618.440414a161.310095 161.310095 0 0 0-206.294174-15.814715 163.418724 163.418724 0 0 0-206.294174 15.814715 156.389962 156.389962 0 0 0-46.389832 111.405883 163.067286 163.067286 0 0 0 49.201336 116.326016l182.747821 169.393172a29.169364 29.169364 0 0 0 20.031973 7.731639 29.520802 29.520802 0 0 0 19.680534-7.731639L1000.192879 844.063684a159.201467 159.201467 0 0 0 0-225.62327z m-40.766821 182.74782l-165.878791 153.227019-164.473039-152.172704a100.511301 100.511301 0 0 1 70.287624-171.501801 101.214178 101.214178 0 0 1 73.099128 31.62943 27.412173 27.412173 0 0 0 19.329096 7.380201 35.143812 35.143812 0 0 0 23.897792-9.840268 100.511301 100.511301 0 0 1 171.853239 70.287624 98.402673 98.402673 0 0 1-27.763611 71.341937z" p-id="17646"></path></svg>