<?xml version="1.0" standalone="no"?><!DOCTYPE svg PUBLIC "-//W3C//DTD SVG 1.1//EN" "http://www.w3.org/Graphics/SVG/1.1/DTD/svg11.dtd"><svg t="1545421243091" class="icon" style="" viewBox="0 0 1024 1024" version="1.1" xmlns="http://www.w3.org/2000/svg" p-id="5582" xmlns:xlink="http://www.w3.org/1999/xlink" width="200" height="200"><defs><style type="text/css"></style></defs><path d="M399.04 36.896L197.408 581.856a32 32 0 0 0 30.016 43.136h132.448a32 32 0 0 1 29.792 43.648l-112 286.112a32 32 0 0 0 54.496 32.064l434.816-526.112a32 32 0 0 0-24.64-52.416H619.84a32 32 0 0 1-25.856-50.848l212-290.56A32 32 0 0 0 780.16 16H429.024a32 32 0 0 0-29.984 20.896z" p-id="5583"></path></svg>