<?xml version="1.0" standalone="no"?><!DOCTYPE svg PUBLIC "-//W3C//DTD SVG 1.1//EN" "http://www.w3.org/Graphics/SVG/1.1/DTD/svg11.dtd"><svg t="1545421298704" class="icon" style="" viewBox="0 0 1024 1024" version="1.1" xmlns="http://www.w3.org/2000/svg" p-id="6673" xmlns:xlink="http://www.w3.org/1999/xlink" width="200" height="200"><defs><style type="text/css"></style></defs><path d="M916.504754 957.420629 106.820887 957.420629c-23.131837 0-41.877783-18.759249-41.877783-41.879829 0-23.12058 18.745946-41.879829 41.877783-41.879829l809.683866 0c23.134907 0 41.87676 18.759249 41.87676 41.879829C958.382537 938.66138 939.63966 957.420629 916.504754 957.420629zM874.622878 789.903358 762.945379 789.903358c-30.837332 0-55.839773-25.00244-55.839773-55.842843L707.105606 287.340287c0-30.837332 25.00244-55.839773 55.839773-55.839773l111.677499 0c30.840402 0 55.839773 25.00244 55.839773 55.839773l0 446.720228C930.46265 764.900917 905.46328 789.903358 874.622878 789.903358zM846.701968 315.26222l-55.839773 0 0 390.877385 55.839773 0L846.701968 315.26222zM567.505152 789.903358 455.824583 789.903358c-30.840402 0-55.842843-25.00244-55.842843-55.842843L399.98174 119.819946c0-30.837332 25.00244-55.839773 55.842843-55.839773l111.680569 0c30.835286 0 55.839773 25.00244 55.839773 55.839773l0 614.240569C623.344924 764.900917 598.339414 789.903358 567.505152 789.903358zM539.584242 147.739832l-55.839773 0 0 558.400796 55.839773 0L539.584242 147.739832zM260.381285 789.903358 148.70174 789.903358c-30.835286 0-55.839773-25.00244-55.839773-55.842843L92.861968 454.860628c0-30.837332 25.00551-55.839773 55.839773-55.839773l111.680569 0c30.840402 0 55.839773 25.00244 55.839773 55.839773l0 279.20091C316.221058 764.900917 291.221688 789.903358 260.381285 789.903358zM232.464469 482.782561l-55.839773 0 0 223.357044 55.839773 0L232.464469 482.782561z" p-id="6674"></path></svg>