<?xml version="1.0" standalone="no"?><!DOCTYPE svg PUBLIC "-//W3C//DTD SVG 1.1//EN" "http://www.w3.org/Graphics/SVG/1.1/DTD/svg11.dtd"><svg t="1545421313455" class="icon" style="" viewBox="0 0 1024 1024" version="1.1" xmlns="http://www.w3.org/2000/svg" p-id="6919" xmlns:xlink="http://www.w3.org/1999/xlink" width="200" height="200"><defs><style type="text/css"></style></defs><path d="M958.57664 341.05344V84.21376H89.2928v256.83968l434.64704 612.38272 434.6368-612.38272z m-256.83968-19.7632l192.60416-127.81568 0.16384 128.02048-192.768-0.2048z m-59.25888 0H405.4016l118.53824-177.80736 118.53824 177.80736zM163.51232 143.48288h301.1584l-87.8592 143.50336-213.2992-143.50336z m502.36416 143.52384l-87.84896-143.50336h309.38112M642.47808 380.5696L523.93984 854.66112 405.4016 380.5696h237.07648z m-296.3456-59.27936l-192.77824-1.31072V193.78176l192.77824 127.50848z m0 59.27936l98.77504 375.30624-256.83968-375.30624h158.06464z m355.60448 0h158.06464L602.96192 755.87584l98.77504-375.30624z" p-id="6920"></path></svg>