<?xml version="1.0" standalone="no"?><!DOCTYPE svg PUBLIC "-//W3C//DTD SVG 1.1//EN" "http://www.w3.org/Graphics/SVG/1.1/DTD/svg11.dtd"><svg t="1545421101118" class="icon" style="" viewBox="0 0 1024 1024" version="1.1" xmlns="http://www.w3.org/2000/svg" p-id="2321" xmlns:xlink="http://www.w3.org/1999/xlink" width="200" height="200"><defs><style type="text/css"></style></defs><path d="M704 505.6c-25.6 0-51.2-25.6-51.2-51.2 0-32 25.6-51.2 51.2-51.2s51.2 25.6 51.2 51.2c0 32-25.6 51.2-51.2 51.2z m-204.8 0c-25.6 0-51.2-25.6-51.2-51.2 0-32 25.6-51.2 51.2-51.2s51.2 25.6 51.2 51.2c0 32-25.6 51.2-51.2 51.2z m-211.2 0c-25.6 0-51.2-25.6-51.2-51.2 0-32 25.6-51.2 51.2-51.2s51.2 25.6 51.2 51.2c0 32-19.2 51.2-51.2 51.2z m192 454.4c-6.4 0-19.2-6.4-25.6-12.8l-102.4-102.4c-12.8-12.8-12.8-38.4 0-51.2 12.8-12.8 38.4-12.8 51.2 0l76.8 76.8 76.8-76.8c6.4-6.4 12.8-12.8 25.6-12.8h243.2c19.2 0 32-12.8 32-32V192c0-19.2-12.8-32-32-32H134.4c-19.2 0-32 12.8-32 32v556.8c0 19.2 12.8 32 32 32h102.4c19.2 0 32 12.8 32 32s-12.8 44.8-32 44.8H134.4c-57.6 0-102.4-44.8-102.4-102.4V192c0-57.6 44.8-102.4 102.4-102.4h691.2c57.6 0 102.4 44.8 102.4 102.4v556.8c0 57.6-44.8 102.4-102.4 102.4H595.2l-96 96c0 12.8-12.8 12.8-19.2 12.8z" p-id="2322"></path></svg>