<?xml version="1.0" standalone="no"?><!DOCTYPE svg PUBLIC "-//W3C//DTD SVG 1.1//EN" "http://www.w3.org/Graphics/SVG/1.1/DTD/svg11.dtd"><svg t="1545420424783" class="icon" style="" viewBox="0 0 1024 1024" version="1.1" xmlns="http://www.w3.org/2000/svg" p-id="10178" xmlns:xlink="http://www.w3.org/1999/xlink" width="200" height="200"><defs><style type="text/css"></style></defs><path d="M204.619 1h614.78v80.728h-614.78zM827.817 635.832c-37.45 0-72.83-13.372-99.622-37.653a141.108 141.108 0 0 1-5.724-5.486c-26.119 26.5-63.615 43.14-105.206 43.14-41.624 0-79.148-16.672-105.269-43.215-26.121 26.543-63.646 43.215-105.271 43.215-37.452 0-72.833-13.372-99.625-37.653a141.273 141.273 0 0 1-5.647-5.409 140.57 140.57 0 0 1-5.647 5.409c-26.793 24.281-62.175 37.653-99.628 37.653-38.19 0-73.801-16.968-100.273-47.778-23.689-27.572-37.276-63.539-37.276-98.679v-6.644l2.282-6.24c2.397-6.553 58.967-201.369 81.049-246.787 22.045-45.329 58.063-71.323 98.823-71.323h542.452c54.299 0 92.94 61.327 97.168 68.32 2.612 4.323 5.86 17.698 45.173 119.478 18.881 48.885 37.186 129.394 37.368 129.875l2.445 6.436v6.885c0 35.14-13.592 71.108-37.291 98.683-26.479 30.806-62.092 47.773-100.281 47.773z m-67.768-132.903c0 31.928 30.4 57.903 67.769 57.903 33.654 0 59.314-33.315 62.283-65.325-32.05-84.245-67.918-217.126-74.432-230.897-8.635-13.791-25.653-30.13-32.633-31.228H240.782c-16.382 0-29.009 24.258-31.375 29.121-17.939 36.899-64.141 201.942-75.51 232.81 2.883 32.068 28.569 65.519 62.28 65.519 37.372 0 67.775-25.976 67.775-57.903h75c0 31.928 30.402 57.903 67.772 57.903s67.772-25.976 67.772-57.903h75c0 31.928 30.4 57.903 67.768 57.903 37.376 0 67.783-25.976 67.783-57.903h75.002zM601.081 984.503l-0.008-140.494c0-20.647-7.151-36.186-21.862-47.505-15.688-12.071-39.559-18.719-67.213-18.719-27.652 0-51.519 6.647-67.205 18.718-14.71 11.319-21.86 26.857-21.86 47.503l0.004 140.493-75 0.002-0.004-140.494c0-43.596 18.155-81.575 51.122-106.943 29.142-22.425 68.198-34.278 112.943-34.278 44.748 0 83.805 11.854 112.949 34.277 32.97 25.368 51.127 63.348 51.127 106.943l0.008 140.491-75.001 0.006z" p-id="10179"></path><path d="M783.234 1022H240.782c-25.717 0-53.164-12.815-75.302-35.162-21.941-22.146-37.524-49.36-37.524-74.665V595.436h75l3 316.737c0 10.997-4.871 4.041 12.804 21.88 9.345 9.433 18.468 12.947 22.023 12.947h542.452c3.556 0 12.679-3.515 22.023-12.947 9.674-9.765 16.804-18.958 16.804-21.88V595.436h75v316.737c0 25.305-16.584 52.52-38.524 74.665-22.14 22.347-49.586 35.162-75.304 35.162z" p-id="10180"></path></svg>