<?xml version="1.0" standalone="no"?><!DOCTYPE svg PUBLIC "-//W3C//DTD SVG 1.1//EN" "http://www.w3.org/Graphics/SVG/1.1/DTD/svg11.dtd"><svg t="1545420546389" class="icon" style="" viewBox="0 0 1024 1024" version="1.1" xmlns="http://www.w3.org/2000/svg" p-id="12528" xmlns:xlink="http://www.w3.org/1999/xlink" width="200" height="200"><defs><style type="text/css"></style></defs><path d="M179.8912 972.8c-32.768 0-65.536-12.288-91.136-36.864-50.18112-51.2-50.18112-133.12 0-183.296 11.25888-12.288 30.72-12.288 43.00288 0 12.288 11.264 12.288 30.72 0 43.008-26.624 26.61888-26.624 69.632 0 96.256s69.63712 26.624 96.256 0l197.63712-197.632c9.216-9.216 23.552-11.25888 35.84-5.12 119.80288 62.464 264.192 40.96 359.41888-54.272 86.02112-86.016 112.64-209.92 71.68-320.512l-173.056 173.056c-51.2 50.176-133.12 50.176-183.296 0-50.176-51.2-50.176-133.12 0-183.296l173.056-173.056c-110.592-39.936-235.52-13.312-320.512 71.68-96.256 96.256-117.76 240.64-54.272 359.424 6.13888 11.264 4.096 26.624-5.12 35.84l-129.024 126.976c-11.264 12.288-30.72 12.288-43.008 0-12.28288-11.25888-12.28288-30.72 0-43.00288l112.64-112.64c-63.48288-138.24-34.816-301.056 74.75712-410.624 114.68288-114.688 287.73888-140.288 431.09888-64.512 9.216 4.096 14.336 12.288 16.384 22.528s-1.024 19.456-8.192 26.624l-203.78112 202.752a67.9936 67.9936 0 0 0 0 96.256 67.9936 67.9936 0 0 0 96.26112 0l203.776-203.776c7.16288-6.144 17.40288-9.216 26.624-8.192 9.216 2.048 18.432 8.192 22.52288 16.384 75.776 143.36 50.176 316.416-65.536 431.104-109.568 109.56288-271.36 138.24-410.624 74.752l-182.272 182.272C246.4512 960.512 212.65408 972.8 179.8912 972.8z" p-id="12529"></path></svg>