<?xml version="1.0" standalone="no"?><!DOCTYPE svg PUBLIC "-//W3C//DTD SVG 1.1//EN" "http://www.w3.org/Graphics/SVG/1.1/DTD/svg11.dtd"><svg t="1545420121800" class="icon" style="" viewBox="0 0 1024 1024" version="1.1" xmlns="http://www.w3.org/2000/svg" p-id="5538" xmlns:xlink="http://www.w3.org/1999/xlink" width="200" height="200"><defs><style type="text/css"></style></defs><path d="M787.055503 984.865475 242.640075 984.865475c-42.873377 0-77.775353-34.877893-77.775353-77.775353l0-311.08937-38.809407 0c-30.645343 0-57.68429-17.261336-70.556538-45.05889-12.872248-27.779492-8.621637-59.562747 11.162371-82.959172l390.381938-408.191157c13.215428-15.7381 34.859831-25.768579 57.798683-25.768579 22.938852 0 44.583255 10.024459 59.394167 27.532643l137.849859 144.00301c14.847037 15.533396 14.317215 40.139981-1.216181 54.987018s-40.139981 14.317215-54.987018-1.216181L516.443274 113.568391 124.465851 519.995484l40.404892-1.764064c42.873377 0 77.775353 34.877893 77.775353 77.775353l0 311.08937 544.409407 0 0-311.08937c0-42.891439 34.901976-77.775353 77.775353-77.775353l38.809407 0-134.31571-140.318344c-14.847037-15.533396-14.281091-40.139981 1.216181-54.987018 15.56952-14.810913 40.176105-14.281091 54.987018 1.216181l135.911195 142.082408c21.379492 25.160489 25.636124 56.943744 12.757855 84.723236-12.872248 27.797554-39.911195 45.05889-70.556538 45.05889l-38.809407 0 0 311.08937C864.824835 949.987582 829.928881 984.865475 787.055503 984.865475z" p-id="5539"></path><path d="M592.623142 984.865475 437.072437 984.865475c-42.873377 0-77.775353-34.877893-77.775353-77.775353l0-272.207714c0-42.891439 34.901976-77.775353 77.775353-77.775353l155.544685 0c42.873377 0 77.775353 34.877893 77.775353 77.775353l0 272.207714C670.392474 949.987582 635.496519 984.865475 592.623142 984.865475zM437.072437 634.888429l0 272.207714 155.580809 0-0.036124-272.207714L437.072437 634.888429z" p-id="5540"></path><path d="M207.714017 401.568391c-21.493885 0-39.134525-17.411853-39.134525-38.887676L168.579492 190.410536C168.579492 134.375917 199.050235 90.310442 242.640075 90.310442l77.775353 0C364.011289 90.310442 397.365945 134.375917 397.365945 190.410536l0 16.725494c0 21.475823-17.64064 38.887676-39.134525 38.887676S319.096896 228.611853 319.096896 207.13603l0-16.725494C319.096896 179.5492 317.48937 174.600188 315.213547 168.579492L247.847977 168.579492C245.566134 174.600188 246.848542 179.5492 246.848542 190.410536l0 172.276199C246.848542 384.156538 229.207902 401.568391 207.714017 401.568391z" p-id="5541"></path></svg>