<?xml version="1.0" standalone="no"?><!DOCTYPE svg PUBLIC "-//W3C//DTD SVG 1.1//EN" "http://www.w3.org/Graphics/SVG/1.1/DTD/svg11.dtd"><svg t="1545420363456" class="icon" style="" viewBox="0 0 1024 1024" version="1.1" xmlns="http://www.w3.org/2000/svg" p-id="9336" xmlns:xlink="http://www.w3.org/1999/xlink" width="200" height="200"><defs><style type="text/css"></style></defs><path d="M691.2 80l118.4 115.2-227.2 220.8-192-144h-3.2c-3.2 0-3.2-3.2-6.4-3.2s-3.2 0-6.4-3.2h-12.8c-3.2 0-3.2 0-6.4 3.2-3.2 0-3.2 3.2-6.4 3.2h-3.2l-297.6 220.8c-16 12.8-22.4 41.6-12.8 54.4 6.4 9.6 22.4 19.2 35.2 19.2 6.4 0 12.8-3.2 19.2-6.4l275.2-204.8 195.2 144c3.2 0 3.2 3.2 6.4 3.2 0 0 3.2 0 3.2 3.2 3.2 0 9.6 3.2 12.8 3.2 3.2 0 9.6 0 12.8-3.2l3.2-3.2c3.2 0 3.2-3.2 6.4-3.2l262.4-252.8 118.4 118.4V80h-294.4z m-585.6 800c0 19.2 16 32 35.2 32h35.2c19.2 0 35.2-16 35.2-32v-233.6l-102.4 73.6v160zM608 672c-3.2 3.2-9.6 3.2-12.8 3.2-3.2 0-9.6 0-12.8-3.2v208c0 19.2 16 32 35.2 32h35.2c19.2 0 35.2-16 35.2-32v-278.4l-64 64c-9.6 3.2-16 6.4-16 6.4z m208 208c0 19.2 16 32 35.2 32h35.2c19.2 0 35.2-16 35.2-32v-512l-102.4 99.2-3.2 412.8zM342.4 547.2v336c0 19.2 16 32 35.2 32h35.2c19.2 0 35.2-16 35.2-32V576l-70.4-51.2-35.2 22.4z" p-id="9337"></path></svg>