<?xml version="1.0" standalone="no"?><!DOCTYPE svg PUBLIC "-//W3C//DTD SVG 1.1//EN" "http://www.w3.org/Graphics/SVG/1.1/DTD/svg11.dtd"><svg t="1545420192333" class="icon" style="" viewBox="0 0 1024 1024" version="1.1" xmlns="http://www.w3.org/2000/svg" p-id="6248" xmlns:xlink="http://www.w3.org/1999/xlink" width="200" height="200"><defs><style type="text/css"></style></defs><path d="M512 821c-105 0-192-87-192-192 0-15-9-24-24-24s-24 12-24 24c0 132 108 240 240 240 15 0 24-9 24-24 0-12-12-24-24-24z" p-id="6249" fill="#2c2c2c"></path><path d="M686 272c-69-105-150-195-174-195s-105 90-174 195c-54 81-144 234-144 357 0 174 141 318 318 318 174 0 318-141 318-318 0-123-90-276-144-357zM512 899c-150 0-270-126-270-282 0-183 249-483 270-489 24 6 270 306 270 489 0 159-120 282-270 282z" p-id="6250" fill="#2c2c2c"></path></svg>