<?xml version="1.0" standalone="no"?><!DOCTYPE svg PUBLIC "-//W3C//DTD SVG 1.1//EN" "http://www.w3.org/Graphics/SVG/1.1/DTD/svg11.dtd"><svg t="1545421500487" class="icon" style="" viewBox="0 0 1024 1024" version="1.1" xmlns="http://www.w3.org/2000/svg" p-id="11064" xmlns:xlink="http://www.w3.org/1999/xlink" width="200" height="200"><defs><style type="text/css"></style></defs><path d="M908.699486 178.418552 115.272885 178.418552c-27.137057 0-49.210795 22.046109-49.210795 49.209772l0 568.715723c0 27.137057 22.073738 49.238424 49.210795 49.238424L908.699486 845.582471c27.136034 0 49.236378-22.102391 49.236378-49.238424L957.935863 227.628324C957.935863 200.464661 935.834496 178.418552 908.699486 178.418552zM902.193305 234.159064l0 49.646724L530.725992 548.498262c-9.637498 6.831592-27.789926 6.885827-37.47859-0.026606L121.804648 283.805788l0-49.646724L902.193305 234.159064zM121.804648 789.839913 121.804648 352.231203l339.078649 241.612827c14.560624 10.425444 32.852222 15.623839 51.116191 15.623839 18.261922 0 36.553521-5.198395 51.087539-15.59621l339.106278-241.639432 0 437.608709L121.804648 789.840936z" p-id="11065"></path></svg>