<?xml version="1.0" standalone="no"?><!DOCTYPE svg PUBLIC "-//W3C//DTD SVG 1.1//EN" "http://www.w3.org/Graphics/SVG/1.1/DTD/svg11.dtd"><svg t="1545421492090" class="icon" style="" viewBox="0 0 1024 1024" version="1.1" xmlns="http://www.w3.org/2000/svg" p-id="10930" xmlns:xlink="http://www.w3.org/1999/xlink" width="200" height="200"><defs><style type="text/css"></style></defs><path d="M895.3344 917.77024H127.37536C55.94112 917.77024 0 834.40128 0 727.9616V297.33376c0-106.43456 55.94112-189.80864 127.37536-189.80864H895.3344c45.66528 0 82.98496 29.11232 105.08288 81.98144l-35.77344 14.99136c-16.14848-38.59456-39.48544-58.14272-69.30944-58.14272H127.37536c-48.02048 0-88.58624 69.13536-88.58624 150.97856v430.62784c0 81.86368 40.56576 151.01952 88.58624 151.01952H895.3344c47.98464 0 88.5504-69.15584 88.5504-151.01952V367.61088h38.78912v360.35584c0 106.43456-55.94624 189.80352-127.33952 189.80352z" p-id="10931"></path><path d="M534.19008 562.24256c-48.29184 0-102.65088-26.50112-145.37728-70.912L134.83008 267.04384l25.728-29.09184 255.09888 225.36704c36.70016 38.03648 80.5888 60.11392 118.528 60.11392 13.59872 0 32.76288-3.10784 46.94016-17.82784l381.0816-340.36224 25.88672 28.93824-380.03712 339.35872c-17.65888 18.42688-43.58144 28.70272-73.86624 28.70272z" p-id="10932"></path></svg>