<?xml version="1.0" standalone="no"?><!DOCTYPE svg PUBLIC "-//W3C//DTD SVG 1.1//EN" "http://www.w3.org/Graphics/SVG/1.1/DTD/svg11.dtd"><svg t="1545421453992" class="icon" style="" viewBox="0 0 1178 1024" version="1.1" xmlns="http://www.w3.org/2000/svg" p-id="9964" xmlns:xlink="http://www.w3.org/1999/xlink" width="230.078125" height="200"><defs><style type="text/css"></style></defs><path d="M296.004694 486.264815a105.544299 105.544299 0 1 1 105.544299-105.544299 105.744573 105.744573 0 0 1-105.544299 105.544299z m0-151.006454a45.462155 45.462155 0 1 0 45.462155 45.462155 45.462155 45.462155 0 0 0-45.462155-45.462155z" p-id="9965"></path><path d="M948.496773 0H230.314884A230.515157 230.515157 0 0 0 0 230.314884v563.370232a230.515157 230.515157 0 0 0 230.314884 230.314884h718.181889a230.515157 230.515157 0 0 0 230.314884-230.314884V230.314884A230.515157 230.515157 0 0 0 948.496773 0zM230.314884 60.082144h718.181889a170.433014 170.433014 0 0 1 170.23274 170.23274v299.209075c-243.332681-200.273812-437.598279-182.048895-661.904948 58.079405-80.109525 85.917465-156.614121 129.577156-226.109134 129.577156h-0.400547c-56.877763 0-113.354978-30.441619-167.428907-89.522394 0 0-1.60219 0-2.203012-1.60219V230.314884A170.433014 170.433014 0 0 1 230.314884 60.082144z m718.181889 903.835712H230.314884a170.433014 170.433014 0 0 1-170.23274-170.23274v-85.316643a262.759241 262.759241 0 0 0 169.431644 68.894191h1.201643c86.918834 0 177.642871-50.068453 269.969099-148.603169 212.089967-227.110503 378.317231-233.519265 613.438685-24.233131a28.438881 28.438881 0 0 0 4.606298 2.803834v186.454918a170.433014 170.433014 0 0 1-170.23274 170.23274z" p-id="9966"></path></svg>