<?xml version="1.0" standalone="no"?><!DOCTYPE svg PUBLIC "-//W3C//DTD SVG 1.1//EN" "http://www.w3.org/Graphics/SVG/1.1/DTD/svg11.dtd"><svg t="1545420016065" class="icon" style="" viewBox="0 0 1025 1024" version="1.1" xmlns="http://www.w3.org/2000/svg" p-id="4407" xmlns:xlink="http://www.w3.org/1999/xlink" width="200.1953125" height="200"><defs><style type="text/css"></style></defs><path d="M817.979786 966.634478l0.36532 0c0.465604-8.190543 0.687662-15.365966 0.687662-22.150486 0.010233-175.902242-105.45068-335.2566-263.293615-396.812561l-13.699-5.894244 12.088316-8.735965c72.66088-52.505841 116.03883-140.117225 116.03883-234.358609 0-155.361417-116.925013-281.757129-260.645298-281.757129-143.722332 0-260.648368 126.395712-260.648368 281.757129 0 94.236268 43.37795 181.847651 116.036783 234.358609l12.08627 8.735965-13.696953 5.894244C102.94765 603.584881-2.3e-05 768.573563-2.3e-05 944.467619c0 6.743588 0.230244 13.791098 0.733711 22.172999l0.543376 0 0.066515 8.462742c0 17.630542 13.030781 31.972179 29.04757 31.972179 16.010649 0 29.037337-14.34266 29.037337-31.972179 0-0.281409-0.067538-0.813528-0.13303-1.329275-0.066515-0.532119-0.13303-1.059122-0.180102-1.599428-0.826831-10.191106-1.373277-18.767436-1.373277-27.707039 0-96.974635 42.095747-188.17066 105.730043-256.795621 63.798025-68.800969 155.725714-106.693997 246.044766-106.693997 90.321098 0 182.250834 37.892005 246.050905 106.693997 63.635319 68.625984 105.73209 159.822009 105.73209 256.795621 0 10.203386-0.707105 20.116153-1.407046 28.490891-0.010233 0.24764-0.027629 0.477884-0.048095 0.681522l0.052189 1.215688c0.497327 17.381879 13.20065 30.996968 28.918633 30.996968 15.72924 0 28.436656-13.615089 28.931936-30.994921L817.979786 966.634478zM207.756718 298.68159c0-119.612215 90.511433-216.924541 201.765283-216.924541 111.252827 0 201.763237 97.312326 201.763237 216.924541 0 119.618355-90.51041 216.934774-201.763237 216.934774C298.268151 515.616364 207.756718 418.299945 207.756718 298.68159z" p-id="4408"></path><path d="M1024.451255 871.755574c0.023536-0.188288 0.054235-0.36532 0.083911-0.537236-0.014326-146.546657-81.504292-276.208762-207.613478-330.345754l-13.738909-5.898337 12.130272-8.741082c60.496839-43.598984 96.612385-116.453269 96.612385-194.883549 0-108.87671-68.085678-202.192002-165.754115-227.477898l-0.713244 0.293689-2.090615-0.202615c-0.561795-0.054235-1.11745-0.13303-1.673106-0.215918-0.320295-0.047072-0.7552-0.112564-0.905626-0.11768-16.532535 0-29.999245 14.823614-29.999245 33.045627 0 16.32378 10.694573 29.992081 25.427112 32.501228l1.029446 0.176009 0.955768 0.419556c1.461281 0.642636 3.558036 1.345648 6.229888 2.089591 0.481977 0.134053 0.821715 0.246617 1.006933 0.313132l0.002047-0.001023c62.568011 22.900569 104.60543 86.0007 104.60543 157.01815 0 79.443353-52.354392 147.608849-124.729769 162.782434l-1.019213 0.600681-1.99647 0.1361c-18.343787 1.25048-32.714076 17.926278-32.714076 37.963637 0 20.543895 14.72026 37.274952 33.511231 38.084387l1.803066 0.075725 1.096984 0.549515c67.358107 7.928576 128.35739 42.695405 172.022888 98.061386 43.464931 55.107085 67.400063 127.477346 67.400063 203.786313 0 17.937534 13.261025 32.533974 29.560246 32.533974 15.851013 0 28.766161-13.722536 29.405727-31.240515L1024.451255 871.755574z" p-id="4409"></path></svg>