<?xml version="1.0" encoding="utf-8"?>
<!-- Generator: Adobe Illustrator 21.0.0, SVG Export Plug-In . SVG Version: 6.00 Build 0)  -->
<svg version="1.1" xmlns="http://www.w3.org/2000/svg" xmlns:xlink="http://www.w3.org/1999/xlink" x="0px" y="0px"
	 viewBox="0 0 595.3 841.9" style="enable-background:new 0 0 595.3 841.9;" xml:space="preserve">
<style type="text/css">
	.st0{fill:none;}
	.st1{opacity:0.82;fill:#FFFFFF;}
	.st2{display:none;}
	.st3{display:inline;fill:#FFD41E;}
	.st4{display:inline;opacity:0.7;fill:url(#新建图案_3);}
	.st5{stroke:#000000;stroke-miterlimit:10;}
	.st6{fill:#FFFFFF;stroke:#000000;stroke-miterlimit:10;}
	.st7{fill:#754C24;stroke:#000000;stroke-miterlimit:10;}
	.st8{fill:#FF6A16;stroke:#000000;stroke-miterlimit:10;}
	.st9{fill:#009EBB;stroke:#000000;stroke-miterlimit:10;}
	.st10{fill:#FF9DD3;stroke:#000000;stroke-miterlimit:10;}
	.st11{fill:none;stroke:#000000;stroke-miterlimit:10;}
	.st12{fill:#56009D;}
	.st13{fill:#FFFFFF;}
</style>
<pattern  width="168.5" height="175.9" patternUnits="userSpaceOnUse" id="新建图案_3" viewBox="0 -175.9 168.5 175.9" style="overflow:visible;">
	<g>
		<rect y="-175.9" class="st0" width="168.5" height="175.9"/>
		
			<rect x="57.7" y="-184.2" transform="matrix(0.7071 -0.7071 0.7071 0.7071 89.5421 32.7265)" class="st0" width="53.1" height="185"/>
		
			<text transform="matrix(0.7071 -0.7071 0.7071 0.7071 36.1996 -9.0369)" class="st1" style="font-family:'Inkpen2ScriptStd'; font-size:60px;">TOUCH</text>
	</g>
</pattern>
<g id="图层_1" class="st2">
	<rect x="-7.5" y="131.8" class="st3" width="869" height="847.2"/>
</g>
<g id="图层_4" class="st2">
	<rect x="-12.6" y="-75.8" class="st4" width="737.4" height="1050.4"/>
</g>
<g id="图层_3" class="st2">
</g>
<g id="图层_2">
	<path d="M238.5,331.1c36,35.9-2.3,72.1-2.3,72.1h-24.3c5.3-3.3,7.3-5,17.7-17.3c1.7-2,3-4,4.1-6c5.4-10,3.6-18.7,3.6-18.7
		c0.3-10-12.3-22-13.7-23.7c-1.3-1.7-4.3-10,1.7-15.3c6-5.3,11.7-15.3,11.7-15.3c8.7-12,6-18,6-18l-30.7,16.7c-5,2.7-9,0.3-9,0.3
		l-5.7-4c-8.4-5.3-16.5-8.3-24-9.8c-1.3-0.3-2.6-0.5-3.8-0.6c-2.4-0.3-4.8-0.5-7.1-0.5c-22-0.4-37,11-37,11c-2.7,1.3-6.3,0-6.3,0
		l-8.7-5.3l-23.7-13.7c4.3,13.7,10.7,20,10.7,20c9.3,11.7,11,17,11,17c0.7,6.3-0.3,4-0.3,4c-37,55.3,4,79.3,4,79.3h-22
		c-31.7-38,1.7-80,1.7-80c-7.3-7-14-19.3-14-19.3c-8.7-13-9.3-30.7-9.3-30.7c-0.7-21.3,14-12.3,14-12.3l40.7,24.7
		c46-25.3,86.3,3.7,86.3,3.7l41-21c7.7-3.3,10.7,3.3,10.7,3.3C264.8,306.2,238.5,331.1,238.5,331.1z"/>
	<rect x="116.8" y="346.9" class="st5" width="16" height="16.7"/>
	<rect x="196.8" y="346.9" class="st5" width="16" height="16.7"/>
	<path class="st5" d="M213.3,194c-17.9,0-32.5,14.5-32.5,32.5s14.5,32.5,32.5,32.5s32.5-14.5,32.5-32.5S231.2,194,213.3,194z
		 M213.9,243.5c-9.1,0-16.6-7.4-16.6-16.6c0-9.1,7.4-16.6,16.6-16.6c9.2,0,16.6,7.4,16.6,16.6C230.5,236.1,223,243.5,213.9,243.5z"
		/>
	<polygon class="st5" points="184.5,370.9 173.5,376.2 172.8,403.2 157.2,403.2 156.8,376.5 145.2,370.9 152.8,356.5 165,362.2 
		177.5,356.5 	"/>
	<path class="st5" d="M534.8,265.2c0,0-2.7-25.7-30.7-41c0,0-27.3-12-41-1.7c0,0-52.7-45-112.3-0.3c0,0-47-19.1-70.7,36.8
		c0,0-7,33.2,0,64.5c0,0,2.7,19.7,16.2,28.3c0,0,17.2,11,32.2-5c0,0,1,6,11,16.7l-25.6,39.7h19.2l17.7-32c0,0,9,9.3,30,7
		c0,0,26,17,49.7,0.7c0,0,22.3,1.7,31.3-7.7l19,32h18.3l-25.3-39.7c0,0,10.7-12.7,10.7-16.7c0,0,18.3,17.7,35,2.7
		c0,0,9.3-6.5,11.7-18.4C531.2,331.1,537.8,317.9,534.8,265.2z M321.8,331.1c-7,14.6-20,5.1-20,5.1c-7.7-7-7.7-22.3-7.7-22.3
		c-1.3-5.7,0-47.7,0-47.7c12.7-36.7,43-31.3,43-31.3C307.2,271.5,321.8,331.1,321.8,331.1z M475.5,326.9c-5,24.3-19.3,33-39.7,36.7
		c-11.1,2.8-17.7,3-17.7,3c-9.3,7.3-24,0-24,0l-16.3-3c0,0-17,0.3-27-11.3c0,0-23.3-20.3-16-72.7c0,0,6.7-45.1,52.3-59
		c0,0,48.3-12.3,75.7,24.7c0,0,15.5,14,15.9,35C478.7,280.2,480.5,302.5,475.5,326.9z M515.8,325.5c-9,27-24,5.6-24,5.6
		c7.3-15.8,1.7-55.6,1.7-55.6c-1.3-21-19.2-40.9-19.2-40.9c33.5-5.9,46.5,31.9,46.5,31.9C521.8,319.5,515.8,325.5,515.8,325.5z"/>
	<polygon class="st5" points="435.8,363.5 418.2,366.5 406.2,346.9 394.2,366.5 377.8,363.5 391.5,339.2 382.2,339.2 382.2,322.9 
		430.2,323.2 430.2,339.2 420.8,339.2 	"/>
	<path class="st6" d="M418.2,366.5l17.7-3C424.7,366.3,418.2,366.5,418.2,366.5z"/>
	<path class="st7" d="M321.8,331.1c-7,14.6-20,5.1-20,5.1c-7.7-7-7.7-22.3-7.7-22.3c-1.3-5.7,0-47.7,0-47.7
		c12.7-36.7,43-31.3,43-31.3C307.2,271.5,321.8,331.1,321.8,331.1z"/>
	<path class="st7" d="M478.7,280.2c-0.3-21-15.9-35-15.9-35c-27.3-37-75.7-24.7-75.7-24.7c-45.6,13.9-52.3,59-52.3,59
		c-7.3,52.3,16,72.7,16,72.7c10,11.7,27,11.3,27,11.3l13.7-24.3h-9.3v-16.3l48,0.3v16h-9.3l15,24.3c20.3-3.7,34.7-12.3,39.7-36.7
		C480.5,302.5,478.7,280.2,478.7,280.2z M373.8,299.2h-16v-16.7h16V299.2z M454.8,299.2h-16v-16.7h16V299.2z"/>
	<rect x="357.8" y="282.5" class="st5" width="16" height="16.7"/>
	<rect x="438.8" y="282.5" class="st5" width="16" height="16.7"/>
	<path class="st7" d="M418.2,366.5c-9.3,7.3-24,0-24,0l12-19.7L418.2,366.5z"/>
	<path class="st5" d="M474.3,526.5l-6.3,15c-1-0.3-1.7-0.5-1.7-0.5c-22-1-19.5,17-19.5,17l-4.5,5.5l4.5,2.5l8,5l0.6,0.4l-6.1,14.6
		l-10.5-8l-11.5-6.5c-6-4-4.5-10-4.5-10l8-9C440.8,514.5,474.3,526.5,474.3,526.5z"/>
	<path class="st5" d="M541.3,586c-4,16-17.5,24.5-17.5,24.5c-3.5,5-19,10-19,10h-29.5c-15.5-2.5-20.5-10-20.5-10l9.3-20.6l0.7,7.6
		c3.5,7,11.5,7.5,11.5,7.5h22.8c2.2-0.5,8.2-2.5,8.2-2.5c7-1,15.5-13,15.5-13c6.5-6,4.5-25,4.5-25c-4.5,5.5-18.5,12.5-18.5,12.5
		c-14,8.5-30.1,0-30.1,0c-7.1-2-2.9-12-2.9-12c1.2-2.4,2-4.6,2.4-6.6v0l9.6-21.4c8.5,6.5,7,27.5,7,27.5c10.5-0.5,23-12.5,23-12.5
		c22-14.5,23.5,8,23.5,8C545.8,569,541.3,586,541.3,586z"/>
	<path class="st5" d="M478.2,558.4c2.6-11.6-6.3-15.7-10.2-17l6.3-15c6.9,1.5,13.5,10.5,13.5,10.5L478.2,558.4z"/>
	<path class="st8" d="M522.8,589.5c0,0-8.5,12-15.5,13c0,0-6,2-8.2,2.5h-22.8c0,0-8-0.5-11.5-7.5l-0.7-7.6l-1.3-13.4l-7.4-5.1
		l-0.6-0.4l-8-5l-4.5-2.5l4.5-5.5c0,0-2.5-18,19.5-17c0,0,0.7,0.1,1.7,0.5c3.9,1.2,12.7,5.4,10.2,17v0c-0.4,2-1.2,4.2-2.4,6.6
		c0,0-4.3,10,2.9,12c0,0,16.1,8.5,30.1,0c0,0,14-7,18.5-12.5C527.3,564.5,529.3,583.5,522.8,589.5z"/>
	<path class="st5" d="M464.1,589.9l-9.3,20.6c0,0-11.5-14-5.5-24.5l6.1-14.6l7.4,5.1L464.1,589.9z"/>
	<path class="st7" d="M480.8,403.2H333.2l17.7-32c0,0,9,9.3,30,7c0,0,26,17,49.7,0.7c0,0,22.3,1.7,31.3-7.7L480.8,403.2z"/>
	<path class="st5" d="M543.3,423v19.5l-2.5,7c-4.5,16-19,21-19,21c-8.5,4.5-13,5-13,5l-21,61.5c0,0-6.6-9-13.5-10.5l21-60.5
		c1.5-5.5,6.5-5,6.5-5c23-2.5,25.5-18.5,25.5-18.5l0-16c0.5-7.5-9.5-7.5-9.5-7.5l-24.3,0.1l-1.7-0.1c0,0,0,0,0,0.1l-202,0.5
		l-125,0.3l-16,0l-62,0.1c-11,0.5-10,4.5-10,4.5v19c6,18,24.5,17.5,24.5,17.5c5.5,0.5,6,1.5,6,3s30,83.5,30,83.5
		c3,13.5,27.7,57,27.7,57h273.8l10.5-18.5c-6,10.5,5.5,24.5,5.5,24.5l-10.5,10h-282c-16-8-40-65-40-65l-28-80.5
		c-29-3-33-31.5-33-31.5s-0.5-7,0-22.5s28.8-17.8,28.8-17.8h429.2C545.3,405.9,543.3,423,543.3,423z"/>
	<path class="st9" d="M289.8,419.6c0,0-23,30.5-67,8.5c0,0-6-1.5-10,6v29.8c0,0-6,10.3-14,0l-2-6.8c0,0-8-10.5-15.5,0.5l-0.5,27
		c0,0,1.5,6.5-6,8c0,0-8.7,1.5-9.8-5l-0.2-67.7L289.8,419.6z"/>
	<path class="st5" d="M306.8,419.9c-14.5,43.8-78,29.1-78,29.1v15c-1,11-7,13.5-7,13.5c-8.5,9.5-25,5.5-25,5.5
		c-1,17-9.5,19.5-9.5,19.5c-12,12.5-30,0-30,0c-8-6.5-8.5-14-8.5-14v-68.6l16,0l0.2,67.7c1.2,6.5,9.8,5,9.8,5c7.5-1.5,6-8,6-8
		l0.5-27c7.5-11,15.5-0.5,15.5-0.5l2,6.8c8,10.3,14,0,14,0V434c4-7.5,10-6,10-6c44,22,67-8.5,67-8.5L306.8,419.9z"/>
	<path class="st10" d="M527.3,442.5c0,0-2.5,16-25.5,18.5c0,0-5-0.5-6.5,5l-21,60.5c0,0-33.5-12-43.5,26l-8,9c0,0-1.5,6,4.5,10
		l11.5,6.5l10.5,8l-10.5,18.5H165c0,0-24.7-43.5-27.7-57c0,0-30-82-30-83.5s-0.5-2.5-6-3c0,0-18.5,0.5-24.5-17.5v-19c0,0-1-4,10-4.5
		l62-0.1v68.6c0,0,0.5,7.5,8.5,14c0,0,18,12.5,30,0c0,0,8.5-2.5,9.5-19.5c0,0,16.5,4,25-5.5c0,0,6-2.6,7-13.5v-15
		c0,0,63.5,14.7,78-29.1l-17-0.3l202-0.5l-3.9,0l3.9,0c0,0,0,0,0,0h1.7l24.3-0.1c0,0,10,0,9.5,7.5L527.3,442.5z"/>
	<path class="st6" d="M491.8,419.1C491.8,419.1,491.8,419.1,491.8,419.1l-3.9,0L491.8,419.1z"/>
	<circle class="st9" cx="213.9" cy="227" r="16.6"/>
	<path class="st5" d="M84.8,139.1c-12.7,0-23,10.3-23,23c0,12.7,10.3,23,23,23c12.7,0,23-10.3,23-23
		C107.8,149.4,97.5,139.1,84.8,139.1z M84.8,171.3c-5.1,0-9.2-4.1-9.2-9.2s4.1-9.2,9.2-9.2c5.1,0,9.2,4.1,9.2,9.2
		S89.9,171.3,84.8,171.3z"/>
	<circle class="st9" cx="84.8" cy="162.1" r="9.2"/>
	<path class="st5" d="M165,139.1c-12.7,0-23,10.3-23,23c0,12.7,10.3,23,23,23c12.7,0,23-10.3,23-23C188,149.4,177.7,139.1,165,139.1
		z M165,171.3c-5.1,0-9.2-4.1-9.2-9.2s4.1-9.2,9.2-9.2s9.2,4.1,9.2,9.2S170,171.3,165,171.3z"/>
	<ellipse class="st9" cx="165" cy="162.1" rx="9.2" ry="9.2"/>
	<path class="st7" d="M515.8,325.5c-9,27-24,5.6-24,5.6c7.3-15.8,1.7-55.6,1.7-55.6c-1.3-21-19.2-40.9-19.2-40.9
		c33.5-5.9,46.5,31.9,46.5,31.9C521.8,319.5,515.8,325.5,515.8,325.5z"/>
	<path class="st6" d="M435.8,363.5c-11.1,2.8-17.7,3-17.7,3L435.8,363.5z"/>
	<path class="st11" d="M37.5,348"/>
	<path class="st11" d="M181.3,294.2"/>
	<path class="st11" d="M162.5,290.9"/>
	<path class="st12" d="M223.5,337.5c-1.3-1.7-4.3-10,1.7-15.3c6-5.3,11.7-15.3,11.7-15.3c8.7-12,6-18,6-18l-30.7,16.7
		c-5,2.7-9,0.3-9,0.3l-5.7-4c-8.4-5.3-16.5-8.3-24-9.8c-1.3-0.3-2.6-0.5-3.8-0.6c0,0,9.2,110.4,59.9,94.4c1.7-2,3-4,4.1-6
		c5.4-10,3.6-18.7,3.6-18.7C237.5,351.2,224.8,339.2,223.5,337.5z M212.8,363.5h-16v-16.7h16V363.5z"/>
	<path class="st13" d="M169.6,291.5c-2.4-0.3-4.8-0.5-7.1-0.5c-22-0.4-37,11-37,11c-2.7,1.3-6.3,0-6.3,0l-8.7-5.3l-23.7-13.7
		c4.3,13.7,10.7,20,10.7,20c9.3,11.7,11,17,11,17c0.7,6.3-0.3,4-0.3,4c-37,55.3,4,79.3,4,79.3h45l-0.3-26.7l-11.7-5.6l7.7-14.4
		l12.2,5.7l12.5-5.7l7,14.4l-11,5.3l-0.7,27h39c5.3-3.3,7.3-5,17.7-17.3C178.8,401.9,169.6,291.5,169.6,291.5z M132.8,363.5h-16
		v-16.7h16V363.5z"/>
</g>
</svg>
