<?xml version="1.0" encoding="utf-8"?>
<!-- Generator: Adobe Illustrator 21.0.0, SVG Export Plug-In . SVG Version: 6.00 Build 0)  -->
<svg version="1.1" xmlns="http://www.w3.org/2000/svg" xmlns:xlink="http://www.w3.org/1999/xlink" x="0px" y="0px"
	 viewBox="0 0 595.3 1133.9" style="enable-background:new 0 0 595.3 1133.9;" xml:space="preserve">
<style type="text/css">
	.st0{fill:none;}
	.st1{opacity:0.82;fill:#FFFFFF;}
	.st2{display:none;}
	.st3{display:inline;fill:#FFD41E;}
	.st4{display:inline;opacity:0.7;fill:url(#SVGID_1_);}
	.st5{stroke:#000000;stroke-miterlimit:10;}
	.st6{fill:#FFFFFF;stroke:#000000;stroke-miterlimit:10;}
	.st7{fill:#8C6239;stroke:#000000;stroke-miterlimit:10;}
	.st8{fill:#FF6A16;stroke:#000000;stroke-miterlimit:10;}
	.st9{fill:#29ABE2;stroke:#000000;stroke-miterlimit:10;}
	.st10{fill:#D2FFFD;stroke:#000000;stroke-miterlimit:10;}
	.st11{fill:#009EBB;stroke:#000000;stroke-miterlimit:10;}
	.st12{fill:none;stroke:#000000;stroke-miterlimit:10;}
	.st13{fill:#56009D;}
	.st14{fill:#FFFFFF;}
</style>
<pattern  width="168.5" height="175.9" patternUnits="userSpaceOnUse" id="新建图案_3" viewBox="0 -175.9 168.5 175.9" style="overflow:visible;">
	<g>
		<rect y="-175.9" class="st0" width="168.5" height="175.9"/>
		
			<rect x="57.7" y="-184.2" transform="matrix(0.7071 -0.7071 0.7071 0.7071 89.5421 32.7265)" class="st0" width="53.1" height="185"/>
		
			<text transform="matrix(0.7071 -0.7071 0.7071 0.7071 36.1996 -9.0369)" class="st1" style="font-family:'Inkpen2ScriptStd'; font-size:60px;">TOUCH</text>
	</g>
</pattern>
<g id="图层_1" class="st2">
	<rect x="-143.7" class="st3" width="869" height="1174.3"/>
	<pattern  id="SVGID_1_" xlink:href="#板缓炬_3" patternTransform="matrix(1 0 0 1 0 146)">
	</pattern>
	<rect x="-167.3" y="4.2" class="st4" width="869" height="1187.8"/>
</g>
<g id="图层_2">
	<g>
		<path d="M235.5,488.8c36,35.9-2.3,72.1-2.3,72.1h-24.3c5.3-3.3,7.3-5,17.7-17.3c1.7-2,3-4,4.1-6c5.4-10,3.6-18.7,3.6-18.7
			c0.3-10-12.3-22-13.7-23.7c-1.3-1.7-4.3-10,1.7-15.3c6-5.3,11.7-15.3,11.7-15.3c8.7-12,6-18,6-18l-30.7,16.7c-5,2.7-9,0.3-9,0.3
			l-5.7-4c-8.4-5.3-16.5-8.3-24-9.8c-1.3-0.3-2.6-0.5-3.8-0.6c-2.4-0.3-4.8-0.5-7.1-0.5c-22-0.4-37,11-37,11c-2.7,1.3-6.3,0-6.3,0
			l-8.7-5.3l-23.7-13.7c4.3,13.7,10.7,20,10.7,20c9.3,11.7,11,17,11,17c0.7,6.3-0.3,4-0.3,4c-37,55.3,4,79.3,4,79.3h-22
			c-31.7-38,1.7-80,1.7-80c-7.3-7-14-19.3-14-19.3c-8.7-13-9.3-30.7-9.3-30.7c-0.7-21.3,14-12.3,14-12.3l40.7,24.7
			c46-25.3,86.3,3.7,86.3,3.7l41-21c7.7-3.3,10.7,3.3,10.7,3.3C261.9,463.9,235.5,488.8,235.5,488.8z"/>
		<rect x="113.9" y="504.5" class="st5" width="16" height="16.7"/>
		<rect x="193.9" y="504.5" class="st5" width="16" height="16.7"/>
		<path class="st5" d="M210.3,351.7c-17.9,0-32.5,14.5-32.5,32.5s14.5,32.5,32.5,32.5s32.5-14.5,32.5-32.5S228.3,351.7,210.3,351.7z
			 M210.9,401.2c-9.1,0-16.6-7.4-16.6-16.6c0-9.1,7.4-16.6,16.6-16.6c9.2,0,16.6,7.4,16.6,16.6C227.5,393.8,220.1,401.2,210.9,401.2
			z"/>
		<polygon class="st5" points="181.5,528.6 170.5,533.9 169.9,560.9 154.2,560.9 153.9,534.2 142.2,528.6 149.9,514.2 162,519.9 
			174.5,514.2 		"/>
		<path class="st5" d="M531.9,422.9c0,0-2.7-25.7-30.7-41c0,0-27.3-12-41-1.7c0,0-52.7-45-112.3-0.3c0,0-47-19.1-70.7,36.8
			c0,0-7,33.2,0,64.5c0,0,2.7,19.7,16.2,28.3c0,0,17.2,11,32.2-5c0,0,1,6,11,16.7L311,560.9h19.2l17.7-32c0,0,9,9.3,30,7
			c0,0,26,17,49.7,0.7c0,0,22.3,1.7,31.3-7.7l19,32h18.3l-25.3-39.7c0,0,10.7-12.7,10.7-16.7c0,0,18.3,17.7,35,2.7
			c0,0,9.3-6.5,11.7-18.4C528.2,488.8,534.9,475.5,531.9,422.9z M318.9,488.8c-7,14.6-20,5.1-20,5.1c-7.7-7-7.7-22.3-7.7-22.3
			c-1.3-5.7,0-47.7,0-47.7c12.7-36.7,43-31.3,43-31.3C304.2,429.2,318.9,488.8,318.9,488.8z M472.5,484.5c-5,24.3-19.3,33-39.7,36.7
			c-11.1,2.8-17.7,3-17.7,3c-9.3,7.3-24,0-24,0l-16.3-3c0,0-17,0.3-27-11.3c0,0-23.3-20.3-16-72.7c0,0,6.7-45.1,52.3-59
			c0,0,48.3-12.3,75.7,24.7c0,0,15.5,14,15.9,35C475.7,437.9,477.5,460.2,472.5,484.5z M512.9,483.2c-9,27-24,5.6-24,5.6
			c7.3-15.8,1.7-55.6,1.7-55.6c-1.3-21-19.2-40.9-19.2-40.9c33.5-5.9,46.5,31.9,46.5,31.9C518.9,477.2,512.9,483.2,512.9,483.2z"/>
		<polygon class="st5" points="432.9,521.2 415.2,524.2 403.2,504.5 391.2,524.2 374.9,521.2 388.5,496.9 379.2,496.9 379.2,480.5 
			427.2,480.9 427.2,496.9 417.9,496.9 		"/>
		<path class="st6" d="M415.2,524.2l17.7-3C421.7,524,415.2,524.2,415.2,524.2z"/>
		<path class="st7" d="M318.9,488.8c-7,14.6-20,5.1-20,5.1c-7.7-7-7.7-22.3-7.7-22.3c-1.3-5.7,0-47.7,0-47.7
			c12.7-36.7,43-31.3,43-31.3C304.2,429.2,318.9,488.8,318.9,488.8z"/>
		<path class="st7" d="M475.7,437.9c-0.3-21-15.9-35-15.9-35c-27.3-37-75.7-24.7-75.7-24.7c-45.6,13.9-52.3,59-52.3,59
			c-7.3,52.3,16,72.7,16,72.7c10,11.7,27,11.3,27,11.3l13.7-24.3h-9.3v-16.3l48,0.3v16h-9.3l15,24.3c20.3-3.7,34.7-12.3,39.7-36.7
			C477.5,460.2,475.7,437.9,475.7,437.9z M370.9,456.9h-16v-16.7h16V456.9z M451.9,456.9h-16v-16.7h16V456.9z"/>
		<rect x="354.9" y="440.2" class="st5" width="16" height="16.7"/>
		<rect x="435.9" y="440.2" class="st5" width="16" height="16.7"/>
		<path class="st7" d="M415.2,524.2c-9.3,7.3-24,0-24,0l12.1-19.7L415.2,524.2z"/>
		<path class="st5" d="M471.4,684.2l-6.3,15c-1-0.3-1.7-0.5-1.7-0.5c-22-1-19.5,17-19.5,17l-4.5,5.5l4.5,2.5l8,5l0.6,0.4l-6.1,14.6
			l-10.5-8l-11.5-6.5c-6-4-4.5-10-4.5-10l8-9C437.9,672.2,471.4,684.2,471.4,684.2z"/>
		<path class="st5" d="M538.4,743.7c-4,16-17.5,24.5-17.5,24.5c-3.5,5-19,10-19,10h-29.5c-15.5-2.5-20.5-10-20.5-10l9.3-20.6
			l0.7,7.6c3.5,7,11.5,7.5,11.5,7.5h22.8c2.2-0.5,8.2-2.5,8.2-2.5c7-1,15.5-13,15.5-13c6.5-6,4.5-25,4.5-25
			c-4.5,5.5-18.5,12.5-18.5,12.5c-14,8.5-30.1,0-30.1,0c-7.1-2-2.9-12-2.9-12c1.2-2.4,2-4.6,2.4-6.6v0l9.6-21.4
			c8.5,6.5,7,27.5,7,27.5c10.5-0.5,23-12.5,23-12.5c22-14.5,23.5,8,23.5,8C542.9,726.7,538.4,743.7,538.4,743.7z"/>
		<path class="st5" d="M475.2,716.1c2.6-11.6-6.3-15.7-10.2-17l6.3-15c6.9,1.5,13.5,10.5,13.5,10.5L475.2,716.1z"/>
		<path class="st8" d="M519.9,747.2c0,0-8.5,12-15.5,13c0,0-6,2-8.2,2.5h-22.8c0,0-8-0.5-11.5-7.5l-0.7-7.6l-1.3-13.4l-7.4-5.1
			l-0.6-0.4l-8-5l-4.5-2.5l4.5-5.5c0,0-2.5-18,19.5-17c0,0,0.7,0.1,1.7,0.5c3.9,1.2,12.7,5.4,10.2,17v0c-0.4,2-1.2,4.2-2.4,6.6
			c0,0-4.3,10,2.9,12c0,0,16.1,8.5,30.1,0c0,0,14-7,18.5-12.5C524.4,722.2,526.4,741.2,519.9,747.2z"/>
		<path class="st5" d="M461.1,747.6l-9.3,20.6c0,0-11.5-14-5.5-24.5l6.1-14.6l7.4,5.1L461.1,747.6z"/>
		<path class="st7" d="M477.9,560.9H330.2l17.7-32c0,0,9,9.3,30,7c0,0,26,17,49.7,0.7c0,0,22.3,1.7,31.3-7.7L477.9,560.9z"/>
		<path class="st5" d="M540.4,580.7v19.5l-2.5,7c-4.5,16-19,21-19,21c-8.5,4.5-13,5-13,5l-21,61.5c0,0-6.6-9-13.5-10.5l21-60.5
			c1.5-5.5,6.5-5,6.5-5c23-2.5,25.5-18.5,25.5-18.5l0-16c0.5-7.5-9.5-7.5-9.5-7.5l-24.3,0.1l-1.7-0.1c0,0,0,0,0,0.1l-202,0.5
			l-125,0.3l-16,0l-62,0.1c-11,0.5-10,4.5-10,4.5v19c6,18,24.5,17.5,24.5,17.5c5.5,0.5,6,1.5,6,3s30,83.5,30,83.5
			c3,13.5,27.7,57,27.7,57h273.8l10.5-18.5c-6,10.5,5.5,24.5,5.5,24.5l-10.5,10h-282c-16-8-40-65-40-65l-28-80.5
			c-29-3-33-31.5-33-31.5s-0.5-7,0-22.5s28.8-17.8,28.8-17.8h429.2C542.4,563.5,540.4,580.7,540.4,580.7z"/>
		<path class="st9" d="M286.9,577.2c0,0-23,30.5-67,8.5c0,0-6-1.5-10,6v29.8c0,0-6,10.3-14,0l-2-6.8c0,0-8-10.5-15.5,0.5l-0.5,27
			c0,0,1.5,6.5-6,8c0,0-8.7,1.5-9.8-5l-0.2-67.7L286.9,577.2z"/>
		<path class="st5" d="M303.9,577.6c-14.5,43.9-78,29.1-78,29.1v15c-1,11-7,13.5-7,13.5c-8.5,9.5-25,5.5-25,5.5
			c-1,17-9.5,19.5-9.5,19.5c-12,12.5-30,0-30,0c-8-6.5-8.5-14-8.5-14v-68.6l16,0l0.2,67.7c1.2,6.5,9.8,5,9.8,5c7.5-1.5,6-8,6-8
			l0.5-27c7.5-11,15.5-0.5,15.5-0.5l2,6.8c8,10.3,14,0,14,0v-29.8c4-7.5,10-6,10-6c44,22,67-8.5,67-8.5L303.9,577.6z"/>
		<path class="st10" d="M524.4,600.2c0,0-2.5,16-25.5,18.5c0,0-5-0.5-6.5,5l-21,60.5c0,0-33.5-12-43.5,26l-8,9c0,0-1.5,6,4.5,10
			l11.5,6.5l10.5,8l-10.5,18.5H162c0,0-24.7-43.5-27.7-57c0,0-30-82-30-83.5s-0.5-2.5-6-3c0,0-18.5,0.5-24.5-17.5v-19
			c0,0-1-4,10-4.5l62-0.1v68.6c0,0,0.5,7.5,8.5,14c0,0,18,12.5,30,0c0,0,8.5-2.5,9.5-19.5c0,0,16.5,4,25-5.5c0,0,6-2.6,7-13.5v-15
			c0,0,63.5,14.7,78-29.1l-17-0.3l202-0.5l-3.9,0l3.9,0c0,0,0,0,0,0h1.7l24.3-0.1c0,0,10,0,9.5,7.5L524.4,600.2z"/>
		<path class="st6" d="M488.8,576.8C488.8,576.8,488.8,576.8,488.8,576.8l-3.9,0L488.8,576.8z"/>
		<circle class="st9" cx="210.9" cy="384.6" r="16.6"/>
		<path class="st5" d="M81.9,296.8c-12.7,0-23,10.3-23,23c0,12.7,10.3,23,23,23c12.7,0,23-10.3,23-23
			C104.8,307.1,94.5,296.8,81.9,296.8z M81.9,328.9c-5.1,0-9.2-4.1-9.2-9.2s4.1-9.2,9.2-9.2c5.1,0,9.2,4.1,9.2,9.2
			S86.9,328.9,81.9,328.9z"/>
		<circle class="st11" cx="81.9" cy="319.8" r="9.2"/>
		<path class="st5" d="M162,296.8c-12.7,0-23,10.3-23,23c0,12.7,10.3,23,23,23c12.7,0,23-10.3,23-23
			C185,307.1,174.7,296.8,162,296.8z M162,328.9c-5.1,0-9.2-4.1-9.2-9.2s4.1-9.2,9.2-9.2s9.2,4.1,9.2,9.2S167.1,328.9,162,328.9z"/>
		<ellipse class="st11" cx="162" cy="319.8" rx="9.2" ry="9.2"/>
		<path class="st7" d="M512.9,483.2c-9,27-24,5.6-24,5.6c7.3-15.8,1.7-55.6,1.7-55.6c-1.3-21-19.2-40.9-19.2-40.9
			c33.5-5.9,46.5,31.9,46.5,31.9C518.9,477.2,512.9,483.2,512.9,483.2z"/>
		<path class="st6" d="M432.9,521.2c-11.1,2.8-17.7,3-17.7,3L432.9,521.2z"/>
		<path class="st12" d="M178.4,451.9"/>
		<path class="st12" d="M159.5,448.6"/>
		<path class="st13" d="M220.5,495.2c-1.3-1.7-4.3-10,1.7-15.3c6-5.3,11.7-15.3,11.7-15.3c8.7-12,6-18,6-18l-30.7,16.7
			c-5,2.7-9,0.3-9,0.3l-5.7-4c-8.4-5.3-16.5-8.3-24-9.8c-1.3-0.3-2.6-0.5-3.8-0.6c0,0,9.2,110.4,59.9,94.4c1.7-2,3-4,4.1-6
			c5.4-10,3.6-18.7,3.6-18.7C234.5,508.9,221.9,496.9,220.5,495.2z M209.9,521.2h-16v-16.7h16V521.2z"/>
		<path class="st14" d="M166.7,449.1c-2.4-0.3-4.8-0.5-7.1-0.5c-22-0.4-37,11-37,11c-2.7,1.3-6.3,0-6.3,0l-8.7-5.3l-23.7-13.7
			c4.3,13.7,10.7,20,10.7,20c9.3,11.7,11,17,11,17c0.7,6.3-0.3,4-0.3,4c-37,55.3,4,79.3,4,79.3h45l-0.3-26.7l-11.7-5.6l7.7-14.4
			l12.2,5.7l12.5-5.7l7,14.4l-11,5.3l-0.7,27h39c5.3-3.3,7.3-5,17.7-17.3C175.9,559.5,166.7,449.1,166.7,449.1z M129.9,521.2h-16
			v-16.7h16V521.2z"/>
	</g>
</g>
</svg>
