<?xml version="1.0" standalone="no"?><!DOCTYPE svg PUBLIC "-//W3C//DTD SVG 1.1//EN" "http://www.w3.org/Graphics/SVG/1.1/DTD/svg11.dtd"><svg t="1545559997930" class="icon" style="" viewBox="0 0 1024 1024" version="1.1" xmlns="http://www.w3.org/2000/svg" p-id="33963" xmlns:xlink="http://www.w3.org/1999/xlink" width="200" height="200"><defs><style type="text/css"></style></defs><path d="M506.864198 186.469136c-32.592593 0-66.17284-9.876543-96.197531-2.17284s-55.111111 34.17284-82.271605 49.876544-61.82716 24-84.246914 46.419753-30.419753 56.592593-46.419753 84.246913-41.580247 51.160494-49.382716 82.271605 2.17284 63.604938 2.17284 96.197531-9.876543 66.074074-2.17284 96.197531 34.17284 55.012346 49.382716 82.271605 24 61.82716 46.419753 84.246913 56.592593 30.419753 84.246914 46.419753 51.160494 41.481481 82.271605 49.382716 63.604938-2.17284 96.197531-2.172839 66.074074 9.876543 96.19753 2.172839 55.012346-34.17284 82.271605-49.382716 61.82716-24 84.246914-46.419753 30.419753-56.592593 46.320988-84.246913 41.580247-51.160494 49.382716-82.271605-2.074074-63.604938-2.074074-96.197531 9.876543-66.074074 2.074074-96.197531-34.074074-55.012346-49.382716-82.271605-23.901235-61.82716-46.320988-84.246913-56.691358-30.419753-84.246914-46.419753-51.160494-41.481481-82.271605-49.876544-63.604938 2.17284-96.19753 2.17284z m0 567.604938c-18.271605 0-34.17284-15.802469-51.061729-20.345679s-39.506173 0.987654-54.320988-7.802469-21.432099-30.716049-33.975308-43.259259-34.271605-18.469136-43.259259-33.975309-3.160494-36.938272-7.80247-54.320988S296.296296 561.580247 296.296296 543.209877s15.802469-34.17284 20.345679-51.061729-0.987654-39.506173 7.802469-54.320988 30.716049-21.432099 43.25926-33.975308 18.469136-34.271605 33.975308-43.259259 36.938272-3.160494 54.320988-7.80247 32.790123-20.345679 51.061728-20.345679 34.17284 15.802469 51.061729 20.345679 39.506173-0.987654 54.320987 7.80247 21.432099 30.716049 33.975309 43.259259 34.271605 18.469136 43.160494 33.975308 3.259259 36.938272 7.901234 54.320988 20.345679 32.790123 20.345679 51.061729-15.802469 34.17284-20.345679 51.061728 0.987654 39.506173-7.901234 54.320988-30.617284 21.432099-43.160494 33.975308-18.666667 34.37037-34.074074 43.358025-36.938272 3.160494-54.320988 7.802469-32.888889 20.345679-51.160493 20.345679z" fill="#6ADDD6" p-id="33964"></path><path d="M648.790123 406.222222a64.296296 64.296296 0 0 1 9.876544 7.111111 106.567901 106.567901 0 0 1-9.876544-7.111111zM305.481481 837.135802c-17.777778-9.876543-38.222222-17.283951-56.493827-26.962962 22.024691 19.061728 52.938272 27.160494 79.012346 41.777777a254.123457 254.123457 0 0 0-22.518519-14.814815z m18.765433-399.209876c8.987654-15.506173 30.716049-21.432099 43.259259-33.975309s18.469136-34.271605 33.975308-43.259259 36.938272-3.160494 54.320988-7.802469 32.790123-20.345679 51.061729-20.345679 34.17284 15.802469 51.061728 20.345679c13.530864 3.654321 29.62963 1.08642 43.45679 3.950617A42.765432 42.765432 0 0 0 589.333333 345.679012c-15.308642-8.790123-37.037037-3.160494-54.419753-7.802469s-32.790123-20.641975-50.962963-20.641975-34.17284 15.802469-51.061728 20.345679-39.506173-0.987654-54.320988 7.802469-21.432099 30.716049-33.975308 43.259259-34.271605 18.469136-43.160494 33.975309-3.259259 36.938272-7.901235 54.320988-20.345679 32.790123-20.345679 51.061728 15.901235 34.17284 20.345679 51.061728-0.987654 39.506173 7.901235 54.320988c6.419753 11.160494 19.753086 17.382716 30.91358 24.592593a35.950617 35.950617 0 0 1-8-9.283951c-8.790123-15.209877-3.160494-36.938272-7.802469-54.320988S296.296296 561.580247 296.296296 543.209877s15.802469-34.17284 20.345679-51.061729-1.185185-39.012346 7.604939-54.222222zM378.469136 711.111111a37.432099 37.432099 0 0 0 10.864197 3.851852 286.419753 286.419753 0 0 0-21.82716-31.802469 151.703704 151.703704 0 0 0-25.580247-17.580247l2.567901 2.271605c12.54321 12.049383 18.469136 33.382716 33.975309 43.259259z m283.851852-492.246913l0.888889 0.493827a392.888889 392.888889 0 0 0-34.962963-24.098766 376.098765 376.098765 0 0 0 34.074074 23.604939z" fill="#00C4B8" p-id="33965"></path><path d="M865.777778 447.111111c-8.296296-31.111111-34.074074-55.012346-49.382716-82.271605s-23.901235-61.82716-46.320988-84.246913a140.049383 140.049383 0 0 0-42.074074-26.469136c9.876543 18.469136 16.790123 39.506173 27.160494 57.185185 15.802469 27.259259 41.580247 51.160494 49.382716 82.172839s-2.074074 63.604938-2.074074 96.197531 9.876543 66.17284 2.074074 96.197531-34.074074 55.012346-49.382716 82.271605-24.296296 61.82716-46.814815 84.246914-56.691358 30.419753-84.246914 46.419753-51.259259 41.580247-82.271605 49.876543-63.604938-2.074074-96.19753-2.074074-66.17284 9.876543-96.197531 2.074074-55.012346-34.074074-82.271605-49.876543c-13.234568-7.604938-27.950617-13.432099-42.17284-19.753087a107.950617 107.950617 0 0 0 19.160494 27.160494c22.419753 22.419753 56.592593 30.419753 84.246914 46.419753s51.160494 41.481481 82.271605 49.382716 63.604938-2.17284 96.197531-2.172839 66.074074 9.876543 96.19753 2.172839 55.012346-34.17284 82.271605-49.382716 61.82716-24 84.246914-46.419753S800 749.62963 815.901235 721.975309s41.580247-51.160494 49.382716-82.271605-2.074074-63.604938-2.074074-96.197531 10.666667-66.271605 2.567901-96.395062z" fill="#00C4B8" p-id="33966"></path><path d="M491.851852 491.851852l-29.728395-14.419753-29.62963 14.419753V267.259259h59.358025V491.851852zM581.135802 568.395062l-29.629629-14.419753-29.62963 14.419753V267.259259h59.259259v301.135803z" fill="#DC4E45" p-id="33967"></path><path d="M526.123457 245.925926a28.938272 28.938272 0 0 1-29.037037 29.037037l-188.740741 72.592593a29.037037 29.037037 0 0 1-29.037037-29.037037V139.555556a29.037037 29.037037 0 0 1 29.037037-29.037037l188.740741 72.592592a29.037037 29.037037 0 0 1 29.037037 29.037037z" fill="#FF6B5B" p-id="33968"></path><path d="M491.654321 245.925926a29.037037 29.037037 0 0 0 29.037037 29.037037l188.740741 72.592593a28.938272 28.938272 0 0 0 29.037037-29.037037V139.555556a29.037037 29.037037 0 0 0-29.037037-29.037037l-188.740741 72.592592a29.037037 29.037037 0 0 0-29.037037 29.037037z" fill="#FF6B5B" p-id="33969"></path><path d="M455.012346 173.333333m31.308642 0l48.888889 0q31.308642 0 31.308642 31.308642l0 48.987655q0 31.308642-31.308642 31.308642l-48.888889 0q-31.308642 0-31.308642-31.308642l0-48.987655q0-31.308642 31.308642-31.308642Z" fill="#DC4E45" p-id="33970"></path><path d="M761.382716 421.728395a29.62963 29.62963 0 1 1-18.37037-37.234568 29.62963 29.62963 0 0 1 18.37037 37.234568zM841.185185 448.592593a29.62963 29.62963 0 1 1-18.37037-37.135803 29.62963 29.62963 0 0 1 18.37037 37.135803zM782.419753 499.160494a29.62963 29.62963 0 1 1-18.469136-37.234568 29.62963 29.62963 0 0 1 18.469136 37.234568zM305.481481 700.444444a29.62963 29.62963 0 1 1-3.950617-41.28395 29.62963 29.62963 0 0 1 3.950617 41.28395zM370.37037 754.074074a29.62963 29.62963 0 1 1-3.950617-41.283951 29.62963 29.62963 0 0 1 3.950617 41.283951zM297.382716 780.246914a29.62963 29.62963 0 1 1-3.851852-41.382716 29.62963 29.62963 0 0 1 3.851852 41.382716z" fill="#DC4E45" p-id="33971"></path><path d="M715.45679 780.246914a52.345679 52.345679 0 1 1-52.246913-52.246914A52.246914 52.246914 0 0 1 715.45679 780.246914zM277.333333 468.54321a52.345679 52.345679 0 1 1-52.345679-52.246914 52.345679 52.345679 0 0 1 52.345679 52.246914z" fill="#FFFFFF" p-id="33972"></path></svg>