<?xml version="1.0" standalone="no"?><!DOCTYPE svg PUBLIC "-//W3C//DTD SVG 1.1//EN" "http://www.w3.org/Graphics/SVG/1.1/DTD/svg11.dtd"><svg t="1545558504901" class="icon" style="" viewBox="0 0 1024 1024" version="1.1" xmlns="http://www.w3.org/2000/svg" p-id="20156" xmlns:xlink="http://www.w3.org/1999/xlink" width="200" height="200"><defs><style type="text/css"></style></defs><path d="M384.4 320.81c0-72.63 63.35-131.5 141.5-131.5s141.5 58.87 141.5 131.5z" fill="#F78E61" p-id="20157"></path><path d="M521 196.07c54.4 17.58 93.7 65.14 95 121.4a2.79 2.79 0 0 1-2.8 2.84H376.94s13.38-59.79 48.9-92.48C458.91 197.39 514 193.8 521 196.07z" fill="#FFBD7B" p-id="20158"></path><path d="M41.4 487.31h940L932 812.74a221.84 221.84 0 0 1-219.33 188.57H299.4s-82-14-134-54-74-124-74-124z" fill="#8AABFF" p-id="20159"></path><path d="M41.4 487.31h940L932 812.74a221.84 221.84 0 0 1-219.33 188.56h-400A221.84 221.84 0 0 1 93.62 814.44z" fill="#5983E2" p-id="20160"></path><path d="M915.7 481.68L875 749.75a221.84 221.84 0 0 1-219.31 188.56h-400a221.38 221.38 0 0 1-143.56-52.72c-18-15.3-78.67-401.19-78.67-401.19z" fill="#8AABFF" p-id="20161"></path><path d="M1007 471.45H869V188.71a181.22 181.22 0 0 0-362-12A165.05 165.05 0 0 0 368.15 300c-5.15 20.49 10.65 40.3 31.78 40.3h256.31c21.13 0 36.93-19.8 31.78-40.3a165 165 0 0 0-150.88-124.34C543.78 98.37 608.8 37.5 687.79 37.5 771.17 37.5 839 105.33 839 188.71v282.74H17a15 15 0 0 0 0 30h11.33l48.56 311.29C92.06 928.92 196.53 1016.5 320 1016.5h384c123.46 0 227.93-87.58 243.09-203.76l48.56-311.29H1007a15 15 0 0 0 0-30zM658.92 307.31a2 2 0 0 1-0.45 1.89 2.72 2.72 0 0 1-2.24 1.1h-256.3a2.72 2.72 0 0 1-2.24-1.1 2 2 0 0 1-0.45-1.89 135.6 135.6 0 0 1 47.28-72.92 134.93 134.93 0 0 1 167.12 0 135.6 135.6 0 0 1 47.28 72.92z m258.51 501l-0.06 0.38C904.24 910.05 812.51 986.5 704 986.5H320c-108.5 0-200.23-76.45-213.37-177.82v-0.19L72.86 592.25h878.28z m38.38-246H68.18l-9.49-60.81h906.62z" fill="#192B3A" p-id="20162"></path></svg>