<?xml version="1.0" standalone="no"?><!DOCTYPE svg PUBLIC "-//W3C//DTD SVG 1.1//EN" "http://www.w3.org/Graphics/SVG/1.1/DTD/svg11.dtd"><svg t="1545559599932" class="icon" style="" viewBox="0 0 1024 1024" version="1.1" xmlns="http://www.w3.org/2000/svg" p-id="31054" xmlns:xlink="http://www.w3.org/1999/xlink" width="200" height="200"><defs><style type="text/css"></style></defs><path d="M526.336 217.6L205.824 315.904l287.744 177.152 262.656 141.312 92.672-62.976-111.104-287.232-211.456-66.56z" fill="#D32C27" p-id="31055"></path><path d="M901.067268 872.996319a77.312 77.312 0 1 0-45.212844-147.866089 77.312 77.312 0 1 0 45.212844 147.866089Z" fill="#FFFFFF" p-id="31056"></path><path d="M206.848 317.952C251.904 208.384 310.784 150.016 384 142.848c110.08-11.264 173.568 18.944 222.208 30.72 49.152 11.776 162.816 44.544 227.84 122.88 65.024 78.848 73.216 358.4 56.32 435.712-17.408 76.8-73.216-17.92-107.008-83.968-22.528-44.032-69.632-163.84-141.824-359.936" fill="#D32C27" p-id="31057"></path><path d="M67.072 469.504C87.04 427.52 123.904 336.384 184.32 322.56c60.416-13.824 430.592 121.856 481.792 168.448 51.2 46.592 130.56 124.416 130.048 182.784-1.024 57.856-76.288 127.488-101.888 135.168-25.6 7.68-305.152-179.712-398.336-226.816-93.184-47.616-248.32-71.168-228.864-112.64z" fill="#FFFFFF" p-id="31058"></path></svg>