<?xml version="1.0" standalone="no"?><!DOCTYPE svg PUBLIC "-//W3C//DTD SVG 1.1//EN" "http://www.w3.org/Graphics/SVG/1.1/DTD/svg11.dtd"><svg t="1545559389437" class="icon" style="" viewBox="0 0 1024 1024" version="1.1" xmlns="http://www.w3.org/2000/svg" p-id="23721" xmlns:xlink="http://www.w3.org/1999/xlink" width="200" height="200"><defs><style type="text/css"></style></defs><path d="M390.4 68.1h243.8c27 0 45.1 27.7 34.3 52.4l-36.7 116.1c-5.9 13.7-19.4 22.5-34.3 22.5H427.1c-14.9 0-28.4-8.8-34.3-22.5l-36.7-116.1c-10.8-24.7 7.3-52.4 34.3-52.4z" fill="#4F95FC" p-id="23722"></path><path d="M424.5 240.3l-71.2 615 159.5 104.3 158.5-99.7-71.2-619.6z" fill="#64C8FF" p-id="23723"></path><path d="M603.1 262L399 456.1l-16.2 146.5 232.9-231.4z" fill="#FFF188" p-id="23724"></path><path d="M589 300.9l7.3 63.5-189.4 188.2 9.7-87.8L589 300.9m14.1-38.9L399 456.1l-16.1 146.6 232.8-231.4L603.1 262z" fill="" p-id="23725"></path><path d="M622.4 434.2L374.8 669.5 358.1 814l276.7-271.7z" fill="#FFF188" p-id="23726"></path><path d="M608.2 473.1l7.2 62.3-232.9 228.8 9.9-85.9 215.8-205.2m14.2-38.9L374.8 669.5 358.1 814l276.7-271.7-12.4-108.1z" fill="" p-id="23727"></path><path d="M583.6 258.8l68 591.6L513 937.6l-140-91.5 68-587.3h142.6m16.5-18.5H424.5l-71.2 615 159.5 104.2 158.5-99.7-71.2-619.5z" fill="" p-id="23728"></path><path d="M634.2 86.6c6.5 0 12.3 3.1 15.9 8.6 3.6 5.4 4.1 12 1.5 18l-0.4 0.9-0.3 0.9-36.3 115c-3.2 6.5-9.8 10.7-17 10.7H427.1c-7.3 0-13.9-4.2-17-10.7l-36.3-115-0.3-0.9-0.4-0.9c-2.6-6-2-12.5 1.5-18 3.6-5.4 9.3-8.6 15.9-8.6h243.7m0-18.5H390.4c-27 0-45.1 27.7-34.3 52.4l36.7 116.1c5.9 13.7 19.4 22.5 34.3 22.5h170.4c14.9 0 28.4-8.8 34.3-22.5l36.7-116.1c10.8-24.7-7.4-52.4-34.3-52.4z" fill="" p-id="23729"></path></svg>