<?xml version="1.0" standalone="no"?><!DOCTYPE svg PUBLIC "-//W3C//DTD SVG 1.1//EN" "http://www.w3.org/Graphics/SVG/1.1/DTD/svg11.dtd"><svg t="1545419941977" class="icon" style="" viewBox="0 0 1024 1024" version="1.1" xmlns="http://www.w3.org/2000/svg" p-id="3246" xmlns:xlink="http://www.w3.org/1999/xlink" width="200" height="200"><defs><style type="text/css"></style></defs><path d="M514.9 960.2c-1.9 0-3.8-0.1-5.7-0.2-69.1-3.5-97-62-102.1-92.4-1.7-10.4 5.3-20.2 15.7-22 10.3-1.8 20.2 5.2 22 15.6 0.4 2.4 10.9 57.9 66.4 60.7 54.4 3.5 67.7-58.5 68.2-61.1 2-10.4 12.1-17.2 22.4-15 10.3 2 17.1 12.1 15 22.4-6.4 32.4-35.9 92-101.9 92zM829.6 775.1h-42.8V408.8c0-137-112.1-248.5-250-248.5h-49.7c-137.8 0-250 111.5-250 248.5v366.3h-42.8V408.8c0-39.2 7.8-77.2 23.1-113.2 14.8-34.6 36-65.8 62.9-92.6 26.9-26.8 58.2-47.8 93-62.5 36.1-15.2 74.3-23 113.7-23h49.7c39.3 0 77.6 7.7 113.7 23 34.8 14.7 66.1 35.7 93 62.5 26.9 26.8 48.1 57.9 62.9 92.6 15.3 35.9 23.1 74 23.1 113.2v366.3z" fill="#333333" p-id="3247"></path><path d="M521.4 149.7h-18.7c-10.5 0-19.2-8.6-19.2-19.2V83.4c0-10.5 8.6-19.2 19.2-19.2h18.7c10.5 0 19.2 8.6 19.2 19.2v47.1c-0.1 10.5-8.7 19.2-19.2 19.2zM903.4 808.3H120.6c-11.8 0-21.4-9.6-21.4-21.4s9.6-21.4 21.4-21.4h782.8c11.8 0 21.4 9.6 21.4 21.4s-9.6 21.4-21.4 21.4z" fill="#333333" p-id="3248"></path></svg>