<?xml version="1.0" standalone="no"?><!DOCTYPE svg PUBLIC "-//W3C//DTD SVG 1.1//EN" "http://www.w3.org/Graphics/SVG/1.1/DTD/svg11.dtd"><svg t="1545419961793" class="icon" style="" viewBox="0 0 1035 1024" version="1.1" xmlns="http://www.w3.org/2000/svg" p-id="3593" xmlns:xlink="http://www.w3.org/1999/xlink" width="202.1484375" height="200"><defs><style type="text/css"></style></defs><path d="M265.945981 1024c-6.727553 0-17.192635-2.948495-22.674345-6.727553-20.141131-13.745803-20.473356-37.832103-20.930165-74.293779-0.332225-22.923514-1.038203-76.619353-14.45178-85.838592C75.747263 766.318112 0 627.365074 0 475.870549 0 213.454457 232.266688 0 517.730878 0s517.68935 213.454457 517.689351 475.829021c0 262.374564-232.22516 475.829021-517.689351 475.829021-23.255739 0-46.677589-1.411956-69.684159-4.277395-12.790656 3.031552-50.913456 22.009895-76.45324 34.717496-59.758942 29.775651-86.046232 41.901857-105.647498 41.901857zM517.730878 66.444967C268.894476 66.444967 66.444967 250.123773 66.444967 475.870549c0 129.276989 65.28218 248.296537 179.069187 326.493957 41.735745 28.69592 42.607835 92.856842 43.230756 139.700544l0.083057 6.229216c16.445129-7.392003 37.209182-17.732501 53.155973-25.664369 64.119393-31.935112 90.655852-44.061319 111.544489-41.528104 21.137805 2.699327 42.773948 4.111282 64.202449 4.111282 248.836402 0 451.285911-183.637278 451.285912-409.384054S766.525752 66.444967 517.730878 66.444967z" fill="#898989" p-id="3594"></path><path d="M724.08403 425.330846H311.336199a33.222484 33.222484 0 1 1 0-66.444967h412.706302a33.222484 33.222484 0 0 1 0.041529 66.444967zM724.08403 610.753832H311.336199a33.222484 33.222484 0 1 1 0-66.444967h412.706302a33.222484 33.222484 0 0 1 0.041529 66.444967z" fill="#898989" p-id="3595"></path></svg>