<?xml version="1.0" standalone="no"?><!DOCTYPE svg PUBLIC "-//W3C//DTD SVG 1.1//EN" "http://www.w3.org/Graphics/SVG/1.1/DTD/svg11.dtd"><svg t="1545421184523" class="icon" style="" viewBox="0 0 1024 1024" version="1.1" xmlns="http://www.w3.org/2000/svg" p-id="3301" xmlns:xlink="http://www.w3.org/1999/xlink" width="200" height="200"><defs><style type="text/css"></style></defs><path d="M867.555556 483.555556V184.888889a28.444444 28.444444 0 0 0-28.444445-28.444445h-654.222222a28.444444 28.444444 0 0 0-28.444445 28.444445V483.555556h110.421334l49.038222-98.048c11.804444-23.608889 46.620444-19.797333 53.020444 5.802666l59.960889 239.872 112.725334-383.203555c8.021333-27.335111 46.791111-27.192889 54.613333 0.199111l90.936889 318.236444 25.998222-64.967111A28.444444 28.444444 0 0 1 739.555556 483.555556h128z m0 56.888888h-108.743112l-49.749333 124.330667c-10.069333 25.173333-46.307556 23.324444-53.76-2.730667L568.490667 358.115556 453.973333 747.576889c-8.163556 27.818667-47.843556 27.022222-54.897777-1.137778l-66.673778-266.723555-22.471111 44.999111A28.444444 28.444444 0 0 1 284.444444 540.444444H156.444444v298.666667a28.444444 28.444444 0 0 0 28.444445 28.444445h654.222222a28.444444 28.444444 0 0 0 28.444445-28.444445V540.444444zM184.888889 99.555556h654.222222a85.333333 85.333333 0 0 1 85.333333 85.333333v654.222222a85.333333 85.333333 0 0 1-85.333333 85.333333h-654.222222a85.333333 85.333333 0 0 1-85.333333-85.333333v-654.222222a85.333333 85.333333 0 0 1 85.333333-85.333333z" p-id="3302"></path></svg>