<?xml version="1.0" standalone="no"?><!DOCTYPE svg PUBLIC "-//W3C//DTD SVG 1.1//EN" "http://www.w3.org/Graphics/SVG/1.1/DTD/svg11.dtd"><svg t="1545421190979" class="icon" style="" viewBox="0 0 1024 1024" version="1.1" xmlns="http://www.w3.org/2000/svg" p-id="3424" xmlns:xlink="http://www.w3.org/1999/xlink" width="200" height="200"><defs><style type="text/css"></style></defs><path d="M876.831 428.16c-22.419 0-40.592-18.174-40.592-40.593-0.099-89.634-72.738-162.273-162.372-162.371-51.277 0-98.591 24.047-129.897 65.971-15.312 20.54-49.8 20.54-65.095 0-31.16-41.924-78.474-65.971-129.751-65.971-89.635 0.098-162.274 72.737-162.372 162.371 0 22.419-18.174 40.593-40.593 40.593-22.419 0-40.593-18.174-40.593-40.593 0-134.314 109.26-243.557 243.558-243.557a240.013 240.013 0 0 1 162.371 62.692 240.003 240.003 0 0 1 162.371-62.692c134.298 0 243.558 109.243 243.558 243.557 0.001 22.419-18.174 40.593-40.593 40.593zM484.525 945.622c-5.196-4.644-128.63-114.829-233.393-248.835-12.79-17.682-9.312-42.313 7.875-55.761 17.187-13.449 41.931-10.901 56.018 5.767 71.866 91.886 154.822 173.738 196.47 213.243 41.908-39.375 125.335-121.34 197.184-213.292a40.598 40.598 0 0 1 69.706 9.745 40.595 40.595 0 0 1-5.731 40.249C667.778 831.101 543.579 941.091 538.352 945.719c-15.388 13.578-38.489 13.536-53.827-0.097z" p-id="3425"></path><path d="M552.088 712.31c-0.828 0-1.623 0-2.516-0.081a40.594 40.594 0 0 1-33.79-22.358l-90.506-180.996-42.379 63.585a40.593 40.593 0 0 1-33.773 18.072H146.159c-22.417-0.003-40.587-18.176-40.587-40.592s18.171-40.59 40.587-40.593h181.239l69.137-103.706a40.592 40.592 0 0 1 70.08 4.368l90.505 180.995 42.379-63.585a40.596 40.596 0 0 1 33.774-18.072H876.83c22.417 0.003 40.587 18.177 40.587 40.593s-18.171 40.589-40.587 40.592H654.999l-69.137 103.707a40.595 40.595 0 0 1-33.774 18.071z" p-id="3426"></path></svg>