<?xml version="1.0" standalone="no"?><!DOCTYPE svg PUBLIC "-//W3C//DTD SVG 1.1//EN" "http://www.w3.org/Graphics/SVG/1.1/DTD/svg11.dtd"><svg t="1545420512183" class="icon" style="" viewBox="0 0 1024 1024" version="1.1" xmlns="http://www.w3.org/2000/svg" p-id="11580" xmlns:xlink="http://www.w3.org/1999/xlink" width="200" height="200"><defs><style type="text/css"></style></defs><path d="M512 71.823647c242.558717 0 440.176353 197.617635 440.176353 440.176353S754.558717 952.176353 512 952.176353 71.823647 755.174349 71.823647 512 269.441283 71.823647 512 71.823647z m0-70.797595C230.040882 1.026052 1.026052 230.040882 1.026052 512s228.399198 510.973948 510.973948 510.973948c281.959118 0 510.973948-229.01483 510.973948-510.973948S793.959118 1.026052 512 1.026052z m0 809.55511c-19.7002 0-35.090982-16.006413-35.090982-35.090982V458.44008c0-19.7002 16.006413-35.090982 35.090982-35.090982s35.090982 16.006413 35.090982 35.090982v317.0501c0 19.084569-15.390782 35.090982-35.090982 35.090982z m0-440.176352c-19.7002 0-35.090982-16.006413-35.090982-35.090982v-70.797596c0-19.7002 16.006413-35.090982 35.090982-35.090981s35.090982 16.006413 35.090982 35.090981v70.181964c0 19.7002-15.390782 35.706613-35.090982 35.706614z" p-id="11581"></path></svg>