<?xml version="1.0" standalone="no"?><!DOCTYPE svg PUBLIC "-//W3C//DTD SVG 1.1//EN" "http://www.w3.org/Graphics/SVG/1.1/DTD/svg11.dtd"><svg t="1545418866542" class="icon" style="" viewBox="0 0 2468 1024" version="1.1" xmlns="http://www.w3.org/2000/svg" p-id="3973" xmlns:xlink="http://www.w3.org/1999/xlink" width="482.03125" height="200"><defs><style type="text/css"></style></defs><path d="M830.577778 422.115556c2.275556 20.48 5.688889 39.822222 11.377778 59.164444 15.928889-14.791111 27.306667-26.168889 46.648888-43.235556 4.551111 3.413333 12.515556 10.24 17.066667 13.653334-19.342222 17.066667-37.546667 34.133333-55.751111 52.337778 7.964444 23.893333 20.48 47.786667 40.96 67.128888 1.137778 1.137778 2.275556 0 3.413333-1.137777 3.413333-10.24 5.688889-26.168889 5.688889-38.684445 3.413333 2.275556 7.964444 4.551111 12.515556 7.964445 3.413333 3.413333 5.688889 7.964444 5.688889 13.653333-2.275556 13.653333-4.551111 26.168889-9.102223 34.133333-3.413333 6.826667-7.964444 9.102222-12.515555 10.24-4.551111 0-10.24-2.275556-14.791111-6.826666-22.755556-19.342222-36.408889-43.235556-47.786667-69.404445-18.204444 19.342222-38.684444 40.96-54.613333 62.577778-3.413333-3.413333-6.826667-9.102222-9.102222-13.653333-1.137778-4.551111-1.137778-10.24 2.275555-14.791111 12.515556-14.791111 32.995556-37.546667 52.337778-58.026667-6.826667-21.617778-11.377778-47.786667-15.928889-75.093333-22.755556 1.137778-45.511111 3.413333-67.128889 4.551111 1.137778 12.515556 1.137778 31.857778 1.137778 44.373333 13.653333-4.551111 27.306667-10.24 43.235555-15.928889 2.275556 5.688889 5.688889 13.653333 6.826667 19.342222-17.066667 5.688889-34.133333 11.377778-50.062222 18.204445-1.137778 23.893333-2.275556 47.786667-4.551111 68.266666-1.137778 7.964444-3.413333 14.791111-6.826667 19.342223-4.551111 5.688889-10.24 10.24-17.066667 12.515555-6.826667 2.275556-22.755556 2.275556-29.582222 1.137778-4.551111-1.137778-7.964444-3.413333-10.24-7.964444-2.275556-4.551111-3.413333-10.24-4.551111-14.791112 11.377778 2.275556 22.755556 2.275556 34.133333 2.275556 7.964444-1.137778 12.515556-5.688889 12.515556-12.515556 2.275556-19.342222 3.413333-38.684444 3.413333-59.164444-17.066667 7.964444-47.786667 21.617778-61.44 28.444444-2.275556-4.551111-3.413333-9.102222-3.413333-12.515555-1.137778-5.688889 1.137778-11.377778 5.688889-13.653333 20.48-9.102222 37.546667-15.928889 59.164444-25.031112v-50.062222c-22.755556 2.275556-45.511111 5.688889-67.128889 10.24 0-4.551111 0-9.102222 1.137778-13.653333 1.137778-4.551111 3.413333-9.102222 9.102222-10.24 15.928889-3.413333 36.408889-5.688889 55.751112-7.964445 0-13.653333-1.137778-27.306667-2.275556-40.96-15.928889 4.551111-40.96 12.515556-54.613333 18.204445-1.137778-5.688889-2.275556-11.377778-2.275556-15.928889 0-4.551111 2.275556-9.102222 7.964445-10.24 27.306667-10.24 68.266667-20.48 103.537777-27.306667 3.413333 5.688889 6.826667 13.653333 10.24 19.342223-14.791111 2.275556-29.582222 5.688889-43.235555 9.102222 1.137778 15.928889 2.275556 29.582222 2.275555 44.373333 19.342222-1.137778 48.924444-3.413333 64.853334-4.551111-2.275556-22.755556-4.551111-45.511111-5.688889-69.404444h21.617778c1.137778 22.755556 2.275556 45.511111 5.688888 67.128888 29.582222-1.137778 59.164444-1.137778 88.746667-1.137777v20.48c-25.031111 3.413333-62.577778 3.413333-85.333333 5.688889z m58.026666-29.582223c-12.515556-15.928889-28.444444-30.72-45.511111-42.097777 4.551111-4.551111 10.24-10.24 14.791111-13.653334 13.653333 9.102222 28.444444 20.48 37.546667 30.72 4.551111 4.551111 3.413333 10.24 0 15.928889 0 2.275556-3.413333 5.688889-6.826667 9.102222zM1046.755556 456.248889c13.653333 23.893333 37.546667 69.404444 47.786666 91.022222 2.275556 5.688889 1.137778 10.24-2.275555 14.791111-2.275556 3.413333-6.826667 7.964444-10.24 11.377778-10.24-26.168889-30.72-69.404444-45.511111-95.573333-18.204444 34.133333-39.822222 80.782222-55.751112 118.328889-3.413333-2.275556-9.102222-5.688889-11.377777-9.102223-3.413333-4.551111-3.413333-10.24-1.137778-15.928889 17.066667-38.684444 37.546667-77.368889 56.888889-112.64-19.342222 1.137778-39.822222 5.688889-58.026667 9.102223 0-4.551111 1.137778-9.102222 1.137778-12.515556 1.137778-4.551111 5.688889-9.102222 11.377778-9.102222 12.515556-2.275556 34.133333-5.688889 47.786666-6.826667v-51.2c-7.964444 1.137778-20.48 2.275556-29.582222 3.413334-5.688889 13.653333-12.515556 30.72-17.066667 42.097777-4.551111-3.413333-7.964444-6.826667-11.377777-10.24-2.275556-3.413333-4.551111-7.964444-2.275556-12.515555 10.24-27.306667 23.893333-53.475556 37.546667-79.644445 5.688889 2.275556 14.791111 4.551111 19.342222 5.688889-4.551111 7.964444-12.515556 23.893333-17.066667 32.995556 27.306667-3.413333 54.613333-6.826667 83.057778-6.826667 0 5.688889 1.137778 13.653333 1.137778 19.342222-11.377778 1.137778-29.582222 1.137778-43.235556 2.275556v51.2c15.928889-1.137778 35.271111-2.275556 50.062223-2.275556v20.48c-19.342222 0-35.271111 1.137778-51.2 2.275556z m58.026666 127.431111c1.137778-67.128889 3.413333-133.12 9.102222-200.248889-4.551111 1.137778-7.964444 1.137778-12.515555 3.413333 0-5.688889 0-11.377778 2.275555-15.928888 1.137778-3.413333 3.413333-6.826667 7.964445-7.964445 22.755556-6.826667 47.786667-9.102222 72.817778-7.964444 9.102222 1.137778 19.342222 5.688889 23.893333 13.653333 4.551111 5.688889 5.688889 12.515556 5.688889 20.48 2.275556 45.511111 7.964444 134.257778 5.688889 183.182222-39.822222 1.137778-77.368889 4.551111-114.915556 11.377778z m87.608889-194.56c-1.137778-6.826667-5.688889-13.653333-11.377778-13.653333-15.928889-1.137778-31.857778 0-45.511111 3.413333-7.964444 59.164444-7.964444 120.604444-9.102222 180.906667 23.893333-3.413333 47.786667-5.688889 72.817778-5.688889 0-47.786667-2.275556-122.88-6.826667-164.977778zM1323.235556 560.924444c-15.928889 11.377778-31.857778 22.755556-45.511112 35.271112-3.413333-3.413333-5.688889-7.964444-5.688888-13.653334-1.137778-4.551111 0-10.24 4.551111-12.515555 11.377778-9.102222 26.168889-18.204444 38.684444-27.306667 0-20.48-1.137778-63.715556 0-86.471111 0-4.551111-3.413333-7.964444-7.964444-7.964445-10.24 0-23.893333 3.413333-32.995556 6.826667-1.137778-5.688889-1.137778-11.377778 1.137778-14.791111 1.137778-3.413333 4.551111-6.826667 9.102222-7.964444 6.826667-2.275556 19.342222-4.551111 26.168889-3.413334 7.964444 0 14.791111 3.413333 19.342222 7.964445 4.551111 5.688889 7.964444 12.515556 7.964445 22.755555v83.057778c9.102222 1.137778 18.204444 2.275556 28.444444 3.413333 1.137778-38.684444 4.551111-77.368889 10.24-114.915555-4.551111 0-7.964444 1.137778-11.377778 2.275555 0-4.551111 0-9.102222 1.137778-12.515555 1.137778-3.413333 3.413333-5.688889 7.964445-6.826667 17.066667-4.551111 34.133333-5.688889 52.337777-7.964444 2.275556-7.964444 4.551111-17.066667 7.964445-23.893334-27.306667 1.137778-59.164444 4.551111-83.057778 7.964445 0-4.551111 1.137778-9.102222 2.275556-13.653334 1.137778-3.413333 4.551111-5.688889 7.964444-5.688888 13.653333-2.275556 29.582222-4.551111 45.511111-5.688889-5.688889-7.964444-14.791111-15.928889-22.755555-22.755556l17.066666-12.515555c6.826667 5.688889 13.653333 12.515556 20.48 20.48 1.137778 2.275556 2.275556 4.551111 2.275556 6.826666 0 2.275556-1.137778 5.688889-2.275556 6.826667 7.964444 0 25.031111-1.137778 39.822222-1.137778 6.826667-11.377778 12.515556-23.893333 21.617778-34.133333l19.342222 9.102222c-5.688889 7.964444-12.515556 15.928889-17.066666 25.031111 11.377778 0 35.271111 0 48.924444 1.137778v17.066667c-20.48-1.137778-59.164444-1.137778-78.506666 0-3.413333 7.964444-5.688889 15.928889-7.964445 23.893333 9.102222 0 18.204444-1.137778 27.306667-1.137778 11.377778 0 20.48 3.413333 26.168889 9.102222 5.688889 5.688889 9.102222 13.653333 11.377777 23.893334 5.688889 34.133333 6.826667 69.404444 6.826667 103.537777-55.751111-1.137778-100.124444-1.137778-151.324444 6.826667 51.2 5.688889 110.364444 15.928889 159.288889 26.168889 4.551111 1.137778 7.964444 4.551111 9.102222 7.964444 2.275556 4.551111 2.275556 10.24 1.137778 15.928889-70.542222-15.928889-141.084444-27.306667-215.04-36.408889z m0-163.84c-12.515556-19.342222-25.031111-37.546667-42.097778-53.475555l17.066666-13.653333c12.515556 13.653333 23.893333 28.444444 34.133334 42.097777 3.413333 4.551111 2.275556 9.102222 1.137778 13.653334-1.137778 5.688889-4.551111 9.102222-10.24 11.377777z m174.08 102.4c-37.546667 0-73.955556 2.275556-110.364445 6.826667 0 5.688889-1.137778 13.653333-1.137778 20.48 35.271111-4.551111 73.955556-4.551111 111.502223-5.688889 1.137778-3.413333 1.137778-13.653333 0-21.617778z m-3.413334-38.684444c-34.133333-1.137778-69.404444 1.137778-102.4 5.688889-1.137778 6.826667-2.275556 17.066667-2.275555 21.617778 35.271111-4.551111 70.542222-6.826667 106.951111-6.826667 0-4.551111-1.137778-12.515556-2.275556-20.48z m-4.551111-31.857778c-2.275556-4.551111-6.826667-6.826667-12.515555-6.826666-27.306667-1.137778-53.475556 2.275556-79.644445 6.826666-1.137778 5.688889-2.275556 15.928889-2.275555 20.48 31.857778-4.551111 64.853333-5.688889 98.986666-5.688889-2.275556-5.688889-3.413333-10.24-4.551111-14.791111zM1804.515556 378.88c-23.893333 21.617778-62.577778 38.684444-95.573334 50.062222 20.48 39.822222 23.893333 93.297778 13.653334 138.808889-2.275556 10.24-9.102222 20.48-19.342223 23.893333-7.964444 4.551111-25.031111 4.551111-34.133333 1.137778-3.413333-1.137778-5.688889-5.688889-7.964444-10.24-2.275556-4.551111-3.413333-10.24-4.551112-14.791111 11.377778 2.275556 23.893333 3.413333 32.995556 2.275556 5.688889-1.137778 7.964444-5.688889 9.102222-11.377778 11.377778-40.96 5.688889-100.124444-23.893333-142.222222 37.546667-12.515556 77.368889-27.306667 109.226667-53.475556 3.413333-3.413333 1.137778-7.964444-2.275556-9.102222-54.613333-7.964444-124.017778-3.413333-180.906667 17.066667 0-4.551111 0-11.377778 2.275556-15.928889 1.137778-4.551111 4.551111-7.964444 9.102222-9.102223 53.475556-12.515556 113.777778-18.204444 170.666667-11.377777 7.964444 1.137778 22.755556 6.826667 27.306666 13.653333 6.826667 10.24 5.688889 20.48-5.688888 30.72z" fill="#515151" p-id="3974"></path><path d="M1234.488889 909.084444c-588.231111 0-894.293333-47.786667-896.568889-48.924444-180.906667-20.48-319.715556-185.457778-308.337778-367.502222l1.137778-34.133334c10.24-184.32 164.977778-356.124444 343.608889-384.568888 1.137778 0 274.204444-68.266667 846.506667-68.266667h13.653333c581.404444 1.137778 856.746667 71.68 859.022222 71.68 177.493333 31.857778 332.231111 204.8 343.608889 385.706667l2.275556 29.582222c11.377778 183.182222-126.293333 348.16-307.2 367.502222-2.275556 1.137778-309.475556 48.924444-897.706667 48.924444z m-1181.013333-449.422222l-1.137778 34.133334c-10.24 170.666667 119.466667 324.266667 288.995555 343.608888 3.413333 0 308.337778 48.924444 893.155556 48.924445 585.955556 0 892.017778-47.786667 895.431111-48.924445 169.528889-18.204444 298.097778-171.804444 286.72-343.608888l-2.275556-29.582223c-10.24-171.804444-157.013333-334.506667-326.542222-365.226666-3.413333-1.137778-276.48-70.542222-854.471111-71.68h-13.653333c-568.888889 0-839.68 67.128889-841.955556 68.266666-169.528889 27.306667-315.164444 191.146667-324.266666 364.088889z" fill="#515151" p-id="3975"></path><path d="M1234.488889 1018.311111c-588.231111 0-844.231111-47.786667-846.506667-48.924444-179.768889-20.48-331.093333-232.106667-344.746666-365.226667l22.755555-2.275556c12.515556 122.88 158.151111 326.542222 325.404445 344.746667 3.413333 1.137778 257.137778 48.924444 843.093333 48.924445 584.817778 0 820.337778-47.786667 822.613333-47.786667 168.391111-18.204444 318.577778-199.111111 348.16-350.435556l22.755556 4.551111c-15.928889 79.644444-62.577778 166.115556-127.431111 235.52-71.68 77.368889-157.013333 124.017778-240.071111 133.12-1.137778 0-237.795556 47.786667-826.026667 47.786667z" fill="#515151" p-id="3976"></path><path d="M267.8784 820.178489l71.998578 120.001422-9.762134 5.859556-71.998577-120.0128zM383.260444 848.702578l64.284445 113.9712-9.921422 5.597866-64.273067-113.982577zM493.2608 855.529244l67.1744 117.5552-9.875911 5.643378-67.1744-117.5552zM615.799467 869.148444l48.628622 111.616-10.433422 4.528356-48.617245-111.616zM738.110578 876.316444l48.514844 109.169778-10.399289 4.619378-48.514844-109.169778zM850.852978 882.688l36.408889 111.388444-10.820267 3.538489-36.408889-111.388444zM952.024178 886.442667l36.329244 109.021866-10.786133 3.595378-36.340622-109.010489zM1105.1008 889.161956l22.072889 108.1344-11.150222 2.275555-22.072889-108.1344zM1259.201422 892.768711l11.286756 1.399467-13.300622 107.269689-11.286756-1.399467zM1362.568533 891.551289l11.298134 1.308444-12.049067 103.970134-11.298133-1.308445zM1462.545067 887.387022l11.275377 1.479111-14.358755 110.569245-11.286756-1.467734zM1576.0384 888.411022l11.229867 1.820445-16.600178 102.206577-11.229867-1.820444zM1670.735644 879.138133l11.355023 0.796445-7.600356 107.815822-11.343644-0.796444zM1776.514844 876.9536l11.320889 1.069511-9.910044 105.358222-11.332267-1.080889zM1886.9248 868.784356l11.355022 0.841955-7.68 103.241956-11.343644-0.841956zM1985.251556 858.862933l11.343644 0.955734-8.795022 104.300089-11.343645-0.955734zM2079.175111 848.2816l11.320889 1.103644-9.887289 100.784356-11.320889-1.115022zM2163.484444 835.902578l11.320889 1.069511-7.7824 82.693689-11.332266-1.069511zM2235.733333 811.235556h11.377778v54.613333h-11.377778z" fill="#515151" p-id="3977"></path></svg>