<?xml version="1.0" standalone="no"?><!DOCTYPE svg PUBLIC "-//W3C//DTD SVG 1.1//EN" "http://www.w3.org/Graphics/SVG/1.1/DTD/svg11.dtd"><svg t="1545419935583" class="icon" style="" viewBox="0 0 1024 1024" version="1.1" xmlns="http://www.w3.org/2000/svg" p-id="3133" xmlns:xlink="http://www.w3.org/1999/xlink" width="200" height="200"><defs><style type="text/css"></style></defs><path d="M917.333333 384c-72.374857 0-149.333333 59.830857-149.333333 170.666667 0 56.246857 21.504 96.426667 42.300952 135.289904 22.113524 41.374476 43.032381 80.457143 43.032381 142.043429 0 100.498286-48.835048 149.333333-149.333333 149.333333h-23.82019c27.782095-27.136 45.153524-64.853333 45.153523-106.666666v-85.333334c0-109.628952-63.378286-165.302857-109.628952-205.909333-8.94781-7.887238-17.371429-15.250286-24.624762-22.503619-10.617905-10.630095-24.868571-23.381333-40.411429-37.254095-38.41219-34.255238-102.66819-91.587048-102.66819-118.332953v-213.333333c0-61.500952-46.287238-90.794667-67.876571-101.083429C371.163429 64.792381 342.369524 0 277.333333 0A21.333333 21.333333 0 0 0 256 21.333333C256 54.369524 241.334857 85.333333 234.666667 85.333333 203.873524 85.333333 185.453714 112.956952 170.666667 135.204571c-5.461333 8.167619-10.630095 15.920762-15.079619 20.382477-5.254095 5.241905-12.958476 10.544762-20.918858 16.164571C111.542857 188.123429 85.333333 206.713905 85.333333 234.666667 85.333333 312.380952 176.920381 341.333333 234.666667 341.333333c12.8 0 16.700952 0.963048 17.212952 0.963048h0.036571c4.132571 5.997714 4.132571 37.241905 4.08381 73.411048V426.666667c0 10.410667-3.754667 17.127619-11.580952 30.159238-13.129143 21.881905-31.085714 51.809524-31.085715 119.174095 0 44.958476 32.707048 113.334857 42.666667 133.12V896h-21.333333A64.073143 64.073143 0 0 0 170.666667 960v42.666667c0 11.78819 9.545143 21.333333 21.333333 21.333333h512c123.830857 0 192-68.169143 192-192 0-72.252952-25.539048-120.039619-48.079238-162.169905-20.004571-37.376-37.254095-69.61981-37.254095-115.163428 0-93.915429 63.792762-128 106.666666-128a21.333333 21.333333 0 1 0 0-42.666667z" p-id="3134"></path></svg>