<?xml version="1.0" standalone="no"?><!DOCTYPE svg PUBLIC "-//W3C//DTD SVG 1.1//EN" "http://www.w3.org/Graphics/SVG/1.1/DTD/svg11.dtd"><svg t="1545420717615" class="icon" style="" viewBox="0 0 1024 1024" version="1.1" xmlns="http://www.w3.org/2000/svg" p-id="15150" xmlns:xlink="http://www.w3.org/1999/xlink" width="200" height="200"><defs><style type="text/css"></style></defs><path d="M524.401959 98.049107c-235.441267 0-426.279686 190.843536-426.279686 426.278663 0 235.44229 193.909361 430.369841 429.349605 430.369841 235.44229 0 423.206698-194.927551 423.206698-430.369841C950.678576 288.891619 759.840156 98.049107 524.401959 98.049107M881.917516 418.384879c-1.197268 0.856507-2.183735 1.717108-3.438309 2.601244-14.617929 10.482749-31.188326 22.346961-45.084824 43.893696-14.883989 23.574928-15.479553 49.978275-15.97688 71.186296-0.623193 28.691459-2.52245 32.494065-9.677407 35.171034-21.439288 7.992021-37.801954 5.935176-49.745984-6.060019-1.692548-1.817392-0.961908-6.084579 3.354398-19.87056 5.257747-16.71059 12.440333-39.577391 1.664919-63.435775-11.683087-27.450189-35.491329-37.883819-52.841485-45.479821-16.521279-7.228635-21.647019-10.328229-23.652699-16.912182-9.207709-29.813003 10.853186-52.243875 56.588833-88.48938 25.316595-20.47124 46.938032-25.078165 79.589686-29.916357C848.872912 335.981101 869.220333 375.478673 881.917516 418.384879M303.662533 791.121092c-14.827707 0-28.408003-1.331321-42.7435-2.786463-64.421218-64.314795-105.039311-152.176888-108.784612-249.510704 23.494087 2.805906 56.900941 8.506744 67.49216 11.394515 0.805342 0.209778 2.470261 1.404999 4.424776 2.805906 5.461385 3.959172 13.734816 9.914814 26.76662 11.787464 2.503007 0.366344 5.545296 0.576121 9.085936 0.576121 20.318768 0 83.567277-9.547447 105.631806-30.963199 8.429996-8.142447 11.603269-17.809621 12.882402-25.942859 0.799202 1.435699 1.739621 3.335978 2.466168 4.76349 4.475941 8.975419 11.970636 23.99346 30.317493 31.324426 18.154475 7.312546 38.062897 0.339738 49.430806-5.126764 2.786463-1.350764 6.969739-3.382027 7.257288-3.745301 6.792707 2.390443 9.468652 5.51255 17.717524 16.001439l2.735297 3.433192c1.508353 1.89721 2.336208 7.133468 3.146667 12.174274 1.925862 12.181437 5.51255 34.83846 29.370935 46.084595 11.241019 5.305843 28.02938 4.754281 48.15986 2.51631 6.639211-0.748037 13.239536-1.528819 19.122523-2.155083 7.030114 3.016707 13.401218 10.197246 15.536858 17.45658 0.572028 1.924839 0.753153 3.595898 0.594541 5.074575-5.64251 1.354857-15.819291 2.314719-22.373567 2.914376-17.460674 1.638313-33.92874 3.207042-46.075385 11.422144-21.902846 14.809287-39.602973 28.493961-51.514257 58.517765-5.959735 15.059997-4.814656 28.02324-4.010337 37.503149 0.651846 7.302313 0.754177 10.109242-0.464581 13.072737-7.966439 19.203364-15.071254 26.698059-29.349445 30.936593-4.996804 1.427512-9.133008 0.339738-16.414855-1.484817-6.847965-1.688455-15.381315-3.825119-25.78527-4.212952l-4.63353-0.205685c-14.59644-0.585331-24.432459-1.01512-40.119743 0.255827-7.989975 0.627287-14.000875 1.63729-20.160155 2.707668-3.960195 0.706081-7.989975 1.407046-13.115716 1.953492C320.654532 790.701536 311.916521 791.121092 303.662533 791.121092M524.401959 897.329019c-70.871117 0-136.854924-20.117177-193.288215-54.431703 1.718131-0.157589 3.122107-0.077771 4.861728-0.25992 6.401804-0.679475 11.501962-1.558495 16.498766-2.420119 4.657067-0.803295 9.155521-1.612731 15.246239-2.084475 13.320377-1.063215 21.3871-0.647753 33.615609-0.157589l4.78805 0.209778c5.043876 0.207731 9.705036 1.358951 15.08865 2.707668 12.04943 2.966565 28.725228 5.51869 44.49233 0.807389 38.194904-11.296277 53.91084-38.817074 63.354933-61.587684 6.341429-15.301498 5.175883-28.513404 4.342912-38.140669-0.648776-7.18054-0.74906-10.174734 0.441045-13.192464 5.858428-14.730493 12.725836-21.099551 30.595832-33.3035 3.437286-1.431605 14.859429-2.498914 22.430872-3.222391 23.626094-2.214435 48.080042-4.502547 60.57154-23.240307 10.272971-15.247262 12.879332-33.978882 7.360641-52.81181-6.584975-22.403243-24.016996-42.101887-45.713134-51.442626-10.82658-4.583388-26.720571-3.954055-45.920866-1.823532-6.326079 0.708128-12.703323 1.461281-18.114566 1.537006-0.363274-1.740644-0.703011-3.875261-0.959861-5.51562-1.617847-10.253528-3.846608-24.294312-14.152325-37.105083l-2.476401-3.115967c-9.937326-12.623505-20.214391-25.707498-42.09677-33.356712-17.875113-6.192026-36.942377 0.753153-47.945989 6.086625-1.898233 0.915859-4.480035 2.162246-6.299473 2.891863-0.831948-1.409093-1.818415-3.414773-2.550079-4.892427-4.372587-8.738012-11.683087-23.38971-29.087479-30.964222l-2.527566-1.13894c-7.338129-3.355421-16.467043-7.499811-27.860535-7.499811-6.272867 0-12.470009 1.279133-17.983583 3.595898-23.756053 9.496282-24.663726 33.015951-25.003464 41.888016-0.051165 0.704035-0.051165 1.429559-0.051165 2.160199-12.491499 6.401804-48.653093 14.595416-67.332525 14.675234-1.354857-0.597611-2.39249-1.561565-3.53757-2.366907-4.582365-3.304256-11.500938-8.30106-21.649066-11.033287-13.897521-3.77293-52.946886-10.43056-80.08599-13.370519 19.462261-187.698916 178.067558-334.071611 370.94645-334.071611 99.775424 0 190.18555 39.413662 257.105682 103.20964-23.967878 5.676279-47.12325 14.963807-71.707159 34.843576-38.141692 30.228465-95.77532 75.890434-74.207096 145.800667 9.525957 30.884404 34.761712 41.911552 53.18634 50.006927 15.166421 6.634094 22.10853 10.304693 25.439392 18.081821 2.476401 5.437849 0.234337 13.477966-3.693112 26.019607-5.907547 18.783809-14.826684 47.172369 9.05933 72.826656 17.684778 17.796318 40.064484 27.182083 64.72821 27.182083 13.372565 0 27.530007-2.730181 42.052768-8.167007 42.792619-15.951297 43.707454-56.81089 44.329625-83.884502 0.38988-16.884552 0.725524-32.833803 7.625678-43.706431 4.498454-7.002484 9.780761-12.408611 15.609513-17.355273 2.057869 15.797801 3.462868 31.763424 3.462868 48.133254C897.397069 730.34182 730.410893 897.329019 524.401959 897.329019M532.728602 207.66055c-3.127224 0-6.220678 0.390903-9.009188 1.070378-46.385447 11.133571-52.522214 53.854559-56.998155 85.078701-1.279133 8.849552-2.527566 17.953907-4.736884 26.794249-1.326205 5.38873-4.010337 11.525498-6.843872 18.034748-7.830339 17.927301-22.402219 51.333132 7.258311 76.024487 10.4367 8.664334 22.477944 13.088086 35.806507 13.088086 19.537985 0 36.914748-9.626241 53.046147-18.577101 41.268916-22.793122 48.00227-61.662385 53.966099-95.979982l1.195222-6.816243c4.294816-24.068162-11.524474-53.311183-26.41358-71.083965C569.466318 222.703151 552.688189 207.66055 532.728602 207.66055M552.706609 304.060087c-5.618974 32.4429-9.128915 48.470945-28.119431 58.962903-9.16166 5.070482-20.555152 11.394515-26.328645 11.44568 1.087774-3.927449 3.792373-10.096962 5.723352-14.521738 3.433192-7.881504 7.338129-16.833387 9.705036-26.483164 2.657526-10.538007 4.267187-21.439288 5.77554-32.079626 3.801583-26.357298 6.373151-35.541471 12.589736-39.207977 8.798387 6.788613 21.807678 27.2926 21.908986 34.860972L552.706609 304.060087z" p-id="15151"></path></svg>