<?xml version="1.0" standalone="no"?><!DOCTYPE svg PUBLIC "-//W3C//DTD SVG 1.1//EN" "http://www.w3.org/Graphics/SVG/1.1/DTD/svg11.dtd"><svg t="1545420758277" class="icon" style="" viewBox="0 0 1024 1024" version="1.1" xmlns="http://www.w3.org/2000/svg" p-id="15929" xmlns:xlink="http://www.w3.org/1999/xlink" width="200" height="200"><defs><style type="text/css"></style></defs><path d="M505.557333 745.941333c-135.104 0-244.608-109.333333-244.608-244.224 0-134.869333 109.504-244.202667 244.608-244.202666 135.082667 0 244.586667 109.333333 244.586667 244.202666 0 134.890667-109.504 244.224-244.586667 244.224z m0 33.130667c153.386667 0 277.717333-124.16 277.717334-277.333333 0-153.194667-124.352-277.354667-277.717334-277.354667-153.386667 0-277.717333 124.16-277.717333 277.333333S352.170667 779.093333 505.557333 779.093333z" p-id="15930"></path><path d="M767.274667 316.096c94.442667-18.986667 155.904-14.165333 164.992 6.506667 20.053333 45.610667-149.546667 176.106667-380.352 277.333333-230.805333 101.184-441.813333 137.6-461.866667 91.946667-8.682667-19.712 25.877333-65.365333 98.218667-119.317334a16.554667 16.554667 0 0 0-19.818667-26.56C83.562667 609.344 41.813333 664.490667 59.733333 705.237333c32.298667 73.472 254.4 35.136 505.514667-74.986666s429.696-247.466667 397.376-320.981334c-18.496-42.048-91.712-47.808-201.856-25.642666a16.554667 16.554667 0 1 0 6.528 32.469333z" p-id="15931"></path><path d="M553.6 309.909333a198.954667 198.954667 0 0 1 133.930667 109.696 13.802667 13.802667 0 1 0 25.045333-11.605333 226.56 226.56 0 0 0-152.533333-124.928 13.802667 13.802667 0 1 0-6.421334 26.837333zM470.421333 316.714667c12.330667-8.213333 24.554667-12.245333 36.757334-12.245334a13.802667 13.802667 0 0 0 0-27.605333c-17.92 0-35.413333 5.76-52.053334 16.874667a13.802667 13.802667 0 1 0 15.296 22.976z" p-id="15932"></path></svg>