<?xml version="1.0" standalone="no"?><!DOCTYPE svg PUBLIC "-//W3C//DTD SVG 1.1//EN" "http://www.w3.org/Graphics/SVG/1.1/DTD/svg11.dtd"><svg t="1545420592576" class="icon" style="" viewBox="0 0 1880 1024" version="1.1" xmlns="http://www.w3.org/2000/svg" p-id="13366" xmlns:xlink="http://www.w3.org/1999/xlink" width="367.1875" height="200"><defs><style type="text/css"></style></defs><path d="M172 853.334h280.66V170.666H172v682.668z m1621.334-512V170.666C1793.334 76.8 1716.534 0 1622.666 0H172C78.134 0 1.334 76.8 1.334 170.666v682.668C1.334 947.2 78.134 1024 172 1024h1450.666c93.868 0 170.668-76.8 170.668-170.666V682.666c46.932 0 85.332-38.4 85.332-85.332V426.666c0-46.932-38.4-85.332-85.332-85.332zM1708 426.666v426.668c0 46.932-38.4 85.332-85.334 85.332H172c-46.934 0-85.334-38.4-85.334-85.332V170.666c0-46.932 38.4-85.332 85.334-85.332h1450.666c46.934 0 85.334 38.4 85.334 85.332v256z" p-id="13367"></path></svg>