<?xml version="1.0" standalone="no"?><!DOCTYPE svg PUBLIC "-//W3C//DTD SVG 1.1//EN" "http://www.w3.org/Graphics/SVG/1.1/DTD/svg11.dtd"><svg t="1545420797593" class="icon" style="" viewBox="0 0 1024 1024" version="1.1" xmlns="http://www.w3.org/2000/svg" p-id="16926" xmlns:xlink="http://www.w3.org/1999/xlink" width="200" height="200"><defs><style type="text/css"></style></defs><path d="M503.4 64.3c105.5 0.6 185.3 37.4 248 109.3 64 73.2 90.6 159 77.9 255.3-5.1 40.2-21.2 77.6-37.7 114.7-51 113.7-117.8 217.9-188.1 319.9-16.5 23.8-33.3 47.2-50 71.3-22.8 32.9-58.6 33.3-82 1-75.1-104.5-147-210.9-206.2-325.3-26-50-49.7-101-64.6-155.8-14.9-54.8-10.5-109.3 6-162.5 20.9-69.4 64.6-129.5 123.8-171 37.7-26.9 79.5-45.3 125.4-51.9 18.7-2.8 37.7-4 47.5-5z m8 49.4c-17.4 1.9-35.5 3.2-53.2 6.7-13.6 3.2-27.2 7.3-40.2 12.7-67.1 25.7-115.6 72.2-147.9 136.2-13.6 27.2-20.9 56.1-26 86.2-4.4 26.6-4.8 52.9 3.2 77.9 11.7 36.1 23.4 72.8 40.2 106.7 29.8 59.5 62.1 118.1 96.9 174.8 38 61.8 80.1 120.7 120.7 180.5 4.4 6.7 8.6 7 13.9-0.3 33.3-49.4 67.8-97.9 100.4-147.6 51.3-78.6 98.5-159.6 134.9-246.4 13-31 25-62.7 27.6-96.3 3.5-44.7-5.4-89.6-25.3-129.9-49.5-101.6-131.5-154.5-245.2-161.2z" p-id="16927"></path><path d="M511.4 509.3c-71.6 1.9-135.6-61.1-134.6-139.7 1-76.3 60.8-138.1 136.2-137.1 76 1 134.6 59.2 134.6 138.7 0.3 78-59 138.8-136.2 138.1z m80.7-137.4c0-44.3-36.4-82-79.5-82.4-42.8-0.3-81.4 38-80.5 81.7 1 44.3 36.4 82 80.5 81.7 42.5 0.1 79.5-37.6 79.5-81z" p-id="16928"></path></svg>