<?xml version="1.0" standalone="no"?><!DOCTYPE svg PUBLIC "-//W3C//DTD SVG 1.1//EN" "http://www.w3.org/Graphics/SVG/1.1/DTD/svg11.dtd"><svg t="1545420789743" class="icon" style="" viewBox="0 0 1024 1024" version="1.1" xmlns="http://www.w3.org/2000/svg" p-id="16802" xmlns:xlink="http://www.w3.org/1999/xlink" width="200" height="200"><defs><style type="text/css"></style></defs><path d="M828.063 920.44H595.037c40.187-41.286 101.778-104.527 155.371-167.799 56.248-68.738 101.779-165.021 101.779-167.738 0-2.749 2.688-5.528 2.688-8.275C876.311 527.127 887 477.612 887 425.348c0-211.773-168.748-382.291-374.993-382.291C305.747 43.058 137 213.575 137 422.6c0 52.264 10.719 104.527 32.14 151.279 0 2.749 2.671 5.496 2.671 8.275 2.688 2.749 45.546 99 101.795 167.738 85.716 104.527 195.542 206.275 198.214 211.773 13.39 11.024 26.795 16.52 40.186 16.52h316.056c16.092 0 29.498-13.741 29.498-30.262 0.002-13.741-13.405-27.483-29.497-27.483M319.152 714.135c-53.577-65.99-93.764-156.776-93.764-156.776-18.75-41.224-29.468-85.244-29.468-134.759 0-176.014 141.981-321.796 316.086-321.796 174.122 0 316.056 143.035 316.056 321.796 0 46.782-10.688 93.535-29.438 134.759 0 0-42.874 90.786-93.748 156.776C621.817 815.913 512.007 920.44 512.007 920.44S402.182 815.913 319.152 714.135m0 0M311.106 920.44H195.921c-16.063 0-29.452 13.741-29.452 30.232 0 16.52 13.39 30.262 29.452 30.262h115.185c16.078 0 29.468-13.742 29.468-30.262-2.672-16.49-13.39-30.232-29.468-30.232z" p-id="16803"></path><path d="M656.629 422.6c0-79.762-64.249-145.752-144.622-145.752-80.357 0-144.653 65.99-144.653 145.752 0 79.762 64.295 145.782 144.653 145.782 80.373 0 144.622-66.02 144.622-145.782m-230.339 0c0-49.5 37.5-88.007 85.717-88.007 48.218 0 85.717 38.506 85.717 88.007 0 49.515-37.499 88.007-85.717 88.007-48.217-0.001-85.717-38.492-85.717-88.007m0 0" p-id="16804"></path></svg>