<?xml version="1.0" standalone="no"?><!DOCTYPE svg PUBLIC "-//W3C//DTD SVG 1.1//EN" "http://www.w3.org/Graphics/SVG/1.1/DTD/svg11.dtd"><svg t="1545420831426" class="icon" style="" viewBox="0 0 1025 1024" version="1.1" xmlns="http://www.w3.org/2000/svg" p-id="17768" xmlns:xlink="http://www.w3.org/1999/xlink" width="200.1953125" height="200"><defs><style type="text/css"></style></defs><path d="M560.128 955.392H73.728C82.944 739.328 263.168 591.872 481.28 570.368c10.24 0 20.48-1.024 29.696-2.048l-29.696 2.048c10.24-1.024 21.504-2.048 31.744-2.048 140.288-17.408 247.808-145.408 247.808-289.792C761.856 122.88 638.976 0 484.352 0 328.704 0 203.776 124.928 203.776 280.576c0 107.52 58.368 199.68 145.408 244.736C140.288 582.656 0 763.904 0 996.352c0 15.36 12.288 25.6 25.6 25.6h534.528c12.288 0 25.6-16.384 25.6-31.744 0-13.312-12.288-34.816-25.6-34.816zM274.432 281.6v-1.024c0-115.712 92.16-208.896 207.872-208.896s207.872 93.184 207.872 208.896c0 115.712-92.16 208.896-207.872 208.896s-207.872-92.16-207.872-207.872z m248.832 286.72H512h11.264z m452.608 69.632c-27.648-30.72-66.56-46.08-106.496-46.08-22.528 0-46.08 5.12-66.56 15.36l-30.72 15.36-30.72-15.36c-20.48-10.24-43.008-15.36-66.56-15.36-40.96 0-78.848 17.408-106.496 46.08-27.648 30.72-43.008 68.608-43.008 109.568 0 40.96 15.36 81.92 43.008 112.64l5.12 5.12 145.408 135.168c15.36 15.36 35.84 22.528 56.32 22.528s40.96-7.168 56.32-22.528l145.408-135.168 5.12-5.12c27.648-30.72 43.008-68.608 43.008-112.64-1.024-43.008-21.504-78.848-49.152-109.568z m-59.392 188.416L789.504 945.152c-11.264 9.216-26.624 9.216-35.84 0L623.616 824.32c-15.36-17.408-24.576-43.008-24.576-67.584 0-24.576 9.216-49.152 26.624-67.584 15.36-17.408 37.888-26.624 62.464-26.624 13.312 0 26.624 2.048 37.888 9.216l47.104 24.576 47.104-24.576c31.744-15.36 73.728-9.216 100.352 17.408 17.408 17.408 26.624 39.936 26.624 67.584 0 27.648-13.312 52.224-30.72 69.632z" p-id="17769"></path></svg>