<?xml version="1.0" standalone="no"?><!DOCTYPE svg PUBLIC "-//W3C//DTD SVG 1.1//EN" "http://www.w3.org/Graphics/SVG/1.1/DTD/svg11.dtd"><svg t="1545421363798" class="icon" style="" viewBox="0 0 2368 1024" version="1.1" xmlns="http://www.w3.org/2000/svg" p-id="7886" xmlns:xlink="http://www.w3.org/1999/xlink" width="462.5" height="200"><defs><style type="text/css"></style></defs><path d="M2143.889017 639.654721V383.556069l224.135646 127.852023-224.135646 128.246629zM0 0h2079.568401v1024H0V0z m1055.963006 959.679383h959.679383v-895.753371H1055.963006v895.753371z m-193.356455-463.266281c6.31368-11.443545 15.389595-20.914066 26.438536-28.016956l21.703275-14.20578 18.941041-7.497495c6.31368-3.15684 9.47052-10.25973 7.8921-17.362621-2.762235-9.075915-10.654335-15.389595-19.730251-16.57341l-20.914065-5.129865c-48.141811-10.654335-92.732177-32.752216-131.008863-63.926012-27.227746-20.519461-49.720231-46.563391-66.293642-76.158766-9.47052-20.914066-16.968015-39.065896-22.492485-54.850097 20.519461-16.178805 31.173796-24.465511 31.5684-25.649325 4.340655-6.708285 1.973025-15.7842-4.73526-19.730251-1.183815-0.78921-2.36763-1.183815-3.551445-1.57842-9.47052-3.94605-26.438536-9.075915-50.904046-15.389595-15.7842-4.73526-31.568401-7.8921-48.141811-9.470521-5.919075 0-11.443545 1.973025-15.784201 5.919076-3.551445 4.73526-3.15684 11.443545 0.78921 15.7842l8.286706 10.654335 10.654335 24.070906c5.919075 16.178805 10.25973 32.752216 13.41657 49.720231 5.129865 23.676301 11.04894 46.957996 18.546436 70.239692 9.075915 27.622351 20.124855 54.455491 33.541425 80.104817 17.36262 33.936031 40.249711 64.715222 67.082852 91.153757 22.492486 25.254721 49.720231 44.984971 80.499422 58.796146 5.129865 2.762235 11.443545 3.551445 17.36262 1.973025 6.31368-4.340655 11.04894-11.443545 12.232756-19.335645 3.94605-11.443545 8.68131-22.887091 14.600385-33.541426zM278.985742 726.467823l44.984971 101.808092c5.129865 7.8921 15.7842 10.25973 24.070905 5.919075l23.281696-9.075915c2.36763-1.183815 13.811175-4.340655 34.330636-10.654335l61.558381-20.914066c35.514451-11.83815 111.673218-31.568401 228.870906-59.190751l-0.78921 34.330636c-1.57842 17.36262 2.762235 35.119846 12.62736 49.325626 14.99499 20.519461 40.644316 30.384586 65.109827 25.254721 24.860116-0.78921 48.141811-13.41657 61.952986-34.330636 12.62736-26.833141 14.99499-57.612331 6.708286-86.418497-5.919075-35.909056-26.833141-67.872062-57.612332-87.207707-31.173796-20.124855-56.033911-35.514451-74.185742-45.379577-18.15183-9.865125-29.200771-15.7842-32.752215-18.15183l-16.573411-8.286705c-8.286705-4.340655-16.968015-7.497495-26.043931-9.075915-5.129865 0.394605-9.865125 3.15684-13.021965 7.10289-2.762235 3.551445-3.551445 7.8921-2.762235 12.232755 1.183815 5.129865 4.340655 9.47052 8.286705 12.62736l11.838151 12.627361c2.36763 3.551445 8.286705 11.83815 17.36262 25.25472 9.075915 13.41657 14.99499 22.492486 18.546435 28.016956 2.762235 4.73526 5.52447 9.865125 7.497496 15.389595s3.551445 11.04894 4.73526 16.968016c-59.190751 0-149.160694 1.183815-270.699037 3.15684 28.411561-21.308671 55.244701-44.590366 80.104817-69.450482 20.914066-21.308671 51.298651-55.244701 90.759152-101.808092 16.178805-3.551445 31.173796-10.654335 44.195761-20.914066 2.36763-5.52447 2.36763-11.443545 0-16.968015-14.99499-15.389595-33.541426-27.227746-53.666281-34.725241-28.016956-14.600385-56.823121-27.622351-86.418497-39.065896-3.94605-2.36763-9.47052-1.973025-12.62736 1.57842l-6.708285 18.15183-6.708286 14.994991c-22.492486 49.325626-48.536416 97.072832-78.131792 142.847013A297.926782 297.926782 0 0 1 304.635067 678.720617l-22.492485 13.41657c-4.73526 2.36763-8.286705 6.31368-10.654335 11.443545 0 8.68131 2.36763 16.57341 7.497495 22.887091z m-56.823122-169.285549c5.52447 6.708285 15.389595 5.129865 29.989981-4.735261l22.492486-14.99499c54.060886-33.936031 102.202697-76.158767 142.452408-125.484393 32.357611-42.222736 62.347592-85.234682 89.969942-128.641233 16.968015-1.57842 32.752216-7.8921 45.774181-18.941041 0-7.10289-2.36763-14.20578-6.708285-19.73025-21.308671-17.757225-46.168786-31.173796-72.607321-39.065896-23.676301-11.443545-48.536416-19.73025-74.185742-24.465511-3.94605 1.57842-7.10289 5.52447-7.497495 9.865126l-8.286706 27.62235-9.47052 36.698266c-14.20578 41.828131-31.963006 82.472447-53.271676 121.538343-20.914066 42.617341-44.984971 83.261657-72.607322 121.538343l-21.703275 28.411561-8.286706 10.654335c-3.15684 7.10289-1.183815 14.600385 3.94605 19.730251z m1638.4-54.455492H1249.319461l-35.909056 3.551445-27.622351-67.477456 41.828131 3.551445h26.043931l5.919075-12.627361 10.654335-24.860115c9.47052-24.465511 17.757225-48.931021 24.465511-74.185742 9.47052-33.936031 17.36262-68.661272 23.6763-103.386512l5.129865-31.568401 2.36763-14.994991c2.36763-3.551445 6.31368-6.31368 10.654336-6.708285 15.389595 1.57842 29.989981 6.708285 43.011946 14.205781 22.887091 10.654335 42.617341 18.94104 59.585356 26.04393 12.62736 2.762235 22.887091 11.443545 27.622351 23.676301-3.551445 13.021965-13.021965 23.676301-25.649326 29.200771l-5.919075 13.41657 34.330636 1.57842h5.129865V206.37842c0-13.811175-1.183815-27.227746-3.551445-41.038921-2.762235-8.68131-2.762235-18.15183 0-26.833141 7.10289-4.340655 15.389595-5.52447 23.281695-3.551445 3.551445 0.394605 11.83815 1.973025 25.254721 4.73526 13.41657 2.762235 31.963006 5.919075 56.428516 9.075916 16.57341-1.183815 32.752216 7.10289 41.433526 21.30867 0.78921 13.41657-5.52447 26.438536-16.57341 34.330636v77.342582h55.639306c20.914066-21.308671 35.119846-35.514451 42.222736-41.433526 5.129865-5.52447 12.232755-8.68131 19.730251-9.47052 14.99499 3.94605 28.016956 13.021965 37.487476 25.25472 13.41657 13.41657 25.649326 28.016956 36.303661 43.406551 7.10289 8.68131 10.654335 19.335645 10.25973 30.384586-1.57842 7.497495-9.865125 11.443545-24.860116 11.443545l-176.783044 0.78921v100.624278h123.116763c20.914066-20.124855 36.303661-33.936031 46.168786-41.828131 6.31368-6.31368 14.600385-10.654335 23.676301-11.838151 20.124855 9.075915 37.487476 22.887091 50.509441 40.644316 25.254721 26.438536 36.698266 45.379576 33.936031 56.823122-0.394605 8.68131-8.286705 16.178805-17.757226 16.178805z m-385.529094-160.209634l-40.644316-0.78921-27.622351 3.15684L1400.847784 331.468208c-39.855106 52.877071-61.952987 81.288632-65.899036 85.629287l-24.070906 26.043931h164.155684V342.517148z m-177.177649 201.248555c1.183815-3.15684 3.551445-5.919075 6.708285-7.10289 10.25973 0.78921 20.519461 2.762235 29.989981 6.31368l95.099807 29.200771 211.508285-0.78921c7.10289-7.8921 14.600385-17.757225 22.887091-29.200771 4.340655-8.286705 11.443545-14.600385 19.73025-18.15183 10.654335 1.57842 20.519461 5.52447 29.200771 11.83815l29.200771 16.57341c20.519461 9.075915 38.671291 22.887091 52.482466 40.644316-2.36763 14.600385-9.865125 27.622351-20.914066 36.698266v105.754143l4.340655 77.342582c-0.78921 5.129865-2.36763 10.25973-5.129865 14.600385-6.31368 6.31368-13.41657 11.83815-21.703275 15.389596-18.15183 7.497495-37.882081 9.865125-57.612332 7.497495-13.41657 1.57842-27.227746-1.57842-38.671291-9.47052-6.31368-13.021965-8.68131-28.016956-7.10289-42.222737v-18.94104H1428.470135v29.989981c-0.394605 5.919075-1.973025 11.83815-4.73526 16.968015-10.654335 9.47052-24.070906 14.99499-38.276686 14.994991-16.57341 3.551445-33.541426 4.73526-50.509441 3.94605-10.25973 1.183815-20.519461-1.973025-28.411561-8.286706-4.340655-5.919075-6.708285-13.021965-6.708285-20.124855l3.551445-65.109827v-115.224662l-5.52447-93.126783z m130.614258 177.96686h220.5842l-0.78921-91.548363H1428.470135v91.548363z" p-id="7887"></path></svg>