<?xml version="1.0" standalone="no"?><!DOCTYPE svg PUBLIC "-//W3C//DTD SVG 1.1//EN" "http://www.w3.org/Graphics/SVG/1.1/DTD/svg11.dtd"><svg t="1545421375059" class="icon" style="" viewBox="0 0 1024 1024" version="1.1" xmlns="http://www.w3.org/2000/svg" p-id="8009" xmlns:xlink="http://www.w3.org/1999/xlink" width="200" height="200"><defs><style type="text/css"></style></defs><path d="M830.1568 339.89632h-85.01248L586.55232 231.5776s-1.2288 0-1.2288-1.22368c-2.03776-34.74432-30.64832-63.35488-66.62144-63.35488-33.92 0-62.53568 25.74848-66.62144 59.264l-167.5776 110.35648-2.04288 3.27168H208.88064c-40.05376 0-72.7552 32.70144-72.7552 72.7552v398.1056c0 40.05376 32.70144 72.7552 72.7552 72.7552h622.49984c40.04864 0 72.75008-32.70144 72.75008-72.7552V412.2368c-1.21856-40.87296-33.92-72.3456-73.97376-72.34048z m-310.63552-142.24384c19.61984 0 35.968 16.34816 35.968 35.968 0 19.61984-16.34816 35.968-35.968 35.968s-35.968-16.34816-35.968-35.968c-0.00512-19.61472 16.75776-35.968 35.968-35.968zM458.20928 258.96448c10.21952 23.7056 33.92512 40.87296 61.312 40.87296 26.56256 0 49.04448-15.53408 59.25888-38.01088l112.4096 76.84096H337.63328l120.576-79.70304z m414.85824 550.96832h-1.22368c0 23.71072-18.39616 42.09664-42.10688 42.09664H208.88576c-23.7056 0-42.10176-18.38592-42.10176-42.09664V412.24192c0-23.71072 18.39104-42.10176 42.10176-42.10176h622.49472c23.7056 0 42.10176 18.39104 42.10176 42.10176v397.696h-0.41472z" p-id="8010"></path><path d="M257.93024 506.24512h212.53632c8.17664 0 15.53408-7.35744 15.53408-15.52896s-7.35744-15.11936-15.53408-15.11936H257.93024c-8.17664 0-15.53408 7.35744-15.53408 15.52896s7.36256 15.11936 15.53408 15.11936z m410.77248 87.87968H257.93024c-8.17664 0-15.53408 7.35744-15.53408 15.52896 0 8.18176 7.35744 15.52896 15.53408 15.52896h410.77248c8.17664 0 15.52896-7.35232 15.52896-15.52896 0.00512-8.17152-7.35232-15.52896-15.52896-15.52896z m-198.23104 118.528H257.93024c-8.17664 0-15.53408 7.36256-15.53408 15.53408 0 8.17152 7.35744 15.52896 15.53408 15.52896h212.53632c8.17664 0 15.53408-7.36256 15.53408-15.52896 0-8.17152-6.12864-15.53408-15.52896-15.53408z" p-id="8011"></path></svg>