<?xml version="1.0" standalone="no"?><!DOCTYPE svg PUBLIC "-//W3C//DTD SVG 1.1//EN" "http://www.w3.org/Graphics/SVG/1.1/DTD/svg11.dtd"><svg t="1545420862805" class="icon" style="" viewBox="0 0 1024 1024" version="1.1" xmlns="http://www.w3.org/2000/svg" p-id="18614" xmlns:xlink="http://www.w3.org/1999/xlink" width="200" height="200"><defs><style type="text/css"></style></defs><path d="M664.746667 739.2256l126.702933-126.72a25.6 25.6 0 0 1 36.215467 36.1984l-144.827734 144.827733c-4.983467 5.000533-11.537067 7.492267-18.090666 7.492267s-13.1072-2.491733-18.090667-7.509333l-48.298667-48.264534a25.6 25.6 0 0 1 36.215467-36.1984l30.173867 30.173867z" p-id="18615"></path><path d="M517.12 716.8a25.6 25.6 0 0 1 0 51.2H290.133333a25.6 25.6 0 0 1-25.6-25.6c0-131.959467 106.973867-238.933333 238.933334-238.933333 82.056533 0 157.013333 41.710933 200.7552 109.312a25.6 25.6 0 1 1-43.008 27.818666A187.528533 187.528533 0 0 0 503.466667 554.666667c-94.993067 0-173.5168 70.5536-186.0096 162.133333h199.68zM503.466667 469.333333a136.533333 136.533333 0 1 1 0-273.066666 136.533333 136.533333 0 0 1 0 273.066666z m0-51.2a85.333333 85.333333 0 1 0 0-170.666666 85.333333 85.333333 0 0 0 0 170.666666z" p-id="18616"></path></svg>