<?xml version="1.0" standalone="no"?><!DOCTYPE svg PUBLIC "-//W3C//DTD SVG 1.1//EN" "http://www.w3.org/Graphics/SVG/1.1/DTD/svg11.dtd"><svg t="1545421146173" class="icon" style="" viewBox="0 0 1024 1024" version="1.1" xmlns="http://www.w3.org/2000/svg" p-id="2835" xmlns:xlink="http://www.w3.org/1999/xlink" width="200" height="200"><defs><style type="text/css"></style></defs><path d="M1021.6 759.1c-7.7-142.7-33.7-252.6-81.8-345.9l-0.1-0.2c-59.1-111.3-148.9-177.5-266.9-196.6l-0.7-0.1c-36.7-4.1-54.6 7.2-66.1 41.5-6.5 19.5-9.9 36.1-13.3 56.5-5.2 25.9-8.2 53.1-10.9 79.9-0.1 0.8-1 1.2-1.6 0.7-8.8-6.5-11.3-15.6-11.3-32.9 3.2-80.4 3.2-156.9 3.2-237.8 0-1.1 0.3-2.7 0.6-4.3 0.8-4.6 2.2-12.7-2.8-19.5v-0.1c-4.1-7.3-13.4-18.9-24.4-18.9-12.2 0-23.1 6.6-28.5 17.3l-1.4 2.7c-0.1 0.1-0.1 0.3-0.1 0.5V121c0 18.4 0.2 37.4 0.4 55.7 0.6 55.5 1.2 113-3.6 167.8v0.2c-2 27.9-0.3 60.2 22.7 83.9 0.7 0.8-0.1 2-1.1 1.6-14.4-5.1-29.6-4.9-44.7 0.8 0.6-0.6 1.2-1.1 1.7-1.7 7-7 16.5-16.5 16.9-31.4v-0.1c2.1-19.9 1.4-38.5 0.7-56.4-0.4-9-0.7-18.4-0.7-27.9V117.8c0-8.5-4.5-15.2-8-20.5-1.2-1.8-2.4-3.6-3.1-4.9l-0.9-1.9c0-0.1-0.1-0.2-0.2-0.3l-1.5-1.5c-5.6-5.6-13.6-6.5-17.8-6.5-4.3 0-12.2 0.8-17.8 6.5l-1.5 1.5c-0.1 0.1-0.1 0.2-0.2 0.3l-0.9 1.9c-3.6 7.3-7.9 19.2-7.9 28.7 0 80.9 0 157.4 3.2 237.8 0 17.7-2.4 27.4-9.8 34-0.6 0.5-1.6 0.2-1.7-0.7-0.5-5.6-1.3-11.2-2.7-17v-0.1c-6.3-41.1-12.9-83.7-22.6-122.6-11.4-45.8-50.5-40.9-63.3-39.3l-0.4 0.1c-62.1 9.8-116.4 32.3-161.6 66.9-43.6 33.4-80.1 79.3-108.7 136.4C0.9 575.5-4.3 749.7 1.9 914.2c0.1 29 19.2 36.1 33.6 39l0.5 0.1 77.7 9.7c59.9 7 115.3 5.9 164.7-3.4l0.8-0.2c72.5-18.1 115.8-60.3 132.1-129l0.1-0.3c19.4-90.4 29.2-184.3 29.2-279 0-14.5 4.1-20.2 13.4-27.2h0.1c12.3-8.2 22-15.2 29.7-20.7C496.1 494.4 505 488 509 488c4.2 0 13.5 6.5 26.6 15.4 8.1 5.5 18.1 12.4 30.9 20.6 0 0 0.1 0 0.1 0.1 8.6 6.6 10.1 11.9 10.1 20.7 0 101.6 10.6 195 32.4 285.5 13.1 65.1 55.4 107.5 125.6 126l0.4 0.1c35.1 8.1 71.8 12.2 111.3 12.2 44.2 0 91.9-5.1 144.9-15.3l1.7-0.3c0.1 0 0.2 0 0.3-0.1l1.6-0.8c9.6-4.8 26.6-21.3 26.9-37.6 3-51.6 3-103.9-0.2-155.4z m-296.9-57.5l-0.1 0.3c-1.2 4.9-4 10.5-7 16.4-3.3 6.6-6.7 13.4-8.7 20.8v0.1c-3.3 7.9-5 22.1 0.1 30.3 2 3.3 5.1 5.7 8.6 6.8 9.7 4 26.5 4.9 35.4-2.1 14.3-9.9 21.5-28.1 24-35.6l0.3-0.9 0.2-0.8c1.5-7.7 3.1-15.5 4.7-24.5 0.2-0.9 1.3-1.1 1.8-0.4 7.7 9.9 15.1 19.7 22.3 29.3 11.3 14.9 21.9 29 33.5 43.4l0.5 0.6 0.5 0.5c1.8 1.8 3.4 3.7 5 5.7 3.7 4.5 7.9 9.6 14.6 12.9l2.7 1.4c0.1 0.1 0.3 0.1 0.5 0.1h3c11.6 0 29.9-5.5 29.9-20.3 0-7.7 0-19.3-4.7-28.7l-0.7-1.4c0-0.1-0.1-0.1-0.1-0.2l-1-1.2c-12.4-14.7-24.7-29.6-36.5-44.1-22.4-27.3-43.5-53.2-66.6-78.3-28.4-30.9-59.9-57.1-93.3-84.8-8.8-7.3-17.8-14.8-26.7-22.3l-0.3-0.2c-4.2-3.4-7.5-6.5-9.7-9.9 2.2-2-0.7 0.7 1.5-1.3 24.2 17.8 47.2 34.6 71.6 49.4l0.1 0.1c42.2 36.2 89.8 77.2 117.8 129.9 5 9.8 15.4 12.3 23.1 14.1 1.8 0.4 4.6 1.1 5.5 1.5l18.6 9.3c0.7 0.3 1.5-0.2 1.5-0.9V696v-0.1c0.1-1.2 1-4.1 1.5-6 2.2-7.6 5.1-18-1.7-25.7L810 558.6l-0.9-1c-1.8-1.8-3.7-3.6-5.5-5.2-0.6-0.6-0.3-1.6 0.5-1.7 10.3-1.6 20-3.3 29.6-4.9l1-0.2h0.2l1-0.3c2.4-0.8 5.4-1.4 8.7-2.1 8-1.6 17.1-3.4 24.2-9.6h0.1c6-4 9.8-11.1 10.6-19.9 0.6-6.9-0.6-14.4-3.4-19.9l-3.6-7.1c-0.2-0.3-0.5-0.6-0.9-0.6h-7.9c-0.9-0.2-2.9-0.8-4.3-1.3-6.1-2-15.2-4.9-24.2-0.6-30 13.6-61.5 18.2-102.1 14.8-1.2-0.4-3.4-1.7-4.1-2.4l-1-1c-0.1-0.1-0.1-0.1-0.2-0.1l-1.2-0.8c-15.8-9.9-30.7-21.3-45-32.2-7.8-6-15.9-12.2-23.9-17.9l-0.1-0.1c-2.3-2.3-3.8-4.1-4.5-5.4-0.1-0.2-0.1-0.4-0.1-0.6 5.7-48.5 11.6-98.5 17.4-150.4 0.1-0.6 0.6-1 1.1-0.9 40.3 4.6 75.4 18.1 107 41.1l0.2 0.2c63.3 44 107.8 109.9 135.9 201.4l0.1 0.3c41.4 124.1 43.6 251.4 41 348.4v0.4c0 1.4 0 3.1-0.1 4.4 0 0.4-0.3 0.8-0.7 0.9-0.2 0.1-0.4 0.1-0.6 0.2h-0.2c-61.7 6.2-125.5 12.4-187.3 0.1h-0.2c-47-8.8-74.2-35.1-85.4-82.6v-0.2c-18.3-73.3-24.6-147.3-27.6-212.1 0-0.9 1-1.4 1.7-0.8 14.8 14.1 29.1 27.4 46.4 38.3h0.1c26.1 19.2 32.4 39.5 22.9 74.4z m-149.1-248c1.1 0.7 0 2.4-1.1 1.7-4.3-2.5-8.3-5-12.3-7.7 3.1 1.4 6.3 2.8 9.8 4h0.1c1.3 0.7 2.5 1.3 3.5 2zM74.2 848.1c-0.6-42.2-1.2-82 3.5-122 7.1-64 17.5-120 31.7-171.2l0.1-0.3c21.6-86.4 59-151.2 114.3-198.3l0.4-0.3c35.2-32.2 87.1-56.4 127.8-60.1 0.5 0 0.9 0.3 1.1 0.7 3.7 12.4 6.1 26.5 8.5 41.3v0.1c3.1 31.1 6.3 65.8 9.3 99.4l0.5 5.3 0.3 0.5c-0.7 1.6-2.4 4.5-5.7 7.8l-0.1 0.1c-18.6 15.4-40.5 31.1-61.9 46.4l-0.1 0.1c-4 2-8 3.9-10.9 4.4h-0.3c-17.4-3.1-34.9-5.5-51.9-7.8-16.8-2.3-34.2-4.7-51.2-7.7h-0.2c-0.9-0.3-1.9-0.7-2.8-1.1-7.6-2.9-27.6-10.6-38.7 11.6-4.7 9.5-5.2 19.3-1.4 27.6 4 8.6 12.1 14.9 23.1 17.7 4 1.2 8 2.3 11.8 3.4 14 4.1 27.5 8.1 42 10.9 0.8 0.2 1.1 1.1 0.5 1.7-9.3 9.6-18.2 19.3-26 29.1-23.6 27-45.9 56-64.6 83.9-6 7.4-3.2 16.7-1.5 22.4 0.9 2.9 1.9 6.2 1.9 8.5l0.1 20.6c0 0.7 0.8 1.2 1.5 0.9l18.5-9.1c0.9-0.4 3.7-1.1 5.5-1.5 1.6-0.4 3.3-0.8 5-1.3 0.9-0.3 1.7 0.8 1.1 1.6-3.3 4.2-6.5 8.4-9.6 12.6l-0.4 0.6c-3.4 5.1-5.9 9.3-8.4 13.4-2.4 4-4.6 7.7-7.7 12.3-4.5 6.7-10.1 16.9-7.1 28.1 1.3 4.8 4.7 11.5 13.7 16.6l0.1 0.1c6.8 6 13.4 6.8 17.9 6.3 11.8-1.2 18.7-11.3 24.1-19.6 11-15.7 23.1-31 34.7-45.8 6.2-7.8 12.5-15.8 18.7-23.9 0.5-0.7 1.7-0.4 1.8 0.5 1.3 10.7 2.9 22.9 6.4 38.7l0.4 1.4c3.7 11 10.9 22.6 19.4 31.1 10.7 10.7 31.1 2.7 36.9 0.1 3.4-1.1 6.4-3.5 8.4-6.7 5.4-8.8 3.1-24.4-0.7-31.9l-0.4-0.8-0.5-0.7c-16.4-24.6-16.9-48.9-16.9-79.2 0-0.3 0.1-0.5 0.3-0.7l2.1-2.1c18.4-18.4 38.1-35.4 58.9-53.4 5-4.3 10.1-8.7 15.2-13.2 0.7-0.6 1.7-0.1 1.7 0.8-0.2 29.6-1.3 59.7-6.2 89.1l-0.2 1.3c-3.2 45-13.1 93.8-22.2 136-8.4 36.4-30.2 58.1-66.6 66.6l-0.5 0.1c-68.4 18.7-137.3 12.2-202.2 3.4-0.3 0-0.6-0.2-0.8-0.5-0.5-0.9-0.9-1.8-1-2.5v-0.2c-0.1-14.7-0.3-29.2-0.5-43.2z m290.2-327.7l-0.9 0.7c-65.9 52.2-117.4 99.2-160.1 146.7-0.8 0.9-2.3-0.2-1.6-1.3 25.9-36.1 60.9-66.3 95.1-95.8 3.5-3 7-6.1 10.6-9.1 19.1-16.7 40.2-33.6 63.1-50.4 0.8-0.6 2 0.3 1.5 1.2-1.5 3-3.9 5.5-7.7 8z" p-id="2836"></path></svg>