<?xml version="1.0" standalone="no"?><!DOCTYPE svg PUBLIC "-//W3C//DTD SVG 1.1//EN" "http://www.w3.org/Graphics/SVG/1.1/DTD/svg11.dtd"><svg t="1545420302950" class="icon" style="" viewBox="0 0 1024 1024" version="1.1" xmlns="http://www.w3.org/2000/svg" p-id="8328" xmlns:xlink="http://www.w3.org/1999/xlink" width="200" height="200"><defs><style type="text/css"></style></defs><path d="M420.267105 115.298095c27.155997-1.290217 48.188582-27.852304 45.771985-57.814011-2.539475-31.231444-30.023146-58.285043-58.366961-57.445377-28.466693 0.819185-46.07918 24.288848-43.355388 57.650173 2.846669 34.692502 26.459689 59.00183 55.950364 57.609215z m-103.626955-0.225276c22.056567-0.819185 39.832891-21.974649 38.378837-45.669587-1.638371-26.37777-23.141988-47.103162-47.77899-46.017741-23.101029 1.003502-40.181045 20.80731-38.78843 44.93232 1.433574 24.555083 25.189952 47.615152 48.168103 46.755008zM149.321528 186.731063c10.567492 7.536506 23.01911 9.318234 35.327371 2.25276 19.005102-10.915646 21.503617-26.766884 17.530568-44.297451-1.290217-5.775257-2.887629-11.509555-4.341683-17.243853l-0.962542-0.880625 0.983022 0.880625c12.144424 12.92265 25.742902 24.022612 47.307958 17.469129 17.448649-5.304226 23.817816-18.308794 25.86578-32.60358 2.559954-18.0016-4.280244-34.139552-22.261364-43.82642-21.667454-11.652913-39.976248-6.492044-51.526763 13.49608-8.273773 14.335745-4.157366 28.958205-1.515493 43.560185-36.044158-18.267835-58.735595-12.533537-65.268598 16.486106-4.034488 18.0016 2.621393 33.115571 18.861744 44.707044z m0.245756 26.193454C145.758071 194.369967 135.948326 177.781463 110.225904 180.034223 86.039454 182.143625 80.141319 199.28508 82.35312 217.716752c2.27324 18.759346 14.04903 33.258928 37.129579 32.234946 24.329807-1.064941 30.719453-17.776324 30.064105-37.006701z m480.145053 125.663043c27.586069 3.522497 51.977315-19.803807 57.814011-55.254056 5.61142-34.098593-8.806243-59.431902-35.470729-62.319531-26.562087-2.867149-54.864943 22.998631-60.066771 54.905903-5.017511 30.617055 12.328741 59.411422 37.723489 62.667684z m97.401146 7.085954c21.503617 2.518995 45.935822-19.496613 49.519759-44.645605 3.522497-24.677961-10.751809-46.243017-32.357824-48.90537-23.03959-2.846669-45.137117 16.916179-49.069207 43.908339-3.542977 24.247888 11.24332 47.246519 31.907272 49.642636z m64.408454 35.736964c19.68093 8.253293 33.463724-2.170841 46.0587-14.60198l2.170841-1.802208c3.809212-14.827256 9.01104-29.572594 2.539475-44.891361-9.01104-21.36026-25.763381-27.934223-47.18508-17.489609-17.776324 8.662886-25.681463 24.780359-24.903237 43.437307 0.614389 14.847736 5.427103 28.67149 21.319301 35.347851z m40.406321 2.82619c-5.304226 17.735364-4.403122 34.200991 12.472098 46.755008 10.895166 8.130415 22.752875 7.167872 33.381805 0.184316 16.30179-10.751809 23.961173-25.82482 21.790332-44.625125-3.481538-30.289381-24.309327-37.764448-59.821015-21.544577l-2.150361 1.802208c-1.884126 5.795737-3.91161 11.570994-5.672859 17.40769z m83.188279 42.822918c-23.961173-4.116407-34.692502 12.246822-39.955769 31.006168-2.355158 19.742369 2.109402 37.354855 24.882757 40.181044 21.585536 2.682832 33.975715-11.386677 37.805407-30.514656 3.788733-18.738866-0.204796-36.801905-22.732395-40.672556zM207.62705 408.341199c34.81538 63.200155 52.161632 131.643097 54.189116 206.393766 0.860145 31.559118 2.088923 44.236013 6.123411 57.486337 7.597945 24.964676 38.808909 44.338411 65.411955 40.140085 37.64157-5.939094 57.916409-30.002666 53.881921-53.533767-2.109402-12.328741-7.352189-22.732395-16.772821-32.5831-82.389573-86.301184-84.683293-187.224827-22.138486-290.810824 7.925619-13.168406 14.540541-23.182947 29.265399-44.809442 12.492578-18.390713 17.817283-26.37777 23.797336-36.105597 10.813248-17.530568 7.29075-39.423298-8.806243-53.349451-15.769319-13.639437-41.942293-16.178912-76.020407-2.047963-84.908569 35.224973-125.765441 74.218199-133.015232 129.369857-0.286715 2.518995-0.409593 4.464561-0.614389 9.850705 5.181348 26.357291 13.188885 49.151125 24.69844 69.999394z m85.40008-265.969026c55.479332-22.998631 105.920675-16.936659 139.773512 12.34922 38.501715 33.340847 47.75851 88.472025 20.889228 132.05269-16.772821 27.155997-36.310394 53.103695-52.77602 80.382569-44.829922 74.279638-52.22307 147.310018 13.987591 216.654063 18.144957 19.005102 28.794367 40.652076 32.910774 64.65421 10.178379 59.595739-35.36833 113.641497-104.896693 124.598102-56.892427 8.97008-117.204954-28.712449-133.73202-82.942524-7.413628-24.268368-8.109936-49.028247-8.785763-73.706208-1.67933-62.135214-15.359727-121.751433-46.570691-178.418584-16.383708-29.695471-26.603046-61.23411-32.62406-95.373662 0.409593-6.348687 0.409593-14.294786 1.433575-22.118007 11.81675-90.151355 81.631827-141.329964 170.390567-178.131869z m536.238775 430.277141c-1.843167-59.124708-36.289914-101.640431-112.105525-143.418887-28.261897-15.564523-49.642636-14.929654-64.306055-3.133384-17.571527 14.130948-23.756377 40.037687-14.253826 60.865476 4.771755 10.444614 9.031519 19.046061 19.005102 38.645072 11.960107 23.449183 17.264333 34.200991 23.510621 48.250022 48.536736 109.197416 37.580131 209.281395-46.202058 290.708425a70.490905 70.490905 0 0 0-19.967644 34.83586c-6.655882 26.787363 10.239818 52.980817 42.556682 61.111232 21.257862 5.345185 50.850935-11.530035 60.70164-37.764448 5.283746-14.089989 7.659384-27.52463 11.407157-60.496843 8.601447-75.631294 30.760412-143.685122 68.750136-205.349305 13.147926-21.33978 23.080549-45.055198 30.555616-72.784624 0.327674-6.492044 0.409593-9.174877 0.348154-11.468596z m-82.471492-197.218889c80.054895 44.092655 140.981811 101.640431 143.889919 195.109487 0.245756 8.130415-0.471032 16.30179-0.696308 22.834793-8.744804 34.672023-21.216902 66.354019-39.3209 95.742296-34.487706 56.032283-52.755541 116.324329-60.005332 180.077435-2.867149 25.312829-5.775257 50.707577-14.950134 75.139782-20.479635 54.557749-80.566886 89.004496-133.199549 75.774651-64.326535-16.178912-102.193381-74.955466-87.202288-135.493268a131.888852 131.888852 0 0 1 36.801905-64.121739c68.504381-66.599775 68.197186-142.169629 32.849336-221.671574-12.984089-29.20396-28.978684-57.261061-42.249488-86.362623-21.298821-46.693569-7.577465-102.705372 31.641036-134.24401 34.467226-27.708947 82.410053-30.371299 132.441803-2.80571z" p-id="8329"></path></svg>