<?xml version="1.0" standalone="no"?><!DOCTYPE svg PUBLIC "-//W3C//DTD SVG 1.1//EN" "http://www.w3.org/Graphics/SVG/1.1/DTD/svg11.dtd"><svg t="1545421307674" class="icon" style="" viewBox="0 0 1024 1024" version="1.1" xmlns="http://www.w3.org/2000/svg" p-id="6796" xmlns:xlink="http://www.w3.org/1999/xlink" width="200" height="200"><defs><style type="text/css"></style></defs><path d="M846.154 692.856c24.282-30.293 44.254-63.766 59.455-99.731 22.238-52.42 33.468-108.24 33.468-165.651 0-57.412-11.229-113.122-33.468-165.652-21.445-50.713-52.076-96.097-91.11-135.242-39.029-39.03-84.524-69.776-135.243-91.105C626.842 13.236 571.015 2 513.604 2c-57.405 0-113.116 11.236-165.646 33.474-50.719 21.439-96.103 52.075-135.244 91.105-39.034 39.029-69.782 84.529-91.111 135.242-22.236 52.419-33.471 108.241-33.471 165.652 0 96.667 32.791 189.934 92.7 265.039L94.485 830.365l-0.227 0.344a63.4 63.4 0 0 0-0.793 64.896c11.686 20.199 33.357 32.337 56.619 31.772l57.295-1.362 33.246 62.403c10.666 20.081 31.428 33.017 54.23 33.582h1.819c22.01 0 42.657-11.573 54.23-30.403l86.458-145.569c24.962 4.537 50.375 6.809 76.241 6.809 25.307 0 50.265-2.161 74.773-6.582l84.187 143.525 0.338 0.682c11.573 18.83 32.227 30.403 54.237 30.403h1.816c22.692-0.676 43.567-13.501 54.231-33.584l33.246-62.402 57.294 1.364c23.374 0.563 44.93-11.573 56.619-31.768a63.389 63.389 0 0 0-0.798-64.9l-83.392-136.719zM297.582 923.295l-42.32-79.313-74.883 1.817 58.541-93.493c29.163 24.736 61.499 45.384 96.667 61.61a388.248 388.248 0 0 0 21.334 9.19l-59.339 100.189z m131.381-161.68c-0.793-0.229-1.584-0.456-2.383-0.572a345.426 345.426 0 0 1-57.066-20.42c-43.794-20.198-82.258-48.902-114.369-85.321-55.483-62.858-86.003-143.753-86.003-227.718 0-92.014 35.855-178.583 100.867-243.595C335.021 118.978 421.59 83.123 513.604 83.123c92.02 0 178.588 35.855 243.601 100.867 65.012 65.012 100.867 151.581 100.867 243.595 0 92.02-35.855 178.588-100.867 243.6-65.013 65.013-151.581 100.867-243.601 100.867-28.814-0.001-57.179-3.519-84.641-10.437z m339.703 81.232l-42.209 79.085-57.522-98.259c3.513-1.362 6.92-2.72 10.321-4.199 39.6-16.79 76.021-39.141 108.695-66.713l56.048 92.014-75.333-1.928z m0 0" p-id="6797"></path></svg>