<?xml version="1.0" standalone="no"?><!DOCTYPE svg PUBLIC "-//W3C//DTD SVG 1.1//EN" "http://www.w3.org/Graphics/SVG/1.1/DTD/svg11.dtd"><svg t="1545421275365" class="icon" style="" viewBox="0 0 1024 1024" version="1.1" xmlns="http://www.w3.org/2000/svg" p-id="6427" xmlns:xlink="http://www.w3.org/1999/xlink" width="200" height="200"><defs><style type="text/css"></style></defs><path d="M693 495.4c39.3 43.4 63.8 100.4 63.8 163.6 0 135.2-109.6 244.9-244.9 244.9C376.7 903.9 267 794.3 267 659c0-63.2 24.6-120.2 63.8-163.6L218.3 169.9 415 120.1l102 294.5c50.2 1 96.7 17 135.1 43.9l91.2-254.4-98.4-24.9-76.7 213.9-24.8-83.7L609 120.2 805.7 170 693 495.4zM379.1 179.3l-98.4 24.9L372 458.5c27.5-19.2 58.9-33 93.1-39.7l-86-239.5zM512 463.1c-108.2 0-195.9 87.7-195.9 195.9S403.8 854.9 512 854.9 707.9 767.2 707.9 659 620.2 463.1 512 463.1z m0 146.9h-49v-49h98v195.9h-49V610z" p-id="6428"></path></svg>