<?xml version="1.0" standalone="no"?><!DOCTYPE svg PUBLIC "-//W3C//DTD SVG 1.1//EN" "http://www.w3.org/Graphics/SVG/1.1/DTD/svg11.dtd"><svg t="1545421093775" class="icon" style="" viewBox="0 0 1024 1024" version="1.1" xmlns="http://www.w3.org/2000/svg" p-id="2197" xmlns:xlink="http://www.w3.org/1999/xlink" width="200" height="200"><defs><style type="text/css"></style></defs><path d="M764.6 612.7v-342c0-42.4-34.5-79.5-79.5-79.5H231.7c-42.4 0-79.5 34.5-79.5 79.5v342c0 42.4 34.5 79.5 79.5 79.5h29.2v132.6c0 10.6 8 21.2 18.6 26.5h8c8 0 15.9-2.7 21.2-10.6l108.7-148.5H685c42.5 0.1 79.6-34.4 79.6-79.5zM404 639.2h-8c-2.7 2.7-2.7 2.7-5.3 2.7-2.7 0-2.7 2.7-5.3 2.7l-2.7 2.7s-2.7 0-2.7 2.7l-66.3 95.4v-76.9c0-13.3-8-21.2-18.6-26.5-2.7-2.7-8-2.7-10.6-2.7h-53c-13.3 0-26.5-10.6-26.5-26.5v-342c0-13.3 10.6-26.5 26.5-26.5H685c13.3 0 26.5 10.6 26.5 26.5v342c0 13.3-10.6 26.5-26.5 26.5H404z" p-id="2198"></path><path d="M817.6 294.6c-15.9 0-26.5 10.6-26.5 26.5s13.3 26.5 26.5 26.5 26.5 10.6 26.5 26.5v289c0 15.9-13.3 21.2-26.5 21.2h-26.5c-15.9 0-26.5 10.6-26.5 26.5v2.7c0 2.7-2.7 5.3-2.7 8v50.4l-61-47.7c-2.7-2.7-8-2.7-13.3-2.7H552.5c-15.9 0-26.5 10.6-26.5 26.5s10.6 26.5 26.5 26.5h127.3l95.4 74.2c5.3 2.7 10.6 5.3 15.9 5.3 2.7 0 8 0 10.6-2.7 8-5.3 15.9-13.3 15.9-23.9v-90.1c45.1 0 79.5-31.8 79.5-74.2v-289c0-42.4-37.1-79.5-79.5-79.5z" p-id="2199"></path></svg>