<?xml version="1.0" standalone="no"?><!DOCTYPE svg PUBLIC "-//W3C//DTD SVG 1.1//EN" "http://www.w3.org/Graphics/SVG/1.1/DTD/svg11.dtd"><svg t="1545421066472" class="icon" style="" viewBox="0 0 1024 1024" version="1.1" xmlns="http://www.w3.org/2000/svg" p-id="1951" xmlns:xlink="http://www.w3.org/1999/xlink" width="200" height="200"><defs><style type="text/css"></style></defs><path d="M375.2448 827.6992l96.768-96.768a29.3888 29.3888 0 0 1 20.48-8.6016h330.496a44.032 44.032 0 0 0 44.0832-44.0832V439.2448a29.3888 29.3888 0 0 1 58.7776 0v239.0016a102.8096 102.8096 0 0 1-102.8608 102.8608H504.9344l-138.24 138.24a29.3888 29.3888 0 0 1-50.1248-20.7872v-117.4528H235.52a102.8608 102.8608 0 0 1-102.4-102.8608V200.8576a102.8608 102.8608 0 0 1 102.4-102.8096h384.512a29.3888 29.3888 0 1 1 0 58.7776H235.52a44.032 44.032 0 0 0-44.0832 44.032v477.3888a44.032 44.032 0 0 0 44.0832 44.0832h110.336a29.3888 29.3888 0 0 1 29.3888 29.3888z m293.7856-450.56V318.3616h-389.12v58.7776zM522.24 560.7424V502.016H279.7568v58.7264z" p-id="1952"></path></svg>