<?xml version="1.0" standalone="no"?><!DOCTYPE svg PUBLIC "-//W3C//DTD SVG 1.1//EN" "http://www.w3.org/Graphics/SVG/1.1/DTD/svg11.dtd"><svg t="1545421526076" class="icon" style="" viewBox="0 0 1024 1024" version="1.1" xmlns="http://www.w3.org/2000/svg" p-id="11914" xmlns:xlink="http://www.w3.org/1999/xlink" width="200" height="200"><defs><style type="text/css"></style></defs><path d="M750.534122 314.538945C736.073367 306.20247 720.784025 299.255882 705.860552 291.654223 708.807656 288.337576 711.367188 286.007807 713.887711 283.63674 739.788346 259.261024 763.041213 231.061693 775.194024 197.794119 781.085335 181.666586 782.540094 174.648796 786.629582 159.674755 794.240276 112.398658 785.492967 83.653912 756.966269 59.760953 718.415369 27.468865 674.675949 23.645249 628.470975 42.6024 625.265041 43.916813 623.137857 44.876632 619.943486 41.898913 560.473658-13.501477 464.999478-14.018411 405.118978 40.681336 402.320845 43.237533 400.30502 43.882633 396.673904 42.236414 372.374078 31.224121 346.978118 28.865872 320.908285 34.173361 271.50749 44.231529 230.641427 85.631935 237.892045 142.171575 244.183915 191.227757 263.484676 233.6777 296.760299 270.270467 303.590106 277.780985 310.849392 284.914124 318.198358 292.51578 316.366168 293.390157 314.552783 294.304406 312.706157 295.137485 142.734559 371.703748 27.920581 538.065833 14.476441 727.296972 10.75859 779.624231 9.087857 826.552601 27.204777 882.749298 52.808071 962.167795 120.388371 1024.129015 207.047289 1023.932495 411.261927 1023.468251 615.480886 1023.979491 819.695525 1023.669044 885.299584 1023.569358 935.806625 994.562586 972.448716 941.745449 991.074157 914.896134 997.814057 884.010768 1004.856694 852.466564 1007.726254 839.613663 1011.064999 864.760195 1011.065049 810.248656 1011.065099 755.737118 1009.928259 688.806277 994.459404 631.93448 956.873047 493.757485 876.377307 387.085069 750.534122 314.538945ZM958.746844 814.590424C954.267263 843.770081 949.42346 874.36944 932.97525 898.898629 900.616997 947.152894 838.623923 973.653102 780.688723 973.744514 600.345109 974.027313 419.998547 973.560266 239.656407 973.984463 163.127558 974.162996 90.947052 931.581843 72.396184 857.740036 60.617733 810.859772 61.890257 752.211952 65.173985 704.406167 77.048261 531.524929 233.467856 368.494503 383.569161 298.544745 385.201435 297.783473 340.306869 258.425932 334.274606 251.5645 304.887505 218.1343 286.537153 191.062779 280.981193 146.246374 274.160077 91.223516 315.306448 74.988317 340.208073 69.742264 363.231156 64.891844 412.103975 89.4496 414.575274 87.11437 467.455842 37.140464 551.768656 37.613224 604.287951 88.226997 607.108711 90.94786 608.987253 90.0709 611.818303 88.869721 652.62258 71.551888 687.129222 60.874106 721.174319 90.376551 746.366416 112.206303 746.954752 128.422936 740.776517 162.698674 737.02093 176.92429 713.722109 214.956392 704.826355 226.741089 671.950539 270.290613 639.772197 298.081985 637.554508 300.255819 637.315633 300.490055 707.822557 333.586038 719.611323 342.567031 828.452724 425.485525 901.830532 489.619349 935.023341 615.857416 952.462443 682.179355 969.164289 746.721663 958.746844 814.590424L958.746844 814.590424ZM446.388497 459.652844C438.003635 450.803399 412.540096 424.620077 412.540096 424.620077L362.592147 424.620077C362.592147 424.620077 362.759847 441.693654 362.759847 446.778685 362.759847 451.863719 487.279959 574.471545 487.279959 574.471545L362.592147 574.471545 362.592147 624.349376 487.279959 624.349376 487.279959 674.596088 362.759847 674.596088 362.759847 724.178208 487.462019 724.178208 487.462019 824.141174 537.409969 824.141174 536.96271 724.178208 662.279842 724.178208 662.279842 674.297326 537.409969 674.297326 536.962685 624.349376 662.112116 624.349376 662.112116 574.471545 536.962685 574.471545 662.112116 446.778685 662.112116 424.620077 612.331893 424.620077C612.331893 424.620077 568.95974 466.573123 559.472552 477.014511 555.517575 480.352958 526.688392 511.149167 512.433097 525.30993L446.388497 459.652844Z" p-id="11915"></path></svg>