<?xml version="1.0" standalone="no"?><!DOCTYPE svg PUBLIC "-//W3C//DTD SVG 1.1//EN" "http://www.w3.org/Graphics/SVG/1.1/DTD/svg11.dtd"><svg t="1545421537057" class="icon" style="" viewBox="0 0 1024 1024" version="1.1" xmlns="http://www.w3.org/2000/svg" p-id="12037" xmlns:xlink="http://www.w3.org/1999/xlink" width="200" height="200"><defs><style type="text/css"></style></defs><path d="M221.51111146 461.1555552L176 461.1555552c-13.65333333 0-22.7555552 9.10222187-22.7555552 22.7555552 0 13.65333333 9.10222187 22.7555552 22.7555552 22.7555552l45.51111146 0c13.65333333 0 22.7555552-9.10222187 22.7555552-22.7555552C244.26666666 470.25777814 235.1644448 461.1555552 221.51111146 461.1555552zM722.13333333 506.66666667l45.51111147 0c13.65333333 0 22.7555552-9.10222187 22.7555552-22.7555552 0-13.65333333-9.10222187-22.7555552-22.7555552-22.7555552l-45.51111147 0c-13.65333333 0-22.7555552 9.10222187-22.7555552 22.7555552C699.37777813 495.28888854 708.48 506.66666667 722.13333333 506.66666667zM221.51111146 870.7555552L176 870.7555552c-13.65333333 0-22.7555552 9.10222187-22.7555552 22.7555552 0 13.65333333 9.10222187 22.7555552 22.7555552 22.7555552l45.51111146 0c13.65333333 0 22.7555552-9.10222187 22.7555552-22.7555552C244.26666666 879.85777814 235.1644448 870.7555552 221.51111146 870.7555552zM358.0444448 870.7555552l-45.51111147 0c-13.65333333 0-22.7555552 9.10222187-22.7555552 22.7555552 0 13.65333333 9.10222187 22.7555552 22.7555552 22.7555552l45.51111147 0c13.65333333 0 22.7555552-9.10222187 22.7555552-22.7555552C380.8 879.85777814 371.69777813 870.7555552 358.0444448 870.7555552zM494.57777813 870.7555552l-45.51111147 0c-13.65333333 0-22.7555552 9.10222187-22.7555552 22.7555552 0 13.65333333 9.10222187 22.7555552 22.7555552 22.7555552l45.51111147 0c13.65333333 0 22.7555552-9.10222187 22.7555552-22.7555552C517.33333333 879.85777814 508.23111146 870.7555552 494.57777813 870.7555552zM813.1555552 665.9555552c-13.65333333 0-22.7555552 9.10222187-22.7555552 22.7555552 0 13.65333333 9.10222187 22.7555552 22.7555552 22.7555552 13.65333333 0 22.7555552-9.10222187 22.7555552-22.7555552C835.91111146 675.05777814 826.80888853 665.9555552 813.1555552 665.9555552zM767.6444448 870.7555552l-45.51111147 0c-13.65333333 0-22.7555552 9.10222187-22.7555552 22.7555552 0 13.65333333 9.10222187 22.7555552 22.7555552 22.7555552l45.51111147 0c13.65333333 0 22.7555552-9.10222187 22.7555552-22.7555552C790.4 879.85777814 781.29777813 870.7555552 767.6444448 870.7555552zM926.93333333 552.17777814l0-91.02222187 0-91.02222187c0-50.06222187-40.96-91.02222187-91.02222187-91.02222186l-31.85777813 0-54.61333333-204.8c-13.65333333-47.78666667-63.7155552-77.36888853-111.50222187-63.7155552L178.2755552 131.2C128.21333333 142.57777814 100.90666666 192.64 112.2844448 242.70222187L123.66222186 279.11111147 107.73333333 279.11111147c-50.06222187 0-91.02222187 40.96-91.02222187 91.02222187l0 91.02222186 0 364.08888854 0 91.02222186c0 50.06222187 40.96 91.02222187 91.02222187 91.02222187l728.17777813 0c50.06222187 0 91.02222187-40.96 91.02222187-91.02222187l0-91.02222186c50.06222187 0 91.02222187-40.96 91.02222187-91.02222187l0-91.02222187C1017.9555552 593.13777814 976.9955552 552.17777814 926.93333333 552.17777814zM835.91111146 324.62222187c25.03111147 0 45.51111147 20.48 45.51111147 45.51111147l0 13.65333333c-13.65333333-6.82666667-29.58222187-13.65333333-45.51111147-13.65333333l-9.10222186 0-11.37777814-45.51111147L835.91111146 324.62222187zM751.7155552 260.90666667l29.58222186 109.22666667L339.84 370.13333334 751.7155552 260.90666667zM189.65333333 174.4355552l459.66222187-120.6044448c25.03111147-6.82666667 50.06222187 6.82666667 54.61333333 31.85777814l11.37777813 43.2355552-546.13333333 145.6355552-11.37777813-43.2355552C150.96888853 206.29333334 164.62222186 181.26222187 189.65333333 174.4355552zM62.22222186 370.13333334c0-25.03111147 20.48-45.51111147 45.51111147-45.51111147l27.30666667 0 11.37777813 45.51111147L107.73333333 370.13333334c-15.92888853 0-31.85777813 4.55111147-45.51111147 13.65333333L62.22222186 370.13333334zM881.42222186 916.26666667c0 25.03111147-20.48 45.51111147-45.51111146 45.51111147L107.73333333 961.77777814c-25.03111147 0-45.51111147-20.48-45.51111147-45.51111147L62.22222186 461.1555552c0-25.03111147 20.48-45.51111147 45.51111147-45.51111146l728.17777813 0c25.03111147 0 45.51111147 20.48 45.51111147 45.51111146l0 91.02222187-91.02222187 0c-50.06222187 0-91.02222187 40.96-91.02222186 91.02222187l0 91.02222186c0 50.06222187 40.96 91.02222187 91.02222186 91.02222187l91.02222187 0L881.42222186 916.26666667zM972.4444448 734.22222187c0 25.03111147-20.48 45.51111147-45.51111147 45.51111147l-136.53333333 0c-25.03111147 0-45.51111147-20.48-45.51111147-45.51111147l0-91.02222187c0-25.03111147 20.48-45.51111147 45.51111147-45.51111146l136.53333333 0c25.03111147 0 45.51111147 20.48 45.51111147 45.51111146L972.4444448 734.22222187zM631.11111146 870.7555552l-45.51111146 0c-13.65333333 0-22.7555552 9.10222187-22.7555552 22.7555552 0 13.65333333 9.10222187 22.7555552 22.7555552 22.7555552l45.51111146 0c13.65333333 0 22.7555552-9.10222187 22.7555552-22.7555552C653.86666666 879.85777814 644.7644448 870.7555552 631.11111146 870.7555552zM494.57777813 461.1555552l-45.51111147 0c-13.65333333 0-22.7555552 9.10222187-22.7555552 22.7555552 0 13.65333333 9.10222187 22.7555552 22.7555552 22.7555552l45.51111147 0c13.65333333 0 22.7555552-9.10222187 22.7555552-22.7555552C517.33333333 470.25777814 508.23111146 461.1555552 494.57777813 461.1555552zM631.11111146 461.1555552l-45.51111146 0c-13.65333333 0-22.7555552 9.10222187-22.7555552 22.7555552 0 13.65333333 9.10222187 22.7555552 22.7555552 22.7555552l45.51111146 0c13.65333333 0 22.7555552-9.10222187 22.7555552-22.7555552C653.86666666 470.25777814 644.7644448 461.1555552 631.11111146 461.1555552zM358.0444448 461.1555552l-45.51111147 0c-13.65333333 0-22.7555552 9.10222187-22.7555552 22.7555552 0 13.65333333 9.10222187 22.7555552 22.7555552 22.7555552l45.51111147 0c13.65333333 0 22.7555552-9.10222187 22.7555552-22.7555552C380.8 470.25777814 371.69777813 461.1555552 358.0444448 461.1555552z" fill="#515151" p-id="12038"></path></svg>