<?xml version="1.0" standalone="no"?><!DOCTYPE svg PUBLIC "-//W3C//DTD SVG 1.1//EN" "http://www.w3.org/Graphics/SVG/1.1/DTD/svg11.dtd"><svg t="1545420432204" class="icon" style="" viewBox="0 0 1024 1024" version="1.1" xmlns="http://www.w3.org/2000/svg" p-id="10302" xmlns:xlink="http://www.w3.org/1999/xlink" width="200" height="200"><defs><style type="text/css"></style></defs><path d="M809.472 883.712h-601.6c-18.944 0-36.352-7.68-49.152-20.992-12.8-13.312-18.944-31.232-17.92-50.176l34.816-596.992c2.048-37.888 34.304-67.584 73.216-67.584H765.44c38.912 0 71.168 29.696 73.216 67.584l37.376 596.992c1.024 18.944-5.12 36.864-17.92 50.176-12.8 13.824-30.208 20.992-48.64 20.992z m-552.96-690.688c-19.456 0-35.84 14.848-36.864 33.28l-33.792 579.584c-0.512 8.704 2.56 16.896 8.192 23.04 5.632 6.144 13.824 9.728 23.04 9.728h583.68c8.704 0 16.896-3.584 22.528-9.728a31.232 31.232 0 0 0 8.192-23.04l-36.352-579.584c-1.024-18.432-17.92-33.792-37.376-33.792l-501.248 0.512z" p-id="10303"></path><path d="M508.416 442.88c-96.256 0-174.08-78.336-174.08-174.08 0-10.24 8.192-18.432 18.432-18.432S371.2 258.56 371.2 268.8c0 75.264 61.44 136.704 136.704 136.704s136.704-61.44 136.704-136.704c0-10.24 8.192-18.432 18.432-18.432s18.432 8.192 18.432 18.432c1.024 96.256-76.8 174.08-173.056 174.08z" p-id="10304"></path></svg>