<?xml version="1.0" standalone="no"?><!DOCTYPE svg PUBLIC "-//W3C//DTD SVG 1.1//EN" "http://www.w3.org/Graphics/SVG/1.1/DTD/svg11.dtd"><svg t="1545420449829" class="icon" style="" viewBox="0 0 1024 1024" version="1.1" xmlns="http://www.w3.org/2000/svg" p-id="10426" xmlns:xlink="http://www.w3.org/1999/xlink" width="200" height="200"><defs><style type="text/css"></style></defs><path d="M450.013 87.614c55.14 0 100.226 43.225 101.955 97.524h-203.91c1.473-54.047 46.687-97.524 101.955-97.524v0zM221.19 238.556h72.432v86.387c0 14.786 12.169 26.74 27.154 26.74 15.050 0 27.218-11.954 27.218-26.74v-86.387h204.038v86.387c0 14.786 12.167 26.74 27.218 26.74 14.986 0 27.154-11.954 27.154-26.74v-86.387h69.422c0.064 0.126 4.419-0.189 9.222 1.259 0.576 0.189 1.153 0.441 1.281 0.441l1.729 0.629c0.768 0.252 1.473 0.755 2.177 1.259l1.281 0.881c1.153 0.755 2.177 1.447 3.138 2.453 0.32 0.315 0.512 0.692 0.768 0.944l0.448 0.629c0.768 1.259 1.217 2.516 1.793 3.838l0.576 1.196c0.256 0.629 0.576 1.259 0.961 1.825 0.448 0.881 0.833 1.636 1.025 2.327 0.128 0.503 0.256 1.007 0.448 1.51 0.064 0.315 0.192 0.566 0.256 0.566l42.204 565.637c0.448 6.166-1.665 12.017-5.892 16.484-4.291 4.467-10.054 6.921-16.267 6.921h-541.924c-6.212 0-11.975-2.453-16.203-6.921-4.291-4.467-6.404-10.319-5.956-16.484l42.14-565.135c0.833-11.388 10.567-20.26 22.159-20.26v0zM447.195 900.836l-140.637 25.985c-6.084 1.007-12.425-0.441-17.228-3.964-4.995-3.649-8.133-8.934-8.773-14.975l-0.704-7.046h167.342zM772.592 487.084l84.087 314.845c1.537 5.789 0.576 11.765-2.626 16.862-3.33 5.097-8.389 8.494-14.41 9.627l-44.061 8.116c1.217-5.285 2.305-10.759 1.857-16.484l-24.848-332.965zM909.259 788.338h0.064l-143.006-535.059c-4.803-17.869-16.267-33.41-31.701-43.225-15.114-16.107-34.967-24.916-55.78-24.916h-72.432c-1.473-83.493-71.087-151.005-156.39-151.005-85.175 0-154.661 67.26-156.39 151.005h-72.432c-39.963 0-73.584 30.641-76.466 69.714l-42.14 565.198c-1.473 20.889 5.956 41.589 20.366 56.815 14.41 15.227 34.903 23.972 56.101 23.972h45.982l1.409 12.772c2.305 20.7 13.385 39.764 30.42 52.223 13.065 9.501 29.267 14.723 45.662 14.723 4.867 0 9.606-0.378 14.026-1.259l533.087-98.404c20.75-3.712 39.194-15.981 50.337-33.536 11.335-17.554 14.73-39.072 9.286-59.018v0z" p-id="10427"></path></svg>