<?xml version="1.0" standalone="no"?><!DOCTYPE svg PUBLIC "-//W3C//DTD SVG 1.1//EN" "http://www.w3.org/Graphics/SVG/1.1/DTD/svg11.dtd"><svg t="1545420538683" class="icon" style="" viewBox="0 0 1024 1024" version="1.1" xmlns="http://www.w3.org/2000/svg" p-id="12411" xmlns:xlink="http://www.w3.org/1999/xlink" width="200" height="200"><defs><style type="text/css"></style></defs><path d="M1012.032 409.728c7.04 32.64 9.792 67.968 11.968 103.296 0 32.64-2.752 65.152-9.792 102.784-7.104 19.648-16.896 32.576-31.616 39.872-2.752 2.24-2.752 2.24-4.928 2.24-43.648 12.352-80.192 39.872-99.84 75.264-21.76 40.384-26.688 85.312-14.72 133.056 7.68 19.648 0 44.928-16.832 55.04-46.4 40.384-100.352 72.96-163.584 100.48-4.928 2.24-12.032 2.24-16.896 2.24-12.544 0-24.576-7.296-34.368-17.408-33.792-34.816-73.088-55.04-114.56-55.04a147.2 147.2 0 0 0-114.432 52.8 57.152 57.152 0 0 1-39.296 17.408h-7.04c-4.928 0-7.68-2.24-9.856-2.24a440 440 0 0 1-168.512-102.784c-16.896-14.592-21.76-37.568-14.72-55.04 14.72-42.624 7.104-90.368-14.72-128-24-42.624-55.616-67.904-99.776-78.08a46.912 46.912 0 0 1-38.72-42.624C2.176 582.656 0 545.088 0 512.512c0-32.64 2.176-65.152 9.792-103.36 7.104-19.648 16.896-32.512 31.616-39.808 2.752-2.304 2.752-2.304 4.928-2.304 43.648-12.864 80.192-40.384 100.864-74.624 21.824-40.448 26.752-85.376 14.72-133.12a48 48 0 0 1 16.896-55.04C225.28 63.936 279.168 31.36 342.4 3.84c14.208-5.056 33.856-7.872 53.44 12.352 33.856 34.816 73.088 55.04 114.56 55.04 46.336 0 87.744-17.408 114.496-52.8 16.896-17.408 36.48-22.4 53.44-15.104a450.56 450.56 0 0 1 165.76 102.72c16.896 14.592 21.76 37.632 14.72 55.04-14.72 42.688-7.104 90.368 14.72 128 23.936 42.688 55.616 67.968 99.776 78.08 24 4.992 36.48 22.4 38.72 42.624z m-193.92-88.576a222.336 222.336 0 0 1-22.272-172.8 389.888 389.888 0 0 0-128.384-80.896c-38.72 44.416-94.848 67.712-157.12 67.712-56.256 0-108.992-24.448-153.6-67.712a568.32 568.32 0 0 0-131.52 81.28c14.272 61.184 7.04 120.832-23.232 176.768-28.16 46.592-75.2 82.624-130.304 100.672-5.504 28.928-7.68 55.424-7.68 86.336 0 32.96 2.432 62.08 7.424 82.88 57.664 15.552 101.44 51.328 132.224 106.24 29.888 51.456 39.232 113.536 22.272 172.736a375.04 375.04 0 0 0 133.44 81.92 211.712 211.712 0 0 1 157.568-68.736c56.768 0 110.016 24.96 154.88 68.928 50.176-23.04 92.16-49.216 128-79.744-14.208-61.184-7.04-120.704 22.08-174.656 26.88-48.448 74.24-85.44 130.368-103.36a473.6 473.6 0 0 0 7.872-81.728c-2.56-41.472-5.12-66.88-9.856-89.728-57.6-15.488-101.312-51.328-132.16-106.112zM510.144 672c-87.616 0-157.248-71.68-157.248-160s69.632-160 157.248-160c87.616 0 157.248 71.68 157.248 160s-69.44 160-157.248 160z m0-64c52.16 0 93.248-42.624 93.248-96S561.92 416 510.08 416 416.896 458.624 416.896 512s41.408 96 93.248 96z" p-id="12412"></path></svg>