<?xml version="1.0" standalone="no"?><!DOCTYPE svg PUBLIC "-//W3C//DTD SVG 1.1//EN" "http://www.w3.org/Graphics/SVG/1.1/DTD/svg11.dtd"><svg t="1545421415421" class="icon" style="" viewBox="0 0 1638 1024" version="1.1" xmlns="http://www.w3.org/2000/svg" p-id="8857" xmlns:xlink="http://www.w3.org/1999/xlink" width="319.921875" height="200"><defs><style type="text/css"></style></defs><path d="M1583.9232 83.968c-34.6112-21.504-80.1792-21.504-125.0304 0L1128.448 242.688v-65.4336c0-97.5872-79.872-177.152-178.0736-177.152H178.176C79.872 0.2048 0 68.5056 0 152.4736v690.2784c0 100.9664 46.08 177.152 107.1104 177.152h71.4752v-70.8608h-71.4752c-7.168 0-35.84-34.2016-35.84-106.2912V152.3712c0-44.032 48.8448-81.3056 106.8032-81.3056h772.3008c58.88 0 106.9056 47.616 106.9056 106.1888V842.752c0 58.5728-48.0256 106.2912-106.9056 106.2912H401.408v70.8608h548.9664c98.304 0 178.176-79.4624 178.176-177.152v-65.1264l330.4448 160.1536c22.528 10.9568 45.2608 16.384 66.7648 16.384 21.0944 0 40.96-5.3248 58.1632-15.9744 34.5088-21.504 54.272-62.2592 54.272-111.9232V195.9936c0-49.664-19.7632-90.4192-54.272-112.0256z m-16.896 742.1952c0 24.576-7.68 43.52-20.8896 51.8144-13.312 8.192-33.6896 6.7584-55.9104-4.096L1128.448 698.7776V321.3312l361.472-173.568c22.2208-10.6496 42.8032-12.0832 56.1152-3.7888 13.312 8.2944 20.992 27.3408 20.992 52.0192v630.1696z" p-id="8858"></path><path d="M205.9264 256.4096c0 28.3648 23.1424 51.4048 51.712 51.4048a51.5072 51.5072 0 0 0 51.712-51.4048 51.5072 51.5072 0 0 0-51.712-51.4048 51.5072 51.5072 0 0 0-51.712 51.4048z" p-id="8859"></path></svg>