<?xml version="1.0" standalone="no"?><!DOCTYPE svg PUBLIC "-//W3C//DTD SVG 1.1//EN" "http://www.w3.org/Graphics/SVG/1.1/DTD/svg11.dtd"><svg t="1545421422827" class="icon" style="" viewBox="0 0 1025 1024" version="1.1" xmlns="http://www.w3.org/2000/svg" p-id="8981" xmlns:xlink="http://www.w3.org/1999/xlink" width="200.1953125" height="200"><defs><style type="text/css"></style></defs><path d="M916.56 667.18l-93.149-63.764V452.73l93.148-63.15v277.6zM108.917 778.559v-538.35l-0.035-0.042 384.626 0.042h252.987V430.62c-0.041 0.61-0.235 1.226-0.235 1.842v307.675c0 0.464 0.27 0.845 0.27 1.309v37.152l-637.613-0.04zM973.056 283.13a38.42 38.42 0 0 0-39.612 2.111l-110.033 74.57V240.209c-0.023-42.464-34.418-76.893-76.882-76.958H108.882c-42.465 0.065-76.858 34.494-76.882 76.958v538.35c0 42.457 34.5 76.957 76.882 76.957H746.53c42.464-0.064 76.858-34.494 76.882-76.958v-51.19l0.463-30.422 109.417 74.922a38.47 38.47 0 0 0 39.665 2.288 38.47 38.47 0 0 0 20.521-34.02V317.084a38.442 38.442 0 0 0-20.422-33.953z m0 0" p-id="8982"></path><path d="M243.526 317.083a57.732 57.732 0 0 0-49.97 28.873 57.714 57.714 0 0 0 0.025 57.71 57.701 57.701 0 0 0 49.98 28.838c31.872-0.012 57.704-25.856 57.694-57.728-0.013-31.871-25.857-57.698-57.729-57.693" p-id="8983"></path></svg>