<?xml version="1.0" standalone="no"?><!DOCTYPE svg PUBLIC "-//W3C//DTD SVG 1.1//EN" "http://www.w3.org/Graphics/SVG/1.1/DTD/svg11.dtd"><svg t="1545421429887" class="icon" style="" viewBox="0 0 1024 1024" version="1.1" xmlns="http://www.w3.org/2000/svg" p-id="9105" xmlns:xlink="http://www.w3.org/1999/xlink" width="200" height="200"><defs><style type="text/css"></style></defs><path d="M905.985453 473.382587l-164.808172 92.438532c0.486519-42.692006 11.189928-109.466683-30.650671-136.103575-33.813042-21.528448-80.883715-14.109039-119.318684-14.109039l-23.474522 0c34.299561-8.514075 58.50386-40.989191 63.490676-75.77527 0.729778-2.432593 0.973037-5.108445 0.851408-8.149186 0.12163-2.919112-0.12163-5.594964-0.729778-7.905927-5.838223-44.394821-39.286376-75.532011-85.262383-77.964604-48.4086-2.554223-83.559568 41.35408-85.992161 85.992161-2.310963 43.056895 31.988597 75.532011 71.031714 83.924457L373.855747 415.730134c49.381637-23.596152 82.58653-76.748307 87.694976-132.089797 0.486519-2.067704 0.608148-4.257038 0.486519-6.81126 0.12163-2.432593 0-4.621927-0.486519-6.568001-7.05452-81.978382-67.747714-140.603872-150.942392-144.86091C225.345948 121.021499 163.193198 197.769806 159.17942 276.707447c-3.284 64.706972 40.016154 116.034683 95.600903 138.779427L186.66772 415.486875c-52.057489 0-96.209051 13.136002-103.26357 73.707566-5.594964 48.530229 0 101.074237 0 149.969355l0 131.11676c0 21.406818-5.351704 53.030526 2.189334 74.072455 24.08267 67.139565 90.127569 55.949638 147.780021 55.949638l427.771469 0c1.946074 0.243259 4.013778 0.243259 6.324742 0 2.919112 0 5.594964-0.486519 8.027557-1.216296 60.571564-11.068298 65.68001-61.666231 65.68001-115.061646l0-22.014966c54.976601 30.772301 109.953201 61.666231 164.808172 92.438532 8.514075 4.743556 16.663262 4.135408 23.231263 0.364889 7.784297-3.40563 13.86578-10.581779 13.86578-21.650077L943.082496 494.667775C943.082496 475.69355 922.162197 464.260363 905.985453 473.382587L905.985453 473.382587zM509.351174 331.562418c-2.554223-47.313933 70.788455-47.070673 73.342677 0C580.139629 378.876351 511.905396 378.876351 509.351174 331.562418L509.351174 331.562418zM208.439427 276.707447c-6.689631-131.724908 197.648177-131.11676 204.337807 0C406.087603 408.432355 215.129057 408.432355 208.439427 276.707447L208.439427 276.707447zM893.822489 790.957596c-46.705785-26.150374-93.411569-52.422378-140.117354-78.572752l0-97.182088c46.705785-26.150374 93.411569-52.422378 140.117354-78.572752L893.822489 790.957596 893.822489 790.957596zM667.469715 850.921012 329.582555 850.921012 167.693495 850.921012c-49.746526 0-34.907709-72.977788-34.907709-103.628459L132.785786 531.764818l0-42.570377c0-30.164153 37.82682-24.325929 54.003563-24.325929l404.540207 0L667.226456 464.868512c37.82682 0 24.569189 86.11379 24.569189 103.628459l0 170.646395C691.917274 760.428554 706.634462 846.299085 667.469715 850.921012L667.469715 850.921012zM667.469715 850.921012" p-id="9106"></path></svg>