<?xml version="1.0" standalone="no"?><!DOCTYPE svg PUBLIC "-//W3C//DTD SVG 1.1//EN" "http://www.w3.org/Graphics/SVG/1.1/DTD/svg11.dtd"><svg t="1545420388364" class="icon" style="" viewBox="0 0 1024 1024" version="1.1" xmlns="http://www.w3.org/2000/svg" p-id="9453" xmlns:xlink="http://www.w3.org/1999/xlink" width="200" height="200"><defs><style type="text/css"></style></defs><path d="M907.71 932.61H140.4a25 25 0 0 1-25-25V108.78a25 25 0 0 1 50 0v773.83h742.31a25 25 0 0 1 0 50z" p-id="9454"></path><path d="M322.67 785.39a25 25 0 0 1-25-25v-356a25 25 0 0 1 50 0v356a25 25 0 0 1-25 25zM524.05 785.39a25 25 0 0 1-25-25V238.61a25 25 0 1 1 50 0v521.78a25 25 0 0 1-25 25zM717.08 785.39a25 25 0 0 1-25-25V551a25 25 0 0 1 50 0v209.39a25 25 0 0 1-25 25z" p-id="9455"></path></svg>