<?xml version="1.0" standalone="no"?><!DOCTYPE svg PUBLIC "-//W3C//DTD SVG 1.1//EN" "http://www.w3.org/Graphics/SVG/1.1/DTD/svg11.dtd"><svg t="1545420349992" class="icon" style="" viewBox="0 0 1024 1024" version="1.1" xmlns="http://www.w3.org/2000/svg" p-id="9219" xmlns:xlink="http://www.w3.org/1999/xlink" width="200" height="200"><defs><style type="text/css"></style></defs><path d="M827.818667 170.666667H753.777778a28.444444 28.444444 0 0 1 0-56.888889h142.08a28.444444 28.444444 0 0 1 28.444444 28.444444v142.165334a28.444444 28.444444 0 1 1-56.888889 0V211.541333l-212.707555 209.607111a28.444444 28.444444 0 0 1-38.4 1.393778L345.258667 191.431111l-195.697778 227.982222a28.444444 28.444444 0 1 1-43.150222-37.063111l214.158222-249.457778a28.444444 28.444444 0 0 1 40.049778-3.128888l272.753777 232.561777L827.818667 170.666667zM640 568.888889a28.444444 28.444444 0 0 1 28.444444 28.444444v284.444445a28.444444 28.444444 0 0 1-56.888888 0V597.333333a28.444444 28.444444 0 0 1 28.444444-28.444444z m-512 0a28.444444 28.444444 0 0 1 28.444444 28.444444v284.444445a28.444444 28.444444 0 0 1-56.888888 0V597.333333a28.444444 28.444444 0 0 1 28.444444-28.444444z m256-170.666667a28.444444 28.444444 0 0 1 28.444444 28.444445v455.111111a28.444444 28.444444 0 0 1-56.888888 0V426.666667a28.444444 28.444444 0 0 1 28.444444-28.444445z m512 0a28.444444 28.444444 0 0 1 28.444444 28.444445v455.111111a28.444444 28.444444 0 0 1-56.888888 0V426.666667a28.444444 28.444444 0 0 1 28.444444-28.444445z" p-id="9220"></path></svg>