<?xml version="1.0" standalone="no"?><!DOCTYPE svg PUBLIC "-//W3C//DTD SVG 1.1//EN" "http://www.w3.org/Graphics/SVG/1.1/DTD/svg11.dtd"><svg t="1545421215488" class="icon" style="" viewBox="0 0 1024 1024" version="1.1" xmlns="http://www.w3.org/2000/svg" p-id="4282" xmlns:xlink="http://www.w3.org/1999/xlink" width="200" height="200"><defs><style type="text/css"></style></defs><path d="M523.570621 0c34.711864 0 69.423729 5.785311 104.135593 11.570621 17.355932 5.785311 28.926554 17.355932 23.141243 34.711864 0 11.570621-11.570621 23.141243-23.141243 23.141243-133.062147 46.282486-225.627119 173.559322-225.627119 312.40678 0 92.564972 34.711864 173.559322 98.350282 237.19774 92.564972 92.564972 237.19774 121.491525 358.689266 69.423729 40.497175-17.355932 75.20904-40.497175 104.135593-69.423729 11.570621-11.570621 34.711864-11.570621 46.282486 0 5.785311 5.785311 11.570621 17.355932 5.785311 28.926554-57.853107 219.841808-260.338983 376.045198-491.751412 376.045198-283.480226 0-514.892655-225.627119-514.892655-509.107345 0-283.480226 231.412429-514.892655 514.892655-514.892655zm-11.570621 63.638418c-248.768362 0-439.683616 202.485876-439.683616 451.254237 0 248.768362 202.485876 451.254237 451.254237 451.254237 161.988701 0 318.19209-92.564972 393.40113-237.19774-11.570621 5.785311-23.141243 11.570621-34.711864 17.355932-144.632768 57.853107-312.40678 23.141243-428.112994-86.779661-69.423729-69.423729-115.706215-167.774011-115.706215-277.694915 0-127.276836 63.638418-248.768362 173.559322-318.19209z" p-id="4283"></path><path d="M621.920904 509.107345c-17.355932 0-28.926554-11.570621-28.926554-28.926554 0-17.355932 11.570621-28.926554 28.926554-28.926554l133.062147 0c17.355932 0 34.711864 11.570621 34.711864 28.926554 0 11.570621-5.785311 17.355932-11.570621 23.141243l-80.99435 86.779661 52.067797 0c17.355932 0 34.711864 11.570621 34.711864 28.926554 0 17.355932-17.355932 28.926554-34.711864 28.926554l-127.276836 0c-5.785311 0-11.570621 0-17.355932-5.785311-11.570621-11.570621-11.570621-34.711864 0-46.282486l80.99435-86.779661-63.638418 0z" p-id="4284"></path><path d="M818.621469 428.112994c-11.570621 0-23.141243-5.785311-23.141243-17.355932 0-11.570621 11.570621-17.355932 23.141243-17.355932l69.423729 0c11.570621 0 17.355932 5.785311 17.355932 17.355932 0 5.785311 0 11.570621-5.785311 11.570621l-34.711864 40.497175 23.141243 0c5.785311 0 17.355932 11.570621 17.355932 17.355932 0 11.570621-11.570621 23.141243-17.355932 23.141243l-69.423729 0c-5.785311 0-11.570621-5.785311-11.570621-5.785311-11.570621-5.785311-11.570621-23.141243 0-28.926554l34.711864-40.497175-23.141243 0z" p-id="4285"></path><path d="M616.135593 873.581921c11.570621-5.785311 23.141243 5.785311 23.141243 11.570621 5.785311 11.570621 0 23.141243-11.570621 23.141243-11.570621 5.785311-23.141243 5.785311-40.497175 11.570621-11.570621 0-23.141243 0-34.711864 5.785311-11.570621 0-23.141243-11.570621-23.141243-23.141243 0-5.785311 5.785311-17.355932 17.355932-17.355932 11.570621 0 23.141243 0 34.711864-5.785311 11.570621 0 23.141243-5.785311 34.711864-5.785311zm-133.062147 11.570621c11.570621 0 17.355932 11.570621 17.355932 17.355932 0 11.570621-11.570621 23.141243-23.141243 17.355932-86.779661-5.785311-161.988701-40.497175-225.627119-98.350282-63.638418-52.067797-109.920904-127.276836-133.062147-208.271186 0-11.570621 5.785311-23.141243 17.355932-23.141243 11.570621-5.785311 17.355932 5.785311 23.141243 11.570621 17.355932 75.20904 57.853107 144.632768 115.706215 190.915254 57.853107 52.067797 127.276836 80.99435 208.271186 92.564972z" p-id="4286"></path></svg>