<?xml version="1.0" standalone="no"?><!DOCTYPE svg PUBLIC "-//W3C//DTD SVG 1.1//EN" "http://www.w3.org/Graphics/SVG/1.1/DTD/svg11.dtd"><svg t="1545420006790" class="icon" style="" viewBox="0 0 1024 1024" version="1.1" xmlns="http://www.w3.org/2000/svg" p-id="4292" xmlns:xlink="http://www.w3.org/1999/xlink" width="200" height="200"><defs><style type="text/css"></style></defs><path d="M511.4 296.9m-192 0a192 192 0 1 0 384 0 192 192 0 1 0-384 0Z" fill="#FFFFFF" p-id="4293"></path><path d="M511.4 527.1c-126.9 0-230.2-103.3-230.2-230.2S384.4 66.7 511.4 66.7 741.6 170 741.6 296.9 638.3 527.1 511.4 527.1z m0-383.9c-84.8 0-153.8 69-153.8 153.7s69 153.7 153.8 153.7c84.8 0 153.7-69 153.7-153.7s-69-153.7-153.7-153.7z" fill="" p-id="4294"></path><path d="M942.3 955.8h-860c-10 0-18-8.1-18-18V792.4c0-111.2 90.1-201.3 201.3-201.3h493.5c111.2 0 201.3 90.1 201.3 201.3v145.4c0 10-8.1 18-18.1 18z m-794.4-76.3h728.9c4 0 7.2-3.2 7.2-7.2v-79.8c0-69-55.9-124.9-124.9-124.9H265.6c-69 0-124.9 55.9-124.9 124.9v79.9c0 3.8 3.2 7.1 7.2 7.1z" fill="" p-id="4295"></path></svg>