<?xml version="1.0" standalone="no"?><!DOCTYPE svg PUBLIC "-//W3C//DTD SVG 1.1//EN" "http://www.w3.org/Graphics/SVG/1.1/DTD/svg11.dtd"><svg t="1545559657460" class="icon" style="" viewBox="0 0 1024 1024" version="1.1" xmlns="http://www.w3.org/2000/svg" p-id="32188" xmlns:xlink="http://www.w3.org/1999/xlink" width="200" height="200"><defs><style type="text/css"></style></defs><path d="M435.664 867.904c-7.632 58.528-19.088 120.976-57.264 156.096h267.2c-38.176-35.12-49.616-97.552-57.264-156.096h-152.672z" fill="#9D581F" p-id="32189"></path><path d="M588.336 867.904h-41.984c0 54.64 7.632 105.36 22.896 156.096h76.336c-38.16-35.12-49.6-97.552-57.248-156.096z" fill="#874616" p-id="32190"></path><path d="M899.44 907.312c24.944 0 31.76-15.232 15.152-33.84L741.392 679.424c-16.608-18.608-9.792-33.84 15.152-33.84h86.352c24.944 0 30.816-14.32 13.056-31.84L654.976 415.696c-17.76-17.504-11.888-31.84 13.056-31.84h86.352c24.944 0 32.704-16.016 17.248-35.6L606.496 139.04c-15.456-19.584-29.088-35.6-30.32-35.6-1.216 0-16.048-15.008-32.96-33.328l-0.464-0.512c-16.912-18.336-44.592-18.336-61.504 0l-0.464 0.496c-16.912 18.336-31.744 33.328-32.96 33.328s-14.864 16.048-30.32 35.616L252.368 348.256c-15.456 19.584-7.696 35.6 17.248 35.6h86.352c24.944 0 30.816 14.32 13.056 31.84L168.048 613.76c-17.76 17.504-11.888 31.84 13.056 31.84h86.352c24.944 0 31.76 15.232 15.152 33.84L109.408 873.488c-16.608 18.608-9.792 33.84 15.152 33.84h774.88z" fill="#0DB14B" p-id="32191"></path><path d="M248.4 868.912l129.472-206.08c13.264-21.12 3.712-38.4-21.232-38.4h-20.304c-24.944 0-34.288-17.152-20.784-38.112l121.856-189.008c13.52-20.96 4.16-38.112-20.784-38.112h-23.776c-24.944 0-36.096-18.192-24.768-40.416l123.312-242.08c5.04-9.888 6.768-15.776 5.824-17.904a42.576 42.576 0 0 0-15.984 10.832l-0.464 0.496c-6.24 6.768-12.208 13.072-17.312 18.352l-0.336 0.352c-3.456 3.568-6.496 6.64-8.944 9.04a91.92 91.92 0 0 1-5.04 4.672c-0.672 0.56-1.168 0.912-1.344 0.912-0.768 0-6.368 6.256-14.256 15.728a1021.28 1021.28 0 0 0-16.064 19.872L252.368 348.256c-15.456 19.584-7.696 35.6 17.248 35.6h86.352c24.944 0 30.816 14.32 13.056 31.84l-63.328 62.4-116.176 114.48-21.472 21.152c-17.76 17.504-11.888 31.84 13.056 31.84h86.352c24.944 0 31.76 15.232 15.152 33.84l-58.848 65.936-114.352 128.112c-16.608 18.608-9.792 33.84 15.152 33.84h54.352c24.944 0.016 56.208-17.264 69.488-38.384z" fill="#28C660" p-id="32192"></path><path d="M576.192 103.44c-1.216 0 0.784 15.984 4.432 35.52 3.648 19.536 15.568 53.872 26.48 76.304l46.24 95.088c10.912 22.432-0.576 41.136-25.52 41.552l-23.12 0.384c-24.944 0.416-40.976 7.696-35.616 16.16s9.632 15.392 9.536 15.392 10.848 17.168 24.336 38.16l94.352 146.8c13.488 20.992 4.112 38.496-20.832 38.928l-19.088 0.32c-24.944 0.416-35.904 15.728-24.352 34 11.552 18.288 21.12 33.248 21.264 33.248s11.088 17.296 24.336 38.448l70.112 112.032c13.232 21.152 3.744 40.336-21.104 42.624l-375.12 34.72c-9.824 0.912-15.648 2.4-17.792 4.176h564.736c24.944 0 31.76-15.232 15.152-33.84L741.392 679.424c-16.608-18.608-9.792-33.84 15.152-33.84h86.352c24.944 0 30.816-14.32 13.056-31.84L654.976 415.696c-17.76-17.504-11.888-31.84 13.056-31.84h86.352c24.944 0 32.704-16.016 17.248-35.6l-27.136-34.384-0.016-0.016L606.496 139.04a1036.592 1036.592 0 0 0-11.088-13.824c-10.4-12.752-18.304-21.776-19.216-21.776z" fill="#0C8E3A" p-id="32193"></path><path d="M492.864 16.768c10.528-19.12 27.744-19.12 38.256 0s39.216 38.256 63.776 42.496 29.328 19.024 10.624 32.832-30.192 42.496-25.504 63.744-8.72 29.936-29.76 19.312c-21.04-10.624-55.488-10.624-76.528 0-21.04 10.624-34.432 1.936-29.76-19.312s-6.8-49.936-25.504-63.744-13.92-28.592 10.624-32.832c24.56-4.24 53.264-23.376 63.776-42.496z m57.312 313.472c-22.896 0-38.176-13.872-38.176-34.688s15.264-34.688 38.176-34.688c22.896 0 38.176 13.872 38.176 34.688s-15.28 34.688-38.176 34.688z m95.424 242.128c-22.896 0-38.176-13.872-38.176-34.688 0-20.816 15.264-34.688 38.176-34.688 22.896 0 38.176 13.872 38.176 34.688 0 20.816-15.28 34.688-38.176 34.688zM282.976 804.064c-22.896 0-38.176-13.872-38.176-34.688s15.264-34.688 38.176-34.688c22.896 0 38.176 13.872 38.176 34.688s-15.28 34.688-38.176 34.688z m381.712-22.88c-22.896 0-38.176-13.872-38.176-34.688 0-20.816 15.264-34.688 38.176-34.688 22.896 0 38.176 13.872 38.176 34.688-0.016 20.816-15.28 34.688-38.176 34.688zM416.576 498.976c-22.896 0-38.176-13.872-38.176-34.688s15.264-34.688 38.176-34.688 38.176 13.872 38.176 34.688-15.28 34.688-38.176 34.688z" fill="#FFCF01" p-id="32194"></path></svg>