<?xml version="1.0" encoding="utf-8"?>
<!-- Generator: Adobe Illustrator 21.0.0, SVG Export Plug-In . SVG Version: 6.00 Build 0)  -->
<svg version="1.1" xmlns="http://www.w3.org/2000/svg" xmlns:xlink="http://www.w3.org/1999/xlink" x="0px" y="0px"
	 viewBox="0 0 595.3 841.9" style="enable-background:new 0 0 595.3 841.9;" xml:space="preserve">
<style type="text/css">
	.st0{display:none;}
	.st1{display:inline;fill:#BA9BC9;}
	.st2{fill:#FFFFFF;}
	.st3{fill:#FFFFFF;stroke:#000000;stroke-miterlimit:10;}
	.st4{stroke:#000000;stroke-width:0.25;stroke-miterlimit:10;}
	.st5{fill:none;stroke:#000000;stroke-width:0.25;stroke-miterlimit:10;}
	.st6{fill:#C1272D;stroke:#000000;stroke-width:0.25;stroke-miterlimit:10;}
	.st7{fill:#FF8EC1;}
</style>
<g id="图层_5" class="st0">
	<rect x="-67.2" y="-12" class="st1" width="702" height="875"/>
</g>
<g id="图层_1" class="st0">
	
		<image style="display:inline;overflow:visible;" width="705" height="700" xlink:href="它趣app/它趣素材/微信截图_20181220204746.png"  transform="matrix(0.8455 0 0 0.8455 0 155.2785)">
	</image>
</g>
<g id="图层_4">
	<path class="st2" d="M421,390l-19.8,35.2l18.8,18.9l37,78l-21.3,99L426,644v34l-12,19l-48.2-5l-0.2-16v-29l-32.7,6.1v14.2
		L320.6,694l-8.1,4l-28.7,6.7L266.5,684l-7.2-10l-10.3-1l-18.2-5.7h-14.9l-10.6,9.7l-2.1,18H150l-20-27.7l-2-52.3h-16.5l-8.5-1.6
		l-8-30.2l8.2-30.9c0,0,33.8-22.4,40.8-6.3s96.1-120.7,96.1-120.7l15.5-9.6L245,381.2h-29.1l-12.7-6.8l-15.9-39.9l15.9-56.3L276,260
		l52.5-17H351l10.3,8.1l27,8.9H426l31.9,12l16.1,19v83.4l-29.5,6.8L421,390z"/>
</g>
<g id="图层_2">
	<path class="st3" d="M89,310"/>
	<path class="st4" d="M484,368c-1,6-10.2,15-10.2,15c-8.7,7-25.8,4.8-25.8,4.8c-2.5-2.8-3.5-5-3.5-6.7c-0.2-4.3,5.5-5.2,5.5-5.2
		c13.5,3,20.5-6.5,20.5-6.5C476,357,473,326,473,326c0-34-12.5-39.5-12.5-39.5c-15-18.5-55-20.5-55-20.5c6,6,10.5,13.5,10.5,13.5
		c5.5,7.5,7.5,7.5,7.5,7.5c9,2,3,8.5,3,8.5c-6,7.5-17.5-6-17.5-6c-7.5-13-15.5-18.5-15.5-18.5c-35-34.5-79-22-79-22
		c-39,12-54,46.5-54,46.5c-2.5,6-7,8.5-7,8.5c-9,7-12-2-12-2c-0.5-7.5,7-7,7-7c3-15.5,20-29.5,20-29.5C209.5,270,202,302,202,302
		c-4.5,10-3.5,57-3.5,57c1.5,20,21.5,17.5,21.5,17.5c2.4-0.6,4.1-0.5,5.2,0l0.1,0c3.8,1.8,1.7,7.9,1.7,7.9C202,396,192,374,192,374
		c-8.5-19-3-64-3-64c7-61.5,89-54.5,89-54.5c62.5-46,116-0.5,116-0.5c21.5-4,48.5,6.5,48.5,6.5C480,272.5,484,310,484,310
		C487.5,317,484,368,484,368z"/>
	<path class="st4" d="M294.8,442.8c-1.1,1-3.2,1.6-6.8,1.2c0,0-17.9-7.8-32.4-28.2c-13.5-19-24.2-49-15.1-93.8c0,0,7-7.5,10,2.5
		c0,0-19,75.5,44,110.5C294.5,435,297.5,440.3,294.8,442.8z"/>
	<path class="st5" d="M301.5,338.5"/>
	<circle class="st4" cx="307" cy="340" r="5.5"/>
	<circle class="st4" cx="371.3" cy="340" r="5.5"/>
	<path class="st4" d="M371.5,423.5l-0.2,27.7c-7.2,27.7-31.8,26.8-31.8,26.8c-26.5,0.5-32.5-26.8-32.5-26.8v-28.1
		c4.6,1.6,8.6,2.2,12,2.2v25.9c3.5,16.7,20.5,16.3,20.5,16.3c18.5-1,20-18.4,20-18.4v-23.9C366.4,425.6,371.5,423.5,371.5,423.5z"/>
	<path class="st4" d="M346,420.9l-1.5,23.2c-5.5,11.1-11.5,0-11.5,0v-23.2l5.3-7.4L346,420.9z"/>
	<line class="st5" x1="319" y1="425.3" x2="319" y2="425.2"/>
	<path class="st4" d="M428.6,390c-2.7,8.7-5.1,14-5.1,14c-6.5,13.3-15.4,22.5-22.3,28.3c-6.4,5.3-11.2,7.7-11.2,7.7
		c-8.5-2-3.5-8.7-3.5-8.7C439.5,391.6,420,314,420,314c2-10,10.5-2.5,10.5-2.5C440.6,341.3,434.1,372.6,428.6,390z"/>
	<path class="st5" d="M89,338.5"/>
	<path class="st4" d="M384,405c-2-8-9-2.5-9-2.5l-3.5,6c-16,15-24-2.5-24-2.5c7.5-4.5,12.5-17.9,12.5-17.9c1.5-12.9-8-15.6-8-15.6
		h-25c-10.5,3-9.5,15.6-9.5,15.6c8,16.6,15,17.9,15,17.9c-19,19.5-29-3-29-3c-9.5-7-11,3-11,3c3,11,5.5,13,5.5,13
		c3.2,1.8,6.2,3.1,9,4.1v0c4.6,1.6,8.6,2.2,12,2.2c9.3,0,14-4.4,14-4.4l5.3-7.4l7.7,7.4c4.7,3,9.4,4.1,13.5,4.3
		c6.9,0.4,12-1.7,12-1.7C386.5,418,384,405,384,405z M338.6,398.9l-10.1-10.8c0,0,1-6.2,4-6.4c0,0,9-1.3,11.5,0
		c2.5,1.3,7,1.1,3.5,6.4C344,393.5,338.6,398.9,338.6,398.9z"/>
	<path class="st6" d="M359.5,425.2v23.9c0,0-1.5,17.4-20,18.4c0,0-17,0.4-20.5-16.3v-25.9c9.3,0,14-4.4,14-4.4v23.2
		c0,0,6,11.1,11.5,0l1.5-23.2C350.7,423.9,355.4,425,359.5,425.2z"/>
	<path class="st4" d="M347.5,388.1c-3.5,5.4-8.9,10.8-8.9,10.8l-10.1-10.8c0,0,1-6.2,4-6.4c0,0,9-1.3,11.5,0
		C346.5,383,351,382.8,347.5,388.1z"/>
	<path class="st5" d="M240.1,381.2"/>
	<path class="st5" d="M444.5,381.2"/>
	<path class="st5" d="M307,451.2"/>
	<path class="st4" d="M245,429l-34,57.5L200,499c-33.5,17-60,65.5-60,65.5c-7.5,6-9-2.5-9.5-5s3-8.5,3-8.5
		c-18.5-1.5-30.5,21.5-30.5,21.5c-9,18.5,8.5,42.5,8.5,42.5c-2,9-6.5,5.5-6.5,5.5C91.5,615,89.5,590,89.5,590
		c4.5-60,52-49.5,52-49.5c2.5-11.5,58-57.5,58-57.5c6-12,35.5-57.7,35.5-57.7C243,418.7,245,429,245,429z"/>
	<path class="st4" d="M227.5,505.5l-2.3,16.6c0,0-3.7,13.4-16.7,16.4c0,0-10-3.5-2.5-11l7-5.4l3-24.1c0,0,0.9-8,9.2-4.5
		C225.2,493.5,231,494,227.5,505.5z"/>
	<path class="st4" d="M230.7,544c0,0-3.5,15-14.8,22.3c0,0-2.9,2.7-8.2,0c0,0-3-1.3-2.2-7.8c0,0,11.3-3.6,15.5-20
		C221,538.5,232,533,230.7,544z"/>
	<path class="st4" d="M249,673c0,3-4,5.3-4,5.3l-32-2c4,10.3,0,15.7,0,15.7c-2.3,8.3-14,12.7-14,12.7h-44l-4.7-2.3
		C144.7,700,135,686,135,686c-22.7-26.7-17.7-80.3-17.7-80.3c5.8-9.3,11.3,0,11.3,0c-2.3,7.7,2,41.3,2,41.3c6,29.7,27,46,27,46
		l38.3-0.3c7.7-2.3,7.2-7,7.2-7V665c-2.8-11-18.5-19.7-18.5-19.7c-15-10-17.4-24.2-17.4-24.2c2.2-7.5,9.4-3.5,9.4-3.5
		c1.3,5.3,10.7,16,10.7,16c4,2.7,15.9,9.7,15.9,9.7c9.9,11,10.8,22,10.8,22l31,2h0.9C248.5,667.9,249,673,249,673z"/>
	<path class="st5" d="M245.9,667.3H245C245.3,667.3,245.7,667.3,245.9,667.3z"/>
	<path class="st4" d="M297.6,604.3c-3.7,10-11.6,4-11.6,4c-1-4.3-8-15.7-8-15.7c-8.7-10.3-8-27.3-8-27.3c4.7-7.7,11.7,0,11.7,0
		c-2.3,7.3,4.3,19,4.3,19C291,593.7,297.6,604.3,297.6,604.3z"/>
	<path class="st4" d="M332.7,618.3c-21.3-5.3-30.3-28-30.3-28c-1.5-3.1,1.7-6,1.7-6c6.3-3.3,9,1.7,9,1.7c2,11,18,20,18,20
		c5.7,0.7,7.7,4.1,7.7,4.1C341.7,618.6,332.7,618.3,332.7,618.3z"/>
	<path class="st4" d="M358.7,613.3c0,0-10.3,1.3-7-9c0,0,14.7-7.6,19-21.1c0,0,7.3-6.2,9.7,2.8C380.3,586,381.3,597.3,358.7,613.3z"
		/>
	<path class="st4" d="M414,575.7c0.3,7.3-9.9,21.6-9.9,21.6c-4.6,3.9-7.9,12.9-7.9,12.9c-8.8,1.5-7.9-6.5-7.9-6.5
		c-0.3-4.3,7-13,7-13c10.3-15,8.7-25.7,8.7-25.7c6.3-7.3,10,1.3,10,1.3L414,575.7z"/>
	<path class="st4" d="M432,640.5v44c0,2-2.5,6-2.5,6c-3,10-13,14.2-13,14.2h-45c-17-6.8-15.5-20.7-15.5-20.7l-0.5-30.9
		c-11.5,5.1-19,0-19,0l-1,37.4c-5.5,12-16.5,14.2-16.5,14.2h-42c-18-4.8-17.5-18.7-17.5-18.7l-0.2-18.7L259,647
		c-32-25.5-40.9-69.5-40.9-69.5c4.6-9.5,10.5-2.5,10.5-2.5c7.6,36.5,41.4,68,41.4,68v38c0.5,12,9.5,11.5,9.5,11.5h35.6
		c8.1-1,8.4-5.5,9.4-9.5s0.5-29.9,0.5-29.9l-6-3.6c-6,0.5-5.5-15,4-10s31,5.5,42.7,1c11.7-4.5,10.8,3.5,9.3,7s-7,5.6-7,5.6
		s0,25.4,0,31.9s8,7.5,8,7.5s35-0.5,38,0s6-6.5,6-6.5l1-50c60.5-121.5-7-191.9-7-191.9c-3-10.4,7-7.6,7-7.6
		C497,527.5,432,640.5,432,640.5z"/>
	<path class="st5" d="M245,429"/>
	<path class="st5" d="M401.2,432.3"/>
	<path class="st5" d="M116.9,615"/>
	<path class="st4" d="M259.3,667.3"/>
	<g id="图层_3">
	</g>
</g>
<g id="图层_6">
	<circle class="st7" cx="275.5" cy="388.1" r="13"/>
	<circle class="st7" cx="399.1" cy="383.8" r="12.1"/>
</g>
</svg>
