<?xml version="1.0" encoding="utf-8"?>
<!-- Generator: Adobe Illustrator 18.0.0, SVG Export Plug-In . SVG Version: 6.00 Build 0)  -->
<!DOCTYPE svg PUBLIC "-//W3C//DTD SVG 1.1//EN" "http://www.w3.org/Graphics/SVG/1.1/DTD/svg11.dtd">
<svg version="1.1" id="Layer_1" xmlns="http://www.w3.org/2000/svg" xmlns:xlink="http://www.w3.org/1999/xlink" x="0px" y="0px"
	 viewBox="0 0 480 480" enable-background="new 0 0 480 480" xml:space="preserve">
<g>
	<path fill="#97DCFF" d="M250.6,450.2c-74.6,0-135.3-60.7-135.3-135.3c0-16.4,2.9-32.2,8.5-47.3h-0.2l1.8-4c1.2-3,2.6-6,4.1-8.9
		L233.3,28.1c3.1-6.8,9.7-11.1,17.2-11.1c7.5,0,14.2,4.3,17.3,11.1l103.8,226.5c1.4,2.8,2.7,5.6,3.9,8.5l2.1,4.5h-0.3
		c5.7,15.1,8.5,30.9,8.5,47.3C385.9,389.5,325.2,450.2,250.6,450.2z"/>
	<path fill="#D7F2FF" d="M250.6,434.5c-65.9,0-119.5-53.6-119.5-119.5c0-18.9,4.3-37,12.9-53.9L247.7,34.7c0.8-1.7,2.3-1.9,2.9-1.9
		c0.6,0,2.1,0.2,2.9,1.9L357.2,261c8.6,16.9,12.9,35,12.9,53.9C370.1,380.8,316.5,434.5,250.6,434.5z"/>
	
		<ellipse transform="matrix(-0.6618 0.7497 -0.7497 -0.6618 609.3934 491.1224)" fill="#FFFFFF" cx="193.9" cy="383" rx="18.6" ry="23.6"/>
	
		<ellipse transform="matrix(-0.8908 0.4544 -0.4544 -0.8908 457.9291 578.7146)" fill="#FFFFFF" cx="159.4" cy="344.4" rx="7.6" ry="9.3"/>
	<path fill="#97DCFF" d="M114.2,418.5h-12.9v-12.9c0-5.8-4.7-10.5-10.5-10.5c-5.8,0-10.5,4.7-10.5,10.5v12.9H67.3
		c-5.8,0-10.5,4.7-10.5,10.5s4.7,10.5,10.5,10.5h12.9v12.9c0,5.8,4.7,10.5,10.5,10.5c5.8,0,10.5-4.7,10.5-10.5v-12.9h12.9
		c5.8,0,10.5-4.7,10.5-10.5S120,418.5,114.2,418.5z"/>
	<path fill="#97DCFF" d="M412.7,132.6h-12.9v-12.9c0-5.8-4.7-10.5-10.5-10.5s-10.5,4.7-10.5,10.5v12.9h-12.9
		c-5.8,0-10.5,4.7-10.5,10.5c0,5.8,4.7,10.5,10.5,10.5h12.9v12.9c0,5.8,4.7,10.5,10.5,10.5s10.5-4.7,10.5-10.5v-12.9h12.9
		c5.8,0,10.5-4.7,10.5-10.5C423.2,137.3,418.5,132.6,412.7,132.6z"/>
</g>
</svg>
