<svg id="图层_1" data-name="图层 1" xmlns="http://www.w3.org/2000/svg" viewBox="0 0 420 244.55"><defs><style>.cls-1{fill:#fff;stroke:#000;stroke-miterlimit:10;}.cls-2{fill:#b04808;}.cls-3{fill:#0d2d4a;}.cls-4{fill:#59abde;}.cls-5{fill:#eec050;}</style></defs><title>狗粮</title><g id="图层_2" data-name="图层 2"><path class="cls-1" d="M87.5,408.7" transform="translate(-21.5 -321.15)"/><polygon class="cls-1" points="390.5 207.55 29.5 207.55 66 87.55 124.9 75.65 228.5 67.75 294.5 71.75 334.5 75.65 355.4 87.55 390.5 207.55"/></g><g id="图层_1-2" data-name="图层 1"><g id="图层_2-2" data-name="图层 2"><polygon class="cls-2" points="87.2 75.55 95.8 49.45 115.8 40.65 137.2 36.05 157.5 45.45 162.5 18.75 174.5 10.05 193.2 10.05 206.5 16.75 218.5 6.05 234.5 6.05 247.8 11.45 255.8 25.45 266.4 32.05 285.8 32.05 296.5 37.45 311.2 49.45 314.5 59.45 325.8 63.45 337.2 69.45 339.8 75.75 339.8 81.45 83.8 81.45 87.2 75.55"/></g><g id="图层_1-3" data-name="图层 1"><path class="cls-3" d="M423.5,528.7,385,396.7H146.5l.2,5.5v.3l.2,5.2,230,1,4.5,14.5H358v11l26.5.5,27.5,94H51l29-94.5H340.5v-11H83l4.5-14.5H134v-12H79l-39.5,132h-18v37h420v-37Zm6.5,26.5H32.5V540.7H430Z" transform="translate(-21.5 -321.15)"/><rect class="cls-4" x="11" y="219.55" width="397.5" height="14.5"/><path class="cls-3" d="M288,447.2c-24.5-13.5-32,15.3-32,15.3l-46-1.3c-9-27-32.5-14.5-32.5-14.5-21.5,15.5-3,34.5-3,34.5-17,17,1,32,1,32,29.5,15,34-15,34-15l47,1c5.5,25,28.5,16,28.5,16,24.5-16,7-34,7-34C308,456.7,288,447.2,288,447.2Zm-.9,51.7c-4,12-15.3,5.7-15.3,5.7-9.3-4-3.7-16-3.7-16l-69.8.3c4.5,13-5.9,16.3-5.9,16.3-13.3,4-13.4-9-13.4-9-1-10,9.6-10.3,9.6-10.3V475.2c-5.4,1.3-9.3-5-9.3-5-3-20,13-14,13-14,9.7,4,4.5,16.5,4.5,16.5l71.2.2c-4.7-19.7,9.7-17.5,9.7-17.5,6.7-1.8,9.7,7.2,9.7,7.2,2.7,10.3-9.4,12.7-9.4,12.7l-.3,11C290.5,485.9,287.1,498.9,287.1,498.9Z" transform="translate(-21.5 -321.15)"/><path class="cls-5" d="M287.1,498.9c-4,12-15.3,5.7-15.3,5.7-9.3-4-3.7-16-3.7-16l-69.8.3c4.5,13-5.9,16.3-5.9,16.3-13.3,4-13.4-9-13.4-9-1-10,9.6-10.3,9.6-10.3V475.2c-5.4,1.3-9.3-5-9.3-5-3-20,13-14,13-14,9.7,4,4.5,16.5,4.5,16.5l71.2.2c-4.7-19.7,9.7-17.5,9.7-17.5,6.7-1.8,9.7,7.2,9.7,7.2,2.7,10.3-9.4,12.7-9.4,12.7l-.3,11C290.5,485.9,287.1,498.9,287.1,498.9Z" transform="translate(-21.5 -321.15)"/><path class="cls-3" d="M146.7,402.6l-.3-5.8H356s-7.8-16.5-25.2-5.2c0,0,1.7-28.3-26-32.7,0,0-29.3-5.6-38.3,21.8l-9.7-4.8s1-11.7,18.7-21.3c0,0-3.3-20-16.7-22s-22.6,3.3-25.3,11.7l-10,.7s-19.3-19-35,0c0,0-6.7,9.7-2,19.3,0,0,9,8,8,11.7l-9,5.3s-16.7-26.7-47.3-16.3c0,0-26,9.3-23.3,31.8h-12s-3-32.8,37.7-43.5c0,0,23.3-5,34,4.7a29.14,29.14,0,0,1,16.3-28.3s18.7-11.3,36.7,3.7c0,0,9.3-15.3,31-11.7,0,0,20.3,1.3,26.7,27.7,0,0,18.7-6.3,33,3,0,0,18,8.2,21.7,26.3,0,0,22.7-3,29,18.2Z" transform="translate(-21.5 -321.15)"/></g></g></svg>