<?xml version="1.0" standalone="no"?><!DOCTYPE svg PUBLIC "-//W3C//DTD SVG 1.1//EN" "http://www.w3.org/Graphics/SVG/1.1/DTD/svg11.dtd"><svg t="1545419865429" class="icon" style="" viewBox="0 0 1024 1024" version="1.1" xmlns="http://www.w3.org/2000/svg" p-id="2032" xmlns:xlink="http://www.w3.org/1999/xlink" width="200" height="200"><defs><style type="text/css"></style></defs><path d="M199.111111 263.111111h611.555556v56.888889H199.111111z" fill="#404042" p-id="2033"></path><path d="M184.888889 170.666667L128 443.733333c-9.955556 44.088889-9.955556 91.022222 0 135.111111L184.888889 853.333333c0 31.288889 25.6 56.888889 56.888889 56.888889h540.444444c31.288889 0 56.888889-25.6 56.888889-56.888889l56.888889-273.066666c9.955556-44.088889 9.955556-91.022222 0-135.111111L839.111111 170.666667c0-31.288889-25.6-56.888889-56.888889-56.888889H241.777778c-31.288889 0-56.888889 25.6-56.888889 56.888889z m568.888889 682.666666H270.222222c-15.644444 0-28.444444-12.8-28.444444-28.444444l-54.044445-238.933333c-11.377778-48.355556-11.377778-99.555556 0-147.911112L241.777778 199.111111c0-15.644444 12.8-28.444444 28.444444-28.444444h483.555556c15.644444 0 28.444444 12.8 28.444444 28.444444l54.044445 238.933333c11.377778 48.355556 11.377778 98.133333 0 146.488889L782.222222 824.888889c0 15.644444-12.8 28.444444-28.444444 28.444444z" fill="#404042" p-id="2034"></path><path d="M529.066667 667.022222l65.422222-65.422222c24.177778 11.377778 52.622222 7.111111 72.533333-12.8 25.6-25.6 25.6-65.422222 0-91.022222l-28.444444-15.644445c-11.377778-5.688889-19.911111-15.644444-27.022222-27.022222l-14.222223-28.444444c-25.6-25.6-65.422222-25.6-91.022222 0-19.911111 19.911111-24.177778 48.355556-12.8 72.533333l-65.422222 65.422222c-24.177778-11.377778-52.622222-7.111111-72.533333 12.8-25.6 25.6-25.6 65.422222 0 91.022222l28.444444 15.644445c11.377778 5.688889 19.911111 15.644444 27.022222 27.022222l15.644445 28.444445c25.6 25.6 65.422222 25.6 91.022222 0 18.488889-19.911111 22.755556-49.777778 11.377778-72.533334z m-72.533334 41.244445l-15.644444-28.444445c-5.688889-11.377778-15.644444-19.911111-27.022222-27.022222l-28.444445-15.644444c-8.533333-8.533333-8.533333-21.333333 0-29.866667 8.533333-8.533333 21.333333-8.533333 29.866667 0l15.644444 15.644444 29.866667-29.866666 59.733333-59.733334 29.866667-29.866666-15.644444-15.644445c-8.533333-8.533333-8.533333-21.333333 0-29.866666 8.533333-8.533333 21.333333-8.533333 29.866666 0l15.644445 28.444444c5.688889 11.377778 15.644444 19.911111 27.022222 27.022222l28.444444 15.644445c8.533333 8.533333 8.533333 21.333333 0 29.866666-8.533333 8.533333-21.333333 8.533333-29.866666 0l-15.644445-15.644444-29.866666 29.866667-59.733334 59.733333-29.866666 29.866667 15.644444 15.644444c8.533333 8.533333 8.533333 21.333333 0 29.866667-8.533333 8.533333-21.333333 8.533333-29.866667 0z" fill="#404042" p-id="2035"></path></svg>